<mxfile host="app.diagrams.net" modified="2022-09-26T00:25:59.224Z" agent="5.0 (Windows NT 10.0; Win64; x64) AppleWebKit/537.36 (KHTML, like Gecko) Chrome/105.0.0.0 Safari/537.36" etag="rhjMktI0CKGLEaWhOohn" version="20.3.6" type="github" pages="5">
  <diagram name="regist" id="74e2e168-ea6b-b213-b513-2b3c1d86103e">
    <mxGraphModel dx="2062" dy="1122" grid="1" gridSize="10" guides="1" tooltips="1" connect="1" arrows="1" fold="1" page="1" pageScale="1" pageWidth="1100" pageHeight="850" background="none" math="0" shadow="1">
      <root>
        <mxCell id="0" />
        <mxCell id="1" parent="0" />
        <mxCell id="77e6c97f196da883-1" value="&lt;div&gt;&lt;span style=&quot;font-size: 8px;&quot;&gt;Forgot password&lt;/span&gt;&lt;/div&gt;" style="swimlane;html=1;childLayout=stackLayout;startSize=20;rounded=0;shadow=0;labelBackgroundColor=none;strokeWidth=1;fontFamily=Verdana;fontSize=8;align=center;" parent="1" vertex="1">
          <mxGeometry width="1100" height="1380" as="geometry">
            <mxRectangle x="70" y="40" width="190" height="30" as="alternateBounds" />
          </mxGeometry>
        </mxCell>
        <mxCell id="77e6c97f196da883-2" value="OCMB APP" style="swimlane;html=1;startSize=20;" parent="77e6c97f196da883-1" vertex="1">
          <mxGeometry y="20" width="390" height="1360" as="geometry">
            <mxRectangle x="40" y="20" width="40" height="730" as="alternateBounds" />
          </mxGeometry>
        </mxCell>
        <mxCell id="Akt3h3AdRs0SpvcwCt5--16" value="&lt;div&gt;&quot;Forgot password&quot;&amp;nbsp;&lt;span style=&quot;background-color: initial;&quot;&gt;button&lt;/span&gt;&lt;/div&gt;" style="rounded=1;whiteSpace=wrap;html=1;" parent="77e6c97f196da883-2" vertex="1">
          <mxGeometry x="70" y="57" width="160" height="60" as="geometry" />
        </mxCell>
        <mxCell id="HXrzVIYZJ7QfgkGZ6RUa-13" style="edgeStyle=orthogonalEdgeStyle;rounded=0;orthogonalLoop=1;jettySize=auto;html=1;exitX=0.5;exitY=1;exitDx=0;exitDy=0;entryX=0.5;entryY=0;entryDx=0;entryDy=0;" parent="77e6c97f196da883-2" source="Akt3h3AdRs0SpvcwCt5--24" target="HXrzVIYZJ7QfgkGZ6RUa-2" edge="1">
          <mxGeometry relative="1" as="geometry" />
        </mxCell>
        <mxCell id="Akt3h3AdRs0SpvcwCt5--24" value="&lt;div&gt;&quot;Registration info&quot; screen&lt;/div&gt;" style="whiteSpace=wrap;html=1;rounded=1;" parent="77e6c97f196da883-2" vertex="1">
          <mxGeometry x="70" y="170" width="160" height="60" as="geometry" />
        </mxCell>
        <mxCell id="Akt3h3AdRs0SpvcwCt5--60" value="error message" style="rounded=1;whiteSpace=wrap;html=1;" parent="77e6c97f196da883-2" vertex="1">
          <mxGeometry x="80" y="872" width="160" height="60" as="geometry" />
        </mxCell>
        <mxCell id="HXrzVIYZJ7QfgkGZ6RUa-2" value="&lt;div&gt;&quot;NEXT&quot; button&lt;/div&gt;" style="whiteSpace=wrap;html=1;rounded=1;" parent="77e6c97f196da883-2" vertex="1">
          <mxGeometry x="70" y="290" width="160" height="60" as="geometry" />
        </mxCell>
        <mxCell id="HXrzVIYZJ7QfgkGZ6RUa-21" value="&lt;div&gt;&quot;sms&amp;nbsp;verification&quot; screen&lt;/div&gt;" style="whiteSpace=wrap;html=1;rounded=1;" parent="77e6c97f196da883-2" vertex="1">
          <mxGeometry x="70" y="420" width="160" height="60" as="geometry" />
        </mxCell>
        <mxCell id="HXrzVIYZJ7QfgkGZ6RUa-63" value="&quot;Rreset password&quot; screen" style="whiteSpace=wrap;html=1;fillColor=#FFFFFF;strokeColor=#000000;" parent="77e6c97f196da883-2" vertex="1">
          <mxGeometry x="80" y="1030" width="160" height="60" as="geometry" />
        </mxCell>
        <mxCell id="1qSozf6AAxppWZF9NEOt-1" value="" style="endArrow=classic;html=1;rounded=0;exitX=0.5;exitY=1;exitDx=0;exitDy=0;" parent="77e6c97f196da883-2" source="Akt3h3AdRs0SpvcwCt5--16" target="Akt3h3AdRs0SpvcwCt5--24" edge="1">
          <mxGeometry width="50" height="50" relative="1" as="geometry">
            <mxPoint x="520" y="380" as="sourcePoint" />
            <mxPoint x="570" y="330" as="targetPoint" />
          </mxGeometry>
        </mxCell>
        <mxCell id="HXrzVIYZJ7QfgkGZ6RUa-30" style="edgeStyle=orthogonalEdgeStyle;rounded=0;orthogonalLoop=1;jettySize=auto;html=1;exitX=0;exitY=0.5;exitDx=0;exitDy=0;" parent="77e6c97f196da883-1" source="HXrzVIYZJ7QfgkGZ6RUa-29" target="Akt3h3AdRs0SpvcwCt5--60" edge="1">
          <mxGeometry relative="1" as="geometry" />
        </mxCell>
        <mxCell id="HXrzVIYZJ7QfgkGZ6RUa-31" value="&lt;div&gt;&lt;span style=&quot;font-size: 11px;&quot;&gt;Validation failed&lt;/span&gt;&lt;/div&gt;" style="edgeLabel;html=1;align=center;verticalAlign=middle;resizable=0;points=[];" parent="HXrzVIYZJ7QfgkGZ6RUa-30" vertex="1" connectable="0">
          <mxGeometry x="-0.083" relative="1" as="geometry">
            <mxPoint as="offset" />
          </mxGeometry>
        </mxCell>
        <mxCell id="HXrzVIYZJ7QfgkGZ6RUa-6" style="edgeStyle=orthogonalEdgeStyle;rounded=0;orthogonalLoop=1;jettySize=auto;html=1;exitX=1;exitY=0.5;exitDx=0;exitDy=0;" parent="77e6c97f196da883-1" edge="1">
          <mxGeometry relative="1" as="geometry">
            <mxPoint x="500" y="340" as="targetPoint" />
            <mxPoint x="230" y="340" as="sourcePoint" />
          </mxGeometry>
        </mxCell>
        <mxCell id="HXrzVIYZJ7QfgkGZ6RUa-16" value="Post" style="edgeLabel;html=1;align=center;verticalAlign=middle;resizable=0;points=[];" parent="HXrzVIYZJ7QfgkGZ6RUa-6" vertex="1" connectable="0">
          <mxGeometry x="-0.1386" y="-2" relative="1" as="geometry">
            <mxPoint y="-12" as="offset" />
          </mxGeometry>
        </mxCell>
        <mxCell id="HXrzVIYZJ7QfgkGZ6RUa-19" value="/v1/sms/otp" style="edgeLabel;html=1;align=center;verticalAlign=middle;resizable=0;points=[];" parent="HXrzVIYZJ7QfgkGZ6RUa-6" vertex="1" connectable="0">
          <mxGeometry x="0.3627" y="-2" relative="1" as="geometry">
            <mxPoint x="-70" y="8" as="offset" />
          </mxGeometry>
        </mxCell>
        <mxCell id="77e6c97f196da883-4" value="OCMB API" style="swimlane;html=1;startSize=20;dashed=1;" parent="77e6c97f196da883-1" vertex="1">
          <mxGeometry x="390" y="20" width="370" height="1360" as="geometry">
            <mxRectangle x="80" y="20" width="40" height="730" as="alternateBounds" />
          </mxGeometry>
        </mxCell>
        <mxCell id="2Ceq-H6tFANikrGCOVqs-29" style="edgeStyle=orthogonalEdgeStyle;rounded=0;orthogonalLoop=1;jettySize=auto;html=1;exitX=0.5;exitY=1;exitDx=0;exitDy=0;" parent="77e6c97f196da883-4" edge="1">
          <mxGeometry relative="1" as="geometry">
            <mxPoint x="171" y="10" as="sourcePoint" />
            <mxPoint x="171" y="10" as="targetPoint" />
          </mxGeometry>
        </mxCell>
        <mxCell id="HXrzVIYZJ7QfgkGZ6RUa-18" value="Send otp" style="whiteSpace=wrap;html=1;rounded=1;" parent="77e6c97f196da883-4" vertex="1">
          <mxGeometry x="111" y="290" width="169" height="60" as="geometry" />
        </mxCell>
        <mxCell id="HXrzVIYZJ7QfgkGZ6RUa-29" value="Check sms code" style="rhombus;whiteSpace=wrap;html=1;strokeColor=#000000;fillColor=#FFFFFF;" parent="77e6c97f196da883-4" vertex="1">
          <mxGeometry x="155.5" y="862" width="80" height="80" as="geometry" />
        </mxCell>
        <mxCell id="1qSozf6AAxppWZF9NEOt-4" value="Call Result" style="whiteSpace=wrap;html=1;rounded=1;" parent="77e6c97f196da883-4" vertex="1">
          <mxGeometry x="100.5" y="1030" width="169" height="60" as="geometry" />
        </mxCell>
        <mxCell id="bSAlBUpcWd6XQwIzfLJ4-2" value="Reset password" style="whiteSpace=wrap;html=1;rounded=1;" vertex="1" parent="77e6c97f196da883-4">
          <mxGeometry x="100.5" y="1140" width="169" height="60" as="geometry" />
        </mxCell>
        <mxCell id="HXrzVIYZJ7QfgkGZ6RUa-22" style="edgeStyle=orthogonalEdgeStyle;rounded=0;orthogonalLoop=1;jettySize=auto;html=1;exitX=0.5;exitY=1;exitDx=0;exitDy=0;entryX=1;entryY=0.5;entryDx=0;entryDy=0;" parent="77e6c97f196da883-1" source="HXrzVIYZJ7QfgkGZ6RUa-18" target="HXrzVIYZJ7QfgkGZ6RUa-21" edge="1">
          <mxGeometry relative="1" as="geometry" />
        </mxCell>
        <mxCell id="HXrzVIYZJ7QfgkGZ6RUa-26" style="edgeStyle=orthogonalEdgeStyle;rounded=0;orthogonalLoop=1;jettySize=auto;html=1;exitX=0.5;exitY=1;exitDx=0;exitDy=0;entryX=0.5;entryY=0;entryDx=0;entryDy=0;" parent="77e6c97f196da883-1" source="HXrzVIYZJ7QfgkGZ6RUa-21" target="HXrzVIYZJ7QfgkGZ6RUa-29" edge="1">
          <mxGeometry relative="1" as="geometry">
            <mxPoint x="505.5" y="870" as="targetPoint" />
          </mxGeometry>
        </mxCell>
        <mxCell id="HXrzVIYZJ7QfgkGZ6RUa-27" value="POST" style="edgeLabel;html=1;align=center;verticalAlign=middle;resizable=0;points=[];" parent="HXrzVIYZJ7QfgkGZ6RUa-26" vertex="1" connectable="0">
          <mxGeometry x="0.2472" y="-2" relative="1" as="geometry">
            <mxPoint x="-46" y="-13" as="offset" />
          </mxGeometry>
        </mxCell>
        <mxCell id="HXrzVIYZJ7QfgkGZ6RUa-28" value="/v1/sms/otp/validation" style="edgeLabel;html=1;align=center;verticalAlign=middle;resizable=0;points=[];" parent="HXrzVIYZJ7QfgkGZ6RUa-26" vertex="1" connectable="0">
          <mxGeometry x="0.5801" y="-1" relative="1" as="geometry">
            <mxPoint x="-123" y="8" as="offset" />
          </mxGeometry>
        </mxCell>
        <mxCell id="HXrzVIYZJ7QfgkGZ6RUa-40" style="edgeStyle=orthogonalEdgeStyle;rounded=0;orthogonalLoop=1;jettySize=auto;html=1;exitX=1;exitY=0.5;exitDx=0;exitDy=0;entryX=0;entryY=0.5;entryDx=0;entryDy=0;dashed=1;" parent="77e6c97f196da883-1" source="HXrzVIYZJ7QfgkGZ6RUa-29" target="HXrzVIYZJ7QfgkGZ6RUa-9" edge="1">
          <mxGeometry relative="1" as="geometry" />
        </mxCell>
        <mxCell id="HXrzVIYZJ7QfgkGZ6RUa-41" value="Pass" style="edgeLabel;html=1;align=center;verticalAlign=middle;resizable=0;points=[];" parent="HXrzVIYZJ7QfgkGZ6RUa-40" vertex="1" connectable="0">
          <mxGeometry x="0.2517" y="-1" relative="1" as="geometry">
            <mxPoint x="-56" y="-1" as="offset" />
          </mxGeometry>
        </mxCell>
        <mxCell id="HXrzVIYZJ7QfgkGZ6RUa-42" style="edgeStyle=orthogonalEdgeStyle;rounded=0;orthogonalLoop=1;jettySize=auto;html=1;exitX=0.5;exitY=1;exitDx=0;exitDy=0;entryX=1;entryY=0.5;entryDx=0;entryDy=0;dashed=1;" parent="77e6c97f196da883-1" source="HXrzVIYZJ7QfgkGZ6RUa-9" target="1qSozf6AAxppWZF9NEOt-4" edge="1">
          <mxGeometry relative="1" as="geometry">
            <mxPoint x="625.5" y="1050" as="targetPoint" />
          </mxGeometry>
        </mxCell>
        <mxCell id="HXrzVIYZJ7QfgkGZ6RUa-65" style="edgeStyle=orthogonalEdgeStyle;rounded=0;orthogonalLoop=1;jettySize=auto;html=1;entryX=1;entryY=0.5;entryDx=0;entryDy=0;dashed=1;" parent="77e6c97f196da883-1" target="HXrzVIYZJ7QfgkGZ6RUa-63" edge="1">
          <mxGeometry relative="1" as="geometry">
            <mxPoint x="490" y="1080" as="sourcePoint" />
          </mxGeometry>
        </mxCell>
        <mxCell id="HXrzVIYZJ7QfgkGZ6RUa-66" value="Email and mobile not exists" style="edgeLabel;html=1;align=center;verticalAlign=middle;resizable=0;points=[];labelBackgroundColor=default;" parent="HXrzVIYZJ7QfgkGZ6RUa-65" vertex="1" connectable="0">
          <mxGeometry x="0.2135" y="-1" relative="1" as="geometry">
            <mxPoint x="5" y="-9" as="offset" />
          </mxGeometry>
        </mxCell>
        <mxCell id="Akt3h3AdRs0SpvcwCt5--1" value="&lt;div&gt;Third party API&lt;/div&gt;" style="swimlane;html=1;startSize=20;" parent="77e6c97f196da883-1" vertex="1">
          <mxGeometry x="760" y="20" width="340" height="1360" as="geometry">
            <mxRectangle x="120" y="20" width="40" height="730" as="alternateBounds" />
          </mxGeometry>
        </mxCell>
        <mxCell id="HXrzVIYZJ7QfgkGZ6RUa-9" value="Query &quot;Customer Info&quot;" style="rounded=1;whiteSpace=wrap;html=1;fillColor=#FFFFFF;strokeColor=#FF0000;dashed=1;" parent="Akt3h3AdRs0SpvcwCt5--1" vertex="1">
          <mxGeometry x="90" y="872" width="130" height="60" as="geometry" />
        </mxCell>
        <mxCell id="bSAlBUpcWd6XQwIzfLJ4-3" style="edgeStyle=orthogonalEdgeStyle;rounded=0;orthogonalLoop=1;jettySize=auto;html=1;exitX=0.5;exitY=1;exitDx=0;exitDy=0;entryX=0;entryY=0.5;entryDx=0;entryDy=0;" edge="1" parent="77e6c97f196da883-1" source="HXrzVIYZJ7QfgkGZ6RUa-63" target="bSAlBUpcWd6XQwIzfLJ4-2">
          <mxGeometry relative="1" as="geometry" />
        </mxCell>
      </root>
    </mxGraphModel>
  </diagram>
  <diagram id="JefItQQ-cC_4rSwBYG0n" name="create card">
    <mxGraphModel dx="2062" dy="1122" grid="1" gridSize="10" guides="1" tooltips="1" connect="1" arrows="1" fold="1" page="1" pageScale="1" pageWidth="1100" pageHeight="850" math="0" shadow="1">
      <root>
        <mxCell id="0" />
        <mxCell id="1" parent="0" />
        <mxCell id="-ztwoPm2OrguGS3gSJhK-1" value="create card" style="swimlane;html=1;childLayout=stackLayout;startSize=20;rounded=0;shadow=0;labelBackgroundColor=none;strokeWidth=1;fontFamily=Verdana;fontSize=8;align=center;" parent="1" vertex="1">
          <mxGeometry width="1100" height="1950" as="geometry">
            <mxRectangle x="70" y="40" width="190" height="30" as="alternateBounds" />
          </mxGeometry>
        </mxCell>
        <mxCell id="-ztwoPm2OrguGS3gSJhK-2" value="OCMB APP" style="swimlane;html=1;startSize=20;" parent="-ztwoPm2OrguGS3gSJhK-1" vertex="1">
          <mxGeometry y="20" width="370" height="1930" as="geometry">
            <mxRectangle x="40" y="20" width="40" height="730" as="alternateBounds" />
          </mxGeometry>
        </mxCell>
        <mxCell id="_Rerh1Ffgw1ljmtPrs9r-11" style="edgeStyle=orthogonalEdgeStyle;rounded=0;jumpStyle=line;orthogonalLoop=1;jettySize=auto;html=1;exitX=0.5;exitY=1;exitDx=0;exitDy=0;entryX=0.5;entryY=0;entryDx=0;entryDy=0;shadow=1;startArrow=none;startFill=0;endArrow=blockThin;endFill=1;" parent="-ztwoPm2OrguGS3gSJhK-2" source="-ztwoPm2OrguGS3gSJhK-3" target="_Rerh1Ffgw1ljmtPrs9r-10" edge="1">
          <mxGeometry relative="1" as="geometry" />
        </mxCell>
        <mxCell id="-ztwoPm2OrguGS3gSJhK-3" value="&lt;div&gt;&quot;Product Category&quot; screen&lt;/div&gt;" style="rounded=1;whiteSpace=wrap;html=1;" parent="-ztwoPm2OrguGS3gSJhK-2" vertex="1">
          <mxGeometry x="55" y="140" width="155" height="60" as="geometry" />
        </mxCell>
        <mxCell id="-ztwoPm2OrguGS3gSJhK-5" value="&lt;div&gt;&quot;Card details&quot; screen&lt;/div&gt;" style="whiteSpace=wrap;html=1;rounded=1;" parent="-ztwoPm2OrguGS3gSJhK-2" vertex="1">
          <mxGeometry x="55" y="1040" width="155" height="60" as="geometry" />
        </mxCell>
        <mxCell id="-ztwoPm2OrguGS3gSJhK-7" value="&lt;div&gt;&quot;successful&quot; screen&lt;/div&gt;" style="whiteSpace=wrap;html=1;rounded=0;" parent="-ztwoPm2OrguGS3gSJhK-2" vertex="1">
          <mxGeometry x="70" y="1768" width="120" height="60" as="geometry" />
        </mxCell>
        <mxCell id="_Rerh1Ffgw1ljmtPrs9r-2" value="&lt;div&gt;Click &quot;Apply&quot; Button&lt;/div&gt;" style="rounded=1;whiteSpace=wrap;html=1;" parent="-ztwoPm2OrguGS3gSJhK-2" vertex="1">
          <mxGeometry x="55" y="40" width="155" height="60" as="geometry" />
        </mxCell>
        <mxCell id="_Rerh1Ffgw1ljmtPrs9r-10" value="&lt;div&gt;&quot;Product List&quot; screen&lt;/div&gt;" style="rounded=1;whiteSpace=wrap;html=1;" parent="-ztwoPm2OrguGS3gSJhK-2" vertex="1">
          <mxGeometry x="55" y="250" width="155" height="60" as="geometry" />
        </mxCell>
        <mxCell id="PM3Y_mJIEuU0HfF_jdP7-10" style="edgeStyle=orthogonalEdgeStyle;rounded=0;jumpStyle=line;orthogonalLoop=1;jettySize=auto;html=1;exitX=0.5;exitY=1;exitDx=0;exitDy=0;entryX=0.5;entryY=0;entryDx=0;entryDy=0;shadow=1;startArrow=none;startFill=0;endArrow=blockThin;endFill=1;" parent="-ztwoPm2OrguGS3gSJhK-2" source="aBi8eappRncqRm-S3S4F-1" target="-ztwoPm2OrguGS3gSJhK-5" edge="1">
          <mxGeometry relative="1" as="geometry" />
        </mxCell>
        <mxCell id="aBi8eappRncqRm-S3S4F-1" value="&lt;div&gt;&quot;Card info&quot; screen&lt;/div&gt;" style="whiteSpace=wrap;html=1;rounded=1;" parent="-ztwoPm2OrguGS3gSJhK-2" vertex="1">
          <mxGeometry x="55" y="910" width="155" height="60" as="geometry" />
        </mxCell>
        <mxCell id="FSNEAS2BVyc_DA7C3l2N-1" value="&quot;Review your appliction details&quot; screen" style="rounded=1;whiteSpace=wrap;html=1;strokeColor=#000000;fillColor=#FFFFFF;" parent="-ztwoPm2OrguGS3gSJhK-2" vertex="1">
          <mxGeometry x="50" y="1240" width="160" height="60" as="geometry" />
        </mxCell>
        <mxCell id="PM3Y_mJIEuU0HfF_jdP7-8" value="Error Message" style="whiteSpace=wrap;html=1;rounded=1;" parent="-ztwoPm2OrguGS3gSJhK-2" vertex="1">
          <mxGeometry x="55" y="780" width="155" height="60" as="geometry" />
        </mxCell>
        <mxCell id="-ztwoPm2OrguGS3gSJhK-32" style="edgeStyle=orthogonalEdgeStyle;rounded=0;orthogonalLoop=1;jettySize=auto;html=1;exitX=1;exitY=0.5;exitDx=0;exitDy=0;entryX=0;entryY=0.5;entryDx=0;entryDy=0;" parent="-ztwoPm2OrguGS3gSJhK-1" source="_Rerh1Ffgw1ljmtPrs9r-2" target="-ztwoPm2OrguGS3gSJhK-9" edge="1">
          <mxGeometry relative="1" as="geometry" />
        </mxCell>
        <mxCell id="-ztwoPm2OrguGS3gSJhK-33" value="&lt;span style=&quot;color: rgb(33, 33, 33); font-family: Inter, system-ui, -apple-system, BlinkMacSystemFont, &amp;quot;Segoe UI&amp;quot;, Roboto, Oxygen, Ubuntu, Cantarell, &amp;quot;Fira Sans&amp;quot;, &amp;quot;Droid Sans&amp;quot;, Helvetica, Arial, sans-serif; font-size: 12px; text-align: left;&quot;&gt;/products/customer&lt;/span&gt;" style="edgeLabel;html=1;align=center;verticalAlign=middle;resizable=0;points=[];" parent="-ztwoPm2OrguGS3gSJhK-32" vertex="1" connectable="0">
          <mxGeometry x="0.1448" relative="1" as="geometry">
            <mxPoint x="-13" y="8" as="offset" />
          </mxGeometry>
        </mxCell>
        <mxCell id="_Rerh1Ffgw1ljmtPrs9r-1" value="GET" style="edgeLabel;html=1;align=center;verticalAlign=middle;resizable=0;points=[];" parent="-ztwoPm2OrguGS3gSJhK-32" vertex="1" connectable="0">
          <mxGeometry x="0.1113" y="-2" relative="1" as="geometry">
            <mxPoint x="-21" y="-12" as="offset" />
          </mxGeometry>
        </mxCell>
        <mxCell id="-ztwoPm2OrguGS3gSJhK-34" style="edgeStyle=orthogonalEdgeStyle;rounded=0;orthogonalLoop=1;jettySize=auto;html=1;exitX=0.5;exitY=1;exitDx=0;exitDy=0;entryX=1;entryY=0.5;entryDx=0;entryDy=0;" parent="-ztwoPm2OrguGS3gSJhK-1" source="-ztwoPm2OrguGS3gSJhK-9" target="-ztwoPm2OrguGS3gSJhK-3" edge="1">
          <mxGeometry relative="1" as="geometry" />
        </mxCell>
        <mxCell id="-ztwoPm2OrguGS3gSJhK-20" style="edgeStyle=orthogonalEdgeStyle;rounded=0;orthogonalLoop=1;jettySize=auto;html=1;exitX=1;exitY=0.5;exitDx=0;exitDy=0;entryX=0;entryY=0.5;entryDx=0;entryDy=0;" parent="-ztwoPm2OrguGS3gSJhK-1" source="-ztwoPm2OrguGS3gSJhK-14" target="-ztwoPm2OrguGS3gSJhK-30" edge="1">
          <mxGeometry relative="1" as="geometry" />
        </mxCell>
        <mxCell id="-ztwoPm2OrguGS3gSJhK-21" value="&lt;span style=&quot;color: rgb(56, 66, 72); font-family: Lato; font-size: 13px; text-align: start;&quot;&gt;/passport&lt;/span&gt;&lt;span style=&quot;color: rgb(56, 66, 72); font-family: Lato; font-size: 13px; text-align: start;&quot;&gt;/v1/oauth2/token&lt;/span&gt;" style="edgeLabel;html=1;align=center;verticalAlign=middle;resizable=0;points=[];" parent="-ztwoPm2OrguGS3gSJhK-20" vertex="1" connectable="0">
          <mxGeometry x="-0.1875" y="1" relative="1" as="geometry">
            <mxPoint x="30" y="11" as="offset" />
          </mxGeometry>
        </mxCell>
        <mxCell id="-ztwoPm2OrguGS3gSJhK-22" style="edgeStyle=orthogonalEdgeStyle;rounded=0;orthogonalLoop=1;jettySize=auto;html=1;exitX=0.5;exitY=1;exitDx=0;exitDy=0;entryX=1;entryY=0.5;entryDx=0;entryDy=0;" parent="-ztwoPm2OrguGS3gSJhK-1" source="-ztwoPm2OrguGS3gSJhK-30" target="-ztwoPm2OrguGS3gSJhK-15" edge="1">
          <mxGeometry relative="1" as="geometry" />
        </mxCell>
        <mxCell id="-ztwoPm2OrguGS3gSJhK-23" value="response token" style="edgeLabel;html=1;align=center;verticalAlign=middle;resizable=0;points=[];" parent="-ztwoPm2OrguGS3gSJhK-22" vertex="1" connectable="0">
          <mxGeometry x="0.0685" y="2" relative="1" as="geometry">
            <mxPoint x="-95" y="-16" as="offset" />
          </mxGeometry>
        </mxCell>
        <mxCell id="-ztwoPm2OrguGS3gSJhK-24" style="edgeStyle=orthogonalEdgeStyle;rounded=0;orthogonalLoop=1;jettySize=auto;html=1;exitX=0.5;exitY=1;exitDx=0;exitDy=0;entryX=0;entryY=0.5;entryDx=0;entryDy=0;" parent="-ztwoPm2OrguGS3gSJhK-1" source="-ztwoPm2OrguGS3gSJhK-15" target="-ztwoPm2OrguGS3gSJhK-31" edge="1">
          <mxGeometry relative="1" as="geometry" />
        </mxCell>
        <mxCell id="-ztwoPm2OrguGS3gSJhK-25" value="POST" style="edgeLabel;html=1;align=center;verticalAlign=middle;resizable=0;points=[];" parent="-ztwoPm2OrguGS3gSJhK-24" vertex="1" connectable="0">
          <mxGeometry x="0.119" relative="1" as="geometry">
            <mxPoint x="64" y="-13" as="offset" />
          </mxGeometry>
        </mxCell>
        <mxCell id="1qYR74eFdYPwkDfSf0Tb-1" value="&lt;div style=&quot;display: flex; margin-top: 10px; color: rgb(56, 66, 72); font-family: Lato; font-size: medium; text-align: start;&quot; class=&quot;headline-container-article-info2GaOf2jMpV0r&quot;&gt;&lt;span style=&quot;font-size: 13px; word-break: break-all;&quot; title=&quot;https://api-sandbox.pismolabs.io/wallet/v2/cards&quot; data-testid=&quot;serverurl&quot; class=&quot;headline-container-article-info-url2nV_XrjpFuVQ&quot;&gt;&lt;br&gt;&lt;/span&gt;&lt;/div&gt;&lt;div style=&quot;font-size: medium; text-size-adjust: 100%; position: relative; font-family: Lato; line-height: var(--markdown-line-height); color: rgb(56, 66, 72); overflow-wrap: break-word; margin-bottom: 0px; margin-top: 10px; text-align: start;&quot; data-testid=&quot;RDMD&quot; class=&quot;markdown-body undefined excerptT2m-MzSJGRK7&quot; role=&quot;doc-subtitle&quot;&gt;&lt;/div&gt;" style="edgeLabel;html=1;align=center;verticalAlign=middle;resizable=0;points=[];" parent="-ztwoPm2OrguGS3gSJhK-24" vertex="1" connectable="0">
          <mxGeometry x="0.6" y="-3" relative="1" as="geometry">
            <mxPoint x="-32" y="9" as="offset" />
          </mxGeometry>
        </mxCell>
        <mxCell id="1qYR74eFdYPwkDfSf0Tb-4" value="&lt;span style=&quot;color: rgba(0, 0, 0, 0); font-family: monospace; font-size: 0px; text-align: start; background-color: rgb(248, 249, 250);&quot;&gt;%3CmxGraphModel%3E%3Croot%3E%3CmxCell%20id%3D%220%22%2F%3E%3CmxCell%20id%3D%221%22%20parent%3D%220%22%2F%3E%3CmxCell%20id%3D%222%22%20value%3D%22%26lt%3Bspan%20style%3D%26quot%3Bfont-size%3A%2012px%3B%20background-color%3A%20rgb(248%2C%20249%2C%20250)%3B%26quot%3B%26gt%3B%2Fwallet%2Fv2%2Fcards%26lt%3B%2Fspan%26gt%3B%22%20style%3D%22edgeLabel%3Bhtml%3D1%3Balign%3Dcenter%3BverticalAlign%3Dmiddle%3Bresizable%3D0%3Bpoints%3D%5B%5D%3B%22%20vertex%3D%221%22%20connectable%3D%220%22%20parent%3D%221%22%3E%3CmxGeometry%20x%3D%22770%22%20y%3D%22960%22%20as%3D%22geometry%22%2F%3E%3C%2FmxCell%3E%3C%2Froot%3E%3C%2FmxGraphModel%3E&lt;/span&gt;&lt;span style=&quot;color: rgba(0, 0, 0, 0); font-family: monospace; font-size: 0px; text-align: start; background-color: rgb(248, 249, 250);&quot;&gt;%3CmxGraphModel%3E%3Croot%3E%3CmxCell%20id%3D%220%22%2F%3E%3CmxCell%20id%3D%221%22%20parent%3D%220%22%2F%3E%3CmxCell%20id%3D%222%22%20value%3D%22%26lt%3Bspan%20style%3D%26quot%3Bfont-size%3A%2012px%3B%20background-color%3A%20rgb(248%2C%20249%2C%20250)%3B%26quot%3B%26gt%3B%2Fwallet%2Fv2%2Fcards%26lt%3B%2Fspan%26gt%3B%22%20style%3D%22edgeLabel%3Bhtml%3D1%3Balign%3Dcenter%3BverticalAlign%3Dmiddle%3Bresizable%3D0%3Bpoints%3D%5B%5D%3B%22%20vertex%3D%221%22%20connectable%3D%220%22%20parent%3D%221%22%3E%3CmxGeometry%20x%3D%22770%22%20y%3D%22960%22%20as%3D%22geometry%22%2F%3E%3C%2FmxCell%3E%3C%2Froot%3E%3C%2FmxGraphModel%3E&lt;/span&gt;&lt;font face=&quot;monospace&quot; color=&quot;rgba(0, 0, 0, 0)&quot;&gt;&lt;span style=&quot;font-size: 0px;&quot;&gt;/wallet/v2/cards&lt;/span&gt;&lt;/font&gt;" style="edgeLabel;html=1;align=center;verticalAlign=middle;resizable=0;points=[];" parent="-ztwoPm2OrguGS3gSJhK-24" vertex="1" connectable="0">
          <mxGeometry x="0.6923" y="-2" relative="1" as="geometry">
            <mxPoint as="offset" />
          </mxGeometry>
        </mxCell>
        <mxCell id="1qYR74eFdYPwkDfSf0Tb-5" value="/wallet/v2/cards" style="edgeLabel;html=1;align=center;verticalAlign=middle;resizable=0;points=[];" parent="-ztwoPm2OrguGS3gSJhK-24" vertex="1" connectable="0">
          <mxGeometry x="0.6667" y="-3" relative="1" as="geometry">
            <mxPoint x="-35" y="7" as="offset" />
          </mxGeometry>
        </mxCell>
        <mxCell id="-ztwoPm2OrguGS3gSJhK-26" style="edgeStyle=orthogonalEdgeStyle;rounded=0;orthogonalLoop=1;jettySize=auto;html=1;exitX=0.5;exitY=1;exitDx=0;exitDy=0;entryX=1;entryY=0.5;entryDx=0;entryDy=0;" parent="-ztwoPm2OrguGS3gSJhK-1" source="-ztwoPm2OrguGS3gSJhK-31" target="-ztwoPm2OrguGS3gSJhK-16" edge="1">
          <mxGeometry relative="1" as="geometry" />
        </mxCell>
        <mxCell id="-ztwoPm2OrguGS3gSJhK-27" value="response card info" style="edgeLabel;html=1;align=center;verticalAlign=middle;resizable=0;points=[];" parent="-ztwoPm2OrguGS3gSJhK-26" vertex="1" connectable="0">
          <mxGeometry x="0.1715" y="1" relative="1" as="geometry">
            <mxPoint as="offset" />
          </mxGeometry>
        </mxCell>
        <mxCell id="-ztwoPm2OrguGS3gSJhK-28" value="" style="edgeStyle=orthogonalEdgeStyle;rounded=0;orthogonalLoop=1;jettySize=auto;html=1;" parent="-ztwoPm2OrguGS3gSJhK-1" source="-ztwoPm2OrguGS3gSJhK-16" target="-ztwoPm2OrguGS3gSJhK-7" edge="1">
          <mxGeometry relative="1" as="geometry" />
        </mxCell>
        <mxCell id="FSNEAS2BVyc_DA7C3l2N-2" style="edgeStyle=orthogonalEdgeStyle;rounded=0;jumpStyle=line;orthogonalLoop=1;jettySize=auto;html=1;exitX=1;exitY=0.5;exitDx=0;exitDy=0;entryX=0;entryY=0.5;entryDx=0;entryDy=0;shadow=1;startArrow=classic;startFill=1;endArrow=blockThin;endFill=1;" parent="-ztwoPm2OrguGS3gSJhK-1" source="FSNEAS2BVyc_DA7C3l2N-1" target="-ztwoPm2OrguGS3gSJhK-11" edge="1">
          <mxGeometry relative="1" as="geometry" />
        </mxCell>
        <mxCell id="unq5F3HCtpJJmsBXHXXX-1" value="/v1/my-applications" style="edgeLabel;html=1;align=center;verticalAlign=middle;resizable=0;points=[];" parent="FSNEAS2BVyc_DA7C3l2N-2" vertex="1" connectable="0">
          <mxGeometry x="0.1792" relative="1" as="geometry">
            <mxPoint y="10" as="offset" />
          </mxGeometry>
        </mxCell>
        <mxCell id="-ztwoPm2OrguGS3gSJhK-8" value="OCMB API" style="swimlane;html=1;startSize=20;" parent="-ztwoPm2OrguGS3gSJhK-1" vertex="1">
          <mxGeometry x="370" y="20" width="410" height="1930" as="geometry">
            <mxRectangle x="80" y="20" width="40" height="730" as="alternateBounds" />
          </mxGeometry>
        </mxCell>
        <mxCell id="-ztwoPm2OrguGS3gSJhK-9" value="Query &quot;Product Category &amp;amp; Sub Product List&quot;" style="rounded=1;whiteSpace=wrap;html=1;" parent="-ztwoPm2OrguGS3gSJhK-8" vertex="1">
          <mxGeometry x="140" y="41" width="120" height="60" as="geometry" />
        </mxCell>
        <mxCell id="-ztwoPm2OrguGS3gSJhK-10" style="edgeStyle=orthogonalEdgeStyle;rounded=0;orthogonalLoop=1;jettySize=auto;html=1;exitX=0.5;exitY=1;exitDx=0;exitDy=0;" parent="-ztwoPm2OrguGS3gSJhK-8" source="-ztwoPm2OrguGS3gSJhK-11" target="-ztwoPm2OrguGS3gSJhK-14" edge="1">
          <mxGeometry relative="1" as="geometry" />
        </mxCell>
        <mxCell id="unq5F3HCtpJJmsBXHXXX-4" value="Submit" style="edgeLabel;html=1;align=center;verticalAlign=middle;resizable=0;points=[];" parent="-ztwoPm2OrguGS3gSJhK-10" vertex="1" connectable="0">
          <mxGeometry x="0.2464" relative="1" as="geometry">
            <mxPoint as="offset" />
          </mxGeometry>
        </mxCell>
        <mxCell id="-ztwoPm2OrguGS3gSJhK-11" value="save data" style="rounded=1;whiteSpace=wrap;html=1;" parent="-ztwoPm2OrguGS3gSJhK-8" vertex="1">
          <mxGeometry x="140" y="1240" width="120" height="60" as="geometry" />
        </mxCell>
        <mxCell id="-ztwoPm2OrguGS3gSJhK-12" style="edgeStyle=orthogonalEdgeStyle;rounded=0;orthogonalLoop=1;jettySize=auto;html=1;exitX=0.5;exitY=1;exitDx=0;exitDy=0;entryX=0.5;entryY=0;entryDx=0;entryDy=0;" parent="-ztwoPm2OrguGS3gSJhK-8" source="-ztwoPm2OrguGS3gSJhK-14" target="-ztwoPm2OrguGS3gSJhK-15" edge="1">
          <mxGeometry relative="1" as="geometry" />
        </mxCell>
        <mxCell id="-ztwoPm2OrguGS3gSJhK-13" value="has token" style="edgeLabel;html=1;align=center;verticalAlign=middle;resizable=0;points=[];" parent="-ztwoPm2OrguGS3gSJhK-12" vertex="1" connectable="0">
          <mxGeometry x="-0.3333" y="-1" relative="1" as="geometry">
            <mxPoint as="offset" />
          </mxGeometry>
        </mxCell>
        <mxCell id="-ztwoPm2OrguGS3gSJhK-14" value="&lt;div&gt;Token verification&lt;/div&gt;" style="rhombus;whiteSpace=wrap;html=1;" parent="-ztwoPm2OrguGS3gSJhK-8" vertex="1">
          <mxGeometry x="160" y="1380" width="80" height="80" as="geometry" />
        </mxCell>
        <mxCell id="-ztwoPm2OrguGS3gSJhK-15" value="Account accessToken" style="rounded=0;whiteSpace=wrap;html=1;" parent="-ztwoPm2OrguGS3gSJhK-8" vertex="1">
          <mxGeometry x="140" y="1540" width="120" height="60" as="geometry" />
        </mxCell>
        <mxCell id="-ztwoPm2OrguGS3gSJhK-16" value="get response" style="whiteSpace=wrap;html=1;rounded=0;" parent="-ztwoPm2OrguGS3gSJhK-8" vertex="1">
          <mxGeometry x="145" y="1768" width="120" height="60" as="geometry" />
        </mxCell>
        <mxCell id="-ztwoPm2OrguGS3gSJhK-17" style="edgeStyle=orthogonalEdgeStyle;rounded=0;orthogonalLoop=1;jettySize=auto;html=1;exitX=0.5;exitY=1;exitDx=0;exitDy=0;" parent="-ztwoPm2OrguGS3gSJhK-8" edge="1">
          <mxGeometry relative="1" as="geometry">
            <mxPoint x="205" as="sourcePoint" />
            <mxPoint x="205" as="targetPoint" />
          </mxGeometry>
        </mxCell>
        <mxCell id="M_CqHC2ojWvSBjeytHBE-23" style="edgeStyle=orthogonalEdgeStyle;rounded=0;jumpStyle=line;orthogonalLoop=1;jettySize=auto;html=1;exitX=0.5;exitY=1;exitDx=0;exitDy=0;entryX=0.5;entryY=0;entryDx=0;entryDy=0;shadow=1;startArrow=none;startFill=0;endArrow=blockThin;endFill=1;" parent="-ztwoPm2OrguGS3gSJhK-8" source="2cIBxZw03OA3c32o0oA2-2" target="M_CqHC2ojWvSBjeytHBE-9" edge="1">
          <mxGeometry relative="1" as="geometry">
            <mxPoint x="200" y="450" as="sourcePoint" />
          </mxGeometry>
        </mxCell>
        <mxCell id="2cIBxZw03OA3c32o0oA2-2" value="Query &quot;create card application form&quot;" style="rounded=1;whiteSpace=wrap;html=1;" parent="-ztwoPm2OrguGS3gSJhK-8" vertex="1">
          <mxGeometry x="140" y="250" width="120" height="60" as="geometry" />
        </mxCell>
        <mxCell id="unq5F3HCtpJJmsBXHXXX-2" value="POST" style="text;html=1;align=center;verticalAlign=middle;resizable=0;points=[];autosize=1;strokeColor=none;fillColor=none;" parent="-ztwoPm2OrguGS3gSJhK-8" vertex="1">
          <mxGeometry x="-20" y="1246" width="60" height="30" as="geometry" />
        </mxCell>
        <mxCell id="M_CqHC2ojWvSBjeytHBE-9" value="&lt;div&gt;Token verification&lt;/div&gt;" style="rhombus;whiteSpace=wrap;html=1;" parent="-ztwoPm2OrguGS3gSJhK-8" vertex="1">
          <mxGeometry x="160" y="391" width="80" height="80" as="geometry" />
        </mxCell>
        <mxCell id="M_CqHC2ojWvSBjeytHBE-10" value="Account accessToken" style="rounded=0;whiteSpace=wrap;html=1;" parent="-ztwoPm2OrguGS3gSJhK-8" vertex="1">
          <mxGeometry x="140" y="551" width="120" height="60" as="geometry" />
        </mxCell>
        <mxCell id="M_CqHC2ojWvSBjeytHBE-7" style="edgeStyle=orthogonalEdgeStyle;rounded=0;orthogonalLoop=1;jettySize=auto;html=1;exitX=0.5;exitY=1;exitDx=0;exitDy=0;entryX=0.5;entryY=0;entryDx=0;entryDy=0;" parent="-ztwoPm2OrguGS3gSJhK-8" source="M_CqHC2ojWvSBjeytHBE-9" target="M_CqHC2ojWvSBjeytHBE-10" edge="1">
          <mxGeometry relative="1" as="geometry" />
        </mxCell>
        <mxCell id="M_CqHC2ojWvSBjeytHBE-8" value="has token" style="edgeLabel;html=1;align=center;verticalAlign=middle;resizable=0;points=[];" parent="M_CqHC2ojWvSBjeytHBE-7" vertex="1" connectable="0">
          <mxGeometry x="-0.3333" y="-1" relative="1" as="geometry">
            <mxPoint as="offset" />
          </mxGeometry>
        </mxCell>
        <mxCell id="PM3Y_mJIEuU0HfF_jdP7-6" value="Check card" style="rhombus;whiteSpace=wrap;html=1;shadow=0;labelBackgroundColor=none;strokeColor=#000000;fillColor=#FFFFFF;" parent="-ztwoPm2OrguGS3gSJhK-8" vertex="1">
          <mxGeometry x="145" y="770" width="80" height="80" as="geometry" />
        </mxCell>
        <mxCell id="-kIaK2AQIyHvrU_FX70G-3" value="save data" style="rounded=1;whiteSpace=wrap;html=1;" parent="-ztwoPm2OrguGS3gSJhK-8" vertex="1">
          <mxGeometry x="145" y="1040" width="120" height="60" as="geometry" />
        </mxCell>
        <mxCell id="2cIBxZw03OA3c32o0oA2-1" style="edgeStyle=orthogonalEdgeStyle;rounded=0;jumpStyle=line;orthogonalLoop=1;jettySize=auto;html=1;exitX=1;exitY=0.5;exitDx=0;exitDy=0;shadow=1;startArrow=none;startFill=0;endArrow=blockThin;endFill=1;" parent="-ztwoPm2OrguGS3gSJhK-1" source="_Rerh1Ffgw1ljmtPrs9r-10" target="2cIBxZw03OA3c32o0oA2-2" edge="1">
          <mxGeometry relative="1" as="geometry">
            <mxPoint x="280" y="300.1428571428571" as="targetPoint" />
          </mxGeometry>
        </mxCell>
        <mxCell id="M_CqHC2ojWvSBjeytHBE-13" style="edgeStyle=orthogonalEdgeStyle;rounded=0;orthogonalLoop=1;jettySize=auto;html=1;exitX=0.5;exitY=1;exitDx=0;exitDy=0;entryX=1;entryY=0.5;entryDx=0;entryDy=0;" parent="-ztwoPm2OrguGS3gSJhK-1" source="M_CqHC2ojWvSBjeytHBE-20" target="M_CqHC2ojWvSBjeytHBE-10" edge="1">
          <mxGeometry relative="1" as="geometry" />
        </mxCell>
        <mxCell id="M_CqHC2ojWvSBjeytHBE-14" value="response token" style="edgeLabel;html=1;align=center;verticalAlign=middle;resizable=0;points=[];" parent="M_CqHC2ojWvSBjeytHBE-13" vertex="1" connectable="0">
          <mxGeometry x="0.0685" y="2" relative="1" as="geometry">
            <mxPoint x="-95" y="-16" as="offset" />
          </mxGeometry>
        </mxCell>
        <mxCell id="M_CqHC2ojWvSBjeytHBE-11" style="edgeStyle=orthogonalEdgeStyle;rounded=0;orthogonalLoop=1;jettySize=auto;html=1;exitX=1;exitY=0.5;exitDx=0;exitDy=0;entryX=0;entryY=0.5;entryDx=0;entryDy=0;" parent="-ztwoPm2OrguGS3gSJhK-1" source="M_CqHC2ojWvSBjeytHBE-9" target="M_CqHC2ojWvSBjeytHBE-20" edge="1">
          <mxGeometry relative="1" as="geometry" />
        </mxCell>
        <mxCell id="M_CqHC2ojWvSBjeytHBE-12" value="&lt;span style=&quot;color: rgb(56, 66, 72); font-family: Lato; font-size: 13px; text-align: start;&quot;&gt;/passport&lt;/span&gt;&lt;span style=&quot;color: rgb(56, 66, 72); font-family: Lato; font-size: 13px; text-align: start;&quot;&gt;/v1/oauth2/token&lt;/span&gt;" style="edgeLabel;html=1;align=center;verticalAlign=middle;resizable=0;points=[];" parent="M_CqHC2ojWvSBjeytHBE-11" vertex="1" connectable="0">
          <mxGeometry x="-0.1875" y="1" relative="1" as="geometry">
            <mxPoint x="30" y="11" as="offset" />
          </mxGeometry>
        </mxCell>
        <mxCell id="PM3Y_mJIEuU0HfF_jdP7-2" value="POST" style="edgeLabel;html=1;align=center;verticalAlign=middle;resizable=0;points=[];" parent="M_CqHC2ojWvSBjeytHBE-11" vertex="1" connectable="0">
          <mxGeometry x="-0.752" y="-3" relative="1" as="geometry">
            <mxPoint x="1739" y="547" as="offset" />
          </mxGeometry>
        </mxCell>
        <mxCell id="-ztwoPm2OrguGS3gSJhK-29" value="PISMO API" style="swimlane;html=1;startSize=20;" parent="-ztwoPm2OrguGS3gSJhK-1" vertex="1">
          <mxGeometry x="780" y="20" width="320" height="1930" as="geometry">
            <mxRectangle x="120" y="20" width="40" height="730" as="alternateBounds" />
          </mxGeometry>
        </mxCell>
        <mxCell id="-ztwoPm2OrguGS3gSJhK-30" value="request token" style="rounded=0;whiteSpace=wrap;html=1;" parent="-ztwoPm2OrguGS3gSJhK-29" vertex="1">
          <mxGeometry x="100" y="1390" width="120" height="60" as="geometry" />
        </mxCell>
        <mxCell id="-ztwoPm2OrguGS3gSJhK-31" value="create card" style="whiteSpace=wrap;html=1;rounded=0;" parent="-ztwoPm2OrguGS3gSJhK-29" vertex="1">
          <mxGeometry x="100" y="1650" width="120" height="60" as="geometry" />
        </mxCell>
        <mxCell id="M_CqHC2ojWvSBjeytHBE-20" value="request token" style="rounded=0;whiteSpace=wrap;html=1;" parent="-ztwoPm2OrguGS3gSJhK-29" vertex="1">
          <mxGeometry x="80" y="401" width="120" height="60" as="geometry" />
        </mxCell>
        <mxCell id="M_CqHC2ojWvSBjeytHBE-21" value="request cards" style="whiteSpace=wrap;html=1;rounded=0;" parent="-ztwoPm2OrguGS3gSJhK-29" vertex="1">
          <mxGeometry x="80" y="661" width="120" height="60" as="geometry" />
        </mxCell>
        <mxCell id="M_CqHC2ojWvSBjeytHBE-15" style="edgeStyle=orthogonalEdgeStyle;rounded=0;orthogonalLoop=1;jettySize=auto;html=1;exitX=0.5;exitY=1;exitDx=0;exitDy=0;entryX=0;entryY=0.5;entryDx=0;entryDy=0;" parent="-ztwoPm2OrguGS3gSJhK-1" source="M_CqHC2ojWvSBjeytHBE-10" target="M_CqHC2ojWvSBjeytHBE-21" edge="1">
          <mxGeometry relative="1" as="geometry" />
        </mxCell>
        <mxCell id="M_CqHC2ojWvSBjeytHBE-16" value="POST" style="edgeLabel;html=1;align=center;verticalAlign=middle;resizable=0;points=[];" parent="M_CqHC2ojWvSBjeytHBE-15" vertex="1" connectable="0">
          <mxGeometry x="0.119" relative="1" as="geometry">
            <mxPoint x="64" y="-13" as="offset" />
          </mxGeometry>
        </mxCell>
        <mxCell id="M_CqHC2ojWvSBjeytHBE-17" value="&lt;div style=&quot;display: flex; margin-top: 10px; color: rgb(56, 66, 72); font-family: Lato; font-size: medium; text-align: start;&quot; class=&quot;headline-container-article-info2GaOf2jMpV0r&quot;&gt;&lt;span style=&quot;font-size: 13px; word-break: break-all;&quot; title=&quot;https://api-sandbox.pismolabs.io/wallet/v2/cards&quot; data-testid=&quot;serverurl&quot; class=&quot;headline-container-article-info-url2nV_XrjpFuVQ&quot;&gt;&lt;br&gt;&lt;/span&gt;&lt;/div&gt;&lt;div style=&quot;font-size: medium; text-size-adjust: 100%; position: relative; font-family: Lato; line-height: var(--markdown-line-height); color: rgb(56, 66, 72); overflow-wrap: break-word; margin-bottom: 0px; margin-top: 10px; text-align: start;&quot; data-testid=&quot;RDMD&quot; class=&quot;markdown-body undefined excerptT2m-MzSJGRK7&quot; role=&quot;doc-subtitle&quot;&gt;&lt;/div&gt;" style="edgeLabel;html=1;align=center;verticalAlign=middle;resizable=0;points=[];" parent="M_CqHC2ojWvSBjeytHBE-15" vertex="1" connectable="0">
          <mxGeometry x="0.6" y="-3" relative="1" as="geometry">
            <mxPoint x="-32" y="9" as="offset" />
          </mxGeometry>
        </mxCell>
        <mxCell id="M_CqHC2ojWvSBjeytHBE-18" value="&lt;span style=&quot;color: rgba(0, 0, 0, 0); font-family: monospace; font-size: 0px; text-align: start; background-color: rgb(248, 249, 250);&quot;&gt;%3CmxGraphModel%3E%3Croot%3E%3CmxCell%20id%3D%220%22%2F%3E%3CmxCell%20id%3D%221%22%20parent%3D%220%22%2F%3E%3CmxCell%20id%3D%222%22%20value%3D%22%26lt%3Bspan%20style%3D%26quot%3Bfont-size%3A%2012px%3B%20background-color%3A%20rgb(248%2C%20249%2C%20250)%3B%26quot%3B%26gt%3B%2Fwallet%2Fv2%2Fcards%26lt%3B%2Fspan%26gt%3B%22%20style%3D%22edgeLabel%3Bhtml%3D1%3Balign%3Dcenter%3BverticalAlign%3Dmiddle%3Bresizable%3D0%3Bpoints%3D%5B%5D%3B%22%20vertex%3D%221%22%20connectable%3D%220%22%20parent%3D%221%22%3E%3CmxGeometry%20x%3D%22770%22%20y%3D%22960%22%20as%3D%22geometry%22%2F%3E%3C%2FmxCell%3E%3C%2Froot%3E%3C%2FmxGraphModel%3E&lt;/span&gt;&lt;span style=&quot;color: rgba(0, 0, 0, 0); font-family: monospace; font-size: 0px; text-align: start; background-color: rgb(248, 249, 250);&quot;&gt;%3CmxGraphModel%3E%3Croot%3E%3CmxCell%20id%3D%220%22%2F%3E%3CmxCell%20id%3D%221%22%20parent%3D%220%22%2F%3E%3CmxCell%20id%3D%222%22%20value%3D%22%26lt%3Bspan%20style%3D%26quot%3Bfont-size%3A%2012px%3B%20background-color%3A%20rgb(248%2C%20249%2C%20250)%3B%26quot%3B%26gt%3B%2Fwallet%2Fv2%2Fcards%26lt%3B%2Fspan%26gt%3B%22%20style%3D%22edgeLabel%3Bhtml%3D1%3Balign%3Dcenter%3BverticalAlign%3Dmiddle%3Bresizable%3D0%3Bpoints%3D%5B%5D%3B%22%20vertex%3D%221%22%20connectable%3D%220%22%20parent%3D%221%22%3E%3CmxGeometry%20x%3D%22770%22%20y%3D%22960%22%20as%3D%22geometry%22%2F%3E%3C%2FmxCell%3E%3C%2Froot%3E%3C%2FmxGraphModel%3E&lt;/span&gt;&lt;font face=&quot;monospace&quot; color=&quot;rgba(0, 0, 0, 0)&quot;&gt;&lt;span style=&quot;font-size: 0px;&quot;&gt;/wallet/v2/cards&lt;/span&gt;&lt;/font&gt;" style="edgeLabel;html=1;align=center;verticalAlign=middle;resizable=0;points=[];" parent="M_CqHC2ojWvSBjeytHBE-15" vertex="1" connectable="0">
          <mxGeometry x="0.6923" y="-2" relative="1" as="geometry">
            <mxPoint y="130" as="offset" />
          </mxGeometry>
        </mxCell>
        <mxCell id="M_CqHC2ojWvSBjeytHBE-19" value="/wallet/v2/cards" style="edgeLabel;html=1;align=center;verticalAlign=middle;resizable=0;points=[];" parent="M_CqHC2ojWvSBjeytHBE-15" vertex="1" connectable="0">
          <mxGeometry x="0.6667" y="-3" relative="1" as="geometry">
            <mxPoint x="-35" y="137" as="offset" />
          </mxGeometry>
        </mxCell>
        <mxCell id="PM3Y_mJIEuU0HfF_jdP7-1" value="/wallet/v1/customers/{customerId}&lt;br&gt;/accounts/{accountId}/cards" style="edgeLabel;html=1;align=center;verticalAlign=middle;resizable=0;points=[];" parent="M_CqHC2ojWvSBjeytHBE-15" vertex="1" connectable="0">
          <mxGeometry x="0.67" y="-4" relative="1" as="geometry">
            <mxPoint x="1883" y="853" as="offset" />
          </mxGeometry>
        </mxCell>
        <mxCell id="PM3Y_mJIEuU0HfF_jdP7-7" style="edgeStyle=orthogonalEdgeStyle;rounded=0;jumpStyle=line;orthogonalLoop=1;jettySize=auto;html=1;exitX=0.5;exitY=1;exitDx=0;exitDy=0;shadow=1;startArrow=none;startFill=0;endArrow=blockThin;endFill=1;entryX=1;entryY=0.5;entryDx=0;entryDy=0;" parent="-ztwoPm2OrguGS3gSJhK-1" source="M_CqHC2ojWvSBjeytHBE-21" target="PM3Y_mJIEuU0HfF_jdP7-6" edge="1">
          <mxGeometry relative="1" as="geometry">
            <mxPoint x="870" y="910" as="targetPoint" />
          </mxGeometry>
        </mxCell>
        <mxCell id="PM3Y_mJIEuU0HfF_jdP7-11" style="edgeStyle=orthogonalEdgeStyle;rounded=0;jumpStyle=line;orthogonalLoop=1;jettySize=auto;html=1;exitX=0;exitY=0.5;exitDx=0;exitDy=0;entryX=1;entryY=0.5;entryDx=0;entryDy=0;shadow=1;startArrow=none;startFill=0;endArrow=blockThin;endFill=1;" parent="-ztwoPm2OrguGS3gSJhK-1" source="PM3Y_mJIEuU0HfF_jdP7-6" target="PM3Y_mJIEuU0HfF_jdP7-8" edge="1">
          <mxGeometry relative="1" as="geometry" />
        </mxCell>
        <mxCell id="-kIaK2AQIyHvrU_FX70G-1" value="Exists" style="edgeLabel;html=1;align=center;verticalAlign=middle;resizable=0;points=[];" parent="PM3Y_mJIEuU0HfF_jdP7-11" vertex="1" connectable="0">
          <mxGeometry x="-0.2984" y="-1" relative="1" as="geometry">
            <mxPoint as="offset" />
          </mxGeometry>
        </mxCell>
        <mxCell id="PM3Y_mJIEuU0HfF_jdP7-12" style="edgeStyle=orthogonalEdgeStyle;rounded=0;jumpStyle=line;orthogonalLoop=1;jettySize=auto;html=1;exitX=0.5;exitY=1;exitDx=0;exitDy=0;entryX=1;entryY=0.5;entryDx=0;entryDy=0;shadow=1;startArrow=none;startFill=0;endArrow=blockThin;endFill=1;" parent="-ztwoPm2OrguGS3gSJhK-1" source="PM3Y_mJIEuU0HfF_jdP7-6" target="aBi8eappRncqRm-S3S4F-1" edge="1">
          <mxGeometry relative="1" as="geometry" />
        </mxCell>
        <mxCell id="-kIaK2AQIyHvrU_FX70G-2" value="Not exists" style="edgeLabel;html=1;align=center;verticalAlign=middle;resizable=0;points=[];" parent="PM3Y_mJIEuU0HfF_jdP7-12" vertex="1" connectable="0">
          <mxGeometry x="0.1126" y="3" relative="1" as="geometry">
            <mxPoint as="offset" />
          </mxGeometry>
        </mxCell>
        <mxCell id="-kIaK2AQIyHvrU_FX70G-5" style="edgeStyle=orthogonalEdgeStyle;rounded=0;jumpStyle=line;orthogonalLoop=1;jettySize=auto;html=1;exitX=1;exitY=0.5;exitDx=0;exitDy=0;entryX=0;entryY=0.5;entryDx=0;entryDy=0;shadow=1;startArrow=none;startFill=0;endArrow=blockThin;endFill=1;" parent="-ztwoPm2OrguGS3gSJhK-1" source="-ztwoPm2OrguGS3gSJhK-5" target="-kIaK2AQIyHvrU_FX70G-3" edge="1">
          <mxGeometry relative="1" as="geometry" />
        </mxCell>
        <mxCell id="-kIaK2AQIyHvrU_FX70G-6" style="edgeStyle=orthogonalEdgeStyle;rounded=0;jumpStyle=line;orthogonalLoop=1;jettySize=auto;html=1;exitX=0.5;exitY=1;exitDx=0;exitDy=0;entryX=0.5;entryY=0;entryDx=0;entryDy=0;shadow=1;startArrow=none;startFill=0;endArrow=blockThin;endFill=1;" parent="-ztwoPm2OrguGS3gSJhK-1" source="-kIaK2AQIyHvrU_FX70G-3" target="FSNEAS2BVyc_DA7C3l2N-1" edge="1">
          <mxGeometry relative="1" as="geometry" />
        </mxCell>
        <mxCell id="wLYbFMPiU5NMxdZjmAGG-1" value="POST" style="text;html=1;align=center;verticalAlign=middle;resizable=0;points=[];autosize=1;strokeColor=none;fillColor=none;" parent="1" vertex="1">
          <mxGeometry x="730" y="1418" width="60" height="30" as="geometry" />
        </mxCell>
      </root>
    </mxGraphModel>
  </diagram>
  <diagram id="oo-A4CrSeaICLUog_vSa" name="account">
    <mxGraphModel dx="1718" dy="935" grid="1" gridSize="10" guides="1" tooltips="1" connect="1" arrows="1" fold="1" page="1" pageScale="1" pageWidth="1100" pageHeight="850" math="0" shadow="1">
      <root>
        <mxCell id="0" />
        <mxCell id="1" parent="0" />
        <mxCell id="RbG1YVAkucTISpinQ2uh-1" value="Account" style="swimlane;html=1;childLayout=stackLayout;startSize=20;rounded=0;shadow=0;labelBackgroundColor=none;strokeWidth=1;fontFamily=Verdana;fontSize=8;align=center;" parent="1" vertex="1">
          <mxGeometry width="1130" height="2250" as="geometry">
            <mxRectangle x="70" y="40" width="190" height="30" as="alternateBounds" />
          </mxGeometry>
        </mxCell>
        <mxCell id="RbG1YVAkucTISpinQ2uh-2" value="OCMB APP" style="swimlane;html=1;startSize=20;shadow=0;" parent="RbG1YVAkucTISpinQ2uh-1" vertex="1">
          <mxGeometry y="20" width="370" height="2230" as="geometry">
            <mxRectangle x="40" y="20" width="40" height="730" as="alternateBounds" />
          </mxGeometry>
        </mxCell>
        <mxCell id="RbG1YVAkucTISpinQ2uh-7" value="&quot;Home&quot; screen" style="rounded=1;whiteSpace=wrap;html=1;" parent="RbG1YVAkucTISpinQ2uh-2" vertex="1">
          <mxGeometry x="55" y="40" width="155" height="60" as="geometry" />
        </mxCell>
        <mxCell id="2dN_eqyruZ56w_mqQzeV-9" value="&lt;div&gt;Save as cache&lt;/div&gt;" style="rounded=1;whiteSpace=wrap;html=1;" parent="RbG1YVAkucTISpinQ2uh-2" vertex="1">
          <mxGeometry x="60" y="249" width="155" height="60" as="geometry" />
        </mxCell>
        <mxCell id="2dN_eqyruZ56w_mqQzeV-79" value="&lt;div&gt;&quot;Deposits Account Detail&quot; button&lt;/div&gt;" style="rounded=1;whiteSpace=wrap;html=1;" parent="RbG1YVAkucTISpinQ2uh-2" vertex="1">
          <mxGeometry x="59" y="586" width="155" height="60" as="geometry" />
        </mxCell>
        <mxCell id="2dN_eqyruZ56w_mqQzeV-90" value="&quot;Account Detail&quot; screen" style="rounded=1;whiteSpace=wrap;html=1;" parent="RbG1YVAkucTISpinQ2uh-2" vertex="1">
          <mxGeometry x="64" y="696" width="155" height="60" as="geometry" />
        </mxCell>
        <mxCell id="ALDxD-mL54ihRmbCKZu_-2" style="edgeStyle=orthogonalEdgeStyle;rounded=0;jumpStyle=line;orthogonalLoop=1;jettySize=auto;html=1;exitX=0.5;exitY=1;exitDx=0;exitDy=0;shadow=1;startArrow=none;startFill=0;endArrow=blockThin;endFill=1;entryX=0.5;entryY=0;entryDx=0;entryDy=0;" parent="RbG1YVAkucTISpinQ2uh-2" source="2dN_eqyruZ56w_mqQzeV-104" target="ALDxD-mL54ihRmbCKZu_-1" edge="1">
          <mxGeometry relative="1" as="geometry">
            <mxPoint x="141.5" y="1036" as="targetPoint" />
          </mxGeometry>
        </mxCell>
        <mxCell id="2dN_eqyruZ56w_mqQzeV-104" value="&lt;div&gt;&quot;Transaction History List&quot;&amp;nbsp;module view&lt;/div&gt;" style="rounded=1;whiteSpace=wrap;html=1;" parent="RbG1YVAkucTISpinQ2uh-2" vertex="1">
          <mxGeometry x="64" y="906" width="155" height="60" as="geometry" />
        </mxCell>
        <mxCell id="ALDxD-mL54ihRmbCKZu_-1" value="&lt;div&gt;&quot;Transaction History Detail&quot; screen&lt;/div&gt;" style="rounded=1;whiteSpace=wrap;html=1;" parent="RbG1YVAkucTISpinQ2uh-2" vertex="1">
          <mxGeometry x="64" y="1022" width="155" height="60" as="geometry" />
        </mxCell>
        <mxCell id="ALDxD-mL54ihRmbCKZu_-4" value="&quot;Account Detail&quot; screen" style="rounded=1;whiteSpace=wrap;html=1;" parent="RbG1YVAkucTISpinQ2uh-2" vertex="1">
          <mxGeometry x="64" y="810" width="155" height="60" as="geometry" />
        </mxCell>
        <mxCell id="ALDxD-mL54ihRmbCKZu_-14" value="&lt;div&gt;&quot;Limitations&quot;&amp;nbsp;module view&lt;/div&gt;" style="rounded=1;whiteSpace=wrap;html=1;" parent="RbG1YVAkucTISpinQ2uh-2" vertex="1">
          <mxGeometry x="64" y="1240" width="155" height="60" as="geometry" />
        </mxCell>
        <mxCell id="ALDxD-mL54ihRmbCKZu_-16" value="&quot;Account Detail&quot; screen" style="rounded=1;whiteSpace=wrap;html=1;" parent="RbG1YVAkucTISpinQ2uh-2" vertex="1">
          <mxGeometry x="64" y="1130" width="155" height="60" as="geometry" />
        </mxCell>
        <mxCell id="2dN_eqyruZ56w_mqQzeV-60" value="&quot;Home&quot; screen" style="rounded=1;whiteSpace=wrap;html=1;" parent="RbG1YVAkucTISpinQ2uh-2" vertex="1">
          <mxGeometry x="60" y="370" width="155" height="60" as="geometry" />
        </mxCell>
        <mxCell id="2dN_eqyruZ56w_mqQzeV-61" value="&lt;div&gt;&quot;Deposits Account List&quot;&amp;nbsp;module view&lt;/div&gt;" style="rounded=1;whiteSpace=wrap;html=1;" parent="RbG1YVAkucTISpinQ2uh-2" vertex="1">
          <mxGeometry x="60" y="466" width="155" height="60" as="geometry" />
        </mxCell>
        <mxCell id="2dN_eqyruZ56w_mqQzeV-80" style="edgeStyle=orthogonalEdgeStyle;rounded=0;jumpStyle=line;orthogonalLoop=1;jettySize=auto;html=1;exitX=0.5;exitY=1;exitDx=0;exitDy=0;shadow=1;startArrow=none;startFill=0;endArrow=blockThin;endFill=1;" parent="RbG1YVAkucTISpinQ2uh-2" source="2dN_eqyruZ56w_mqQzeV-61" target="2dN_eqyruZ56w_mqQzeV-79" edge="1">
          <mxGeometry relative="1" as="geometry" />
        </mxCell>
        <mxCell id="3k7OrH85VsNkUtMjB5Vq-4" value="&quot;statements&quot; screen" style="rounded=1;whiteSpace=wrap;html=1;" parent="RbG1YVAkucTISpinQ2uh-2" vertex="1">
          <mxGeometry x="64" y="1351" width="155" height="60" as="geometry" />
        </mxCell>
        <mxCell id="3k7OrH85VsNkUtMjB5Vq-2" value="&lt;div&gt;&quot;statements&quot;&amp;nbsp;module view&lt;/div&gt;" style="rounded=1;whiteSpace=wrap;html=1;" parent="RbG1YVAkucTISpinQ2uh-2" vertex="1">
          <mxGeometry x="64" y="1461" width="155" height="60" as="geometry" />
        </mxCell>
        <mxCell id="3k7OrH85VsNkUtMjB5Vq-3" value="&lt;div&gt;&quot;statement&amp;nbsp;Detail&quot; screen&lt;/div&gt;" style="rounded=1;whiteSpace=wrap;html=1;" parent="RbG1YVAkucTISpinQ2uh-2" vertex="1">
          <mxGeometry x="64" y="1591" width="155" height="60" as="geometry" />
        </mxCell>
        <mxCell id="3k7OrH85VsNkUtMjB5Vq-1" style="edgeStyle=orthogonalEdgeStyle;rounded=0;jumpStyle=line;orthogonalLoop=1;jettySize=auto;html=1;exitX=0.5;exitY=1;exitDx=0;exitDy=0;shadow=1;startArrow=none;startFill=0;endArrow=blockThin;endFill=1;" parent="RbG1YVAkucTISpinQ2uh-2" source="3k7OrH85VsNkUtMjB5Vq-2" target="3k7OrH85VsNkUtMjB5Vq-3" edge="1">
          <mxGeometry relative="1" as="geometry" />
        </mxCell>
        <mxCell id="RbG1YVAkucTISpinQ2uh-13" style="edgeStyle=orthogonalEdgeStyle;rounded=0;orthogonalLoop=1;jettySize=auto;html=1;exitX=1;exitY=0.5;exitDx=0;exitDy=0;entryX=0;entryY=0.5;entryDx=0;entryDy=0;" parent="RbG1YVAkucTISpinQ2uh-1" source="RbG1YVAkucTISpinQ2uh-7" target="RbG1YVAkucTISpinQ2uh-33" edge="1">
          <mxGeometry relative="1" as="geometry" />
        </mxCell>
        <mxCell id="RbG1YVAkucTISpinQ2uh-14" value="&lt;div style=&quot;text-align: left;&quot;&gt;&lt;font face=&quot;Inter, system-ui, -apple-system, BlinkMacSystemFont, Segoe UI, Roboto, Oxygen, Ubuntu, Cantarell, Fira Sans, Droid Sans, Helvetica, Arial, sans-serif&quot; color=&quot;#212121&quot;&gt;/v1/current-customer&lt;/font&gt;&lt;/div&gt;" style="edgeLabel;html=1;align=center;verticalAlign=middle;resizable=0;points=[];" parent="RbG1YVAkucTISpinQ2uh-13" vertex="1" connectable="0">
          <mxGeometry x="0.1448" relative="1" as="geometry">
            <mxPoint x="-13" y="8" as="offset" />
          </mxGeometry>
        </mxCell>
        <mxCell id="RbG1YVAkucTISpinQ2uh-15" value="GET" style="edgeLabel;html=1;align=center;verticalAlign=middle;resizable=0;points=[];" parent="RbG1YVAkucTISpinQ2uh-13" vertex="1" connectable="0">
          <mxGeometry x="0.1113" y="-2" relative="1" as="geometry">
            <mxPoint x="-21" y="-12" as="offset" />
          </mxGeometry>
        </mxCell>
        <mxCell id="RbG1YVAkucTISpinQ2uh-32" value="OCMB API" style="swimlane;html=1;startSize=20;" parent="RbG1YVAkucTISpinQ2uh-1" vertex="1">
          <mxGeometry x="370" y="20" width="410" height="2230" as="geometry">
            <mxRectangle x="80" y="20" width="40" height="730" as="alternateBounds" />
          </mxGeometry>
        </mxCell>
        <mxCell id="RbG1YVAkucTISpinQ2uh-33" value="Query &quot;Customer info&quot;" style="rounded=1;whiteSpace=wrap;html=1;" parent="RbG1YVAkucTISpinQ2uh-32" vertex="1">
          <mxGeometry x="140" y="40" width="120" height="60" as="geometry" />
        </mxCell>
        <mxCell id="RbG1YVAkucTISpinQ2uh-42" style="edgeStyle=orthogonalEdgeStyle;rounded=0;orthogonalLoop=1;jettySize=auto;html=1;exitX=0.5;exitY=1;exitDx=0;exitDy=0;" parent="RbG1YVAkucTISpinQ2uh-32" edge="1">
          <mxGeometry relative="1" as="geometry">
            <mxPoint x="205" as="sourcePoint" />
            <mxPoint x="205" as="targetPoint" />
          </mxGeometry>
        </mxCell>
        <mxCell id="2dN_eqyruZ56w_mqQzeV-5" value="&lt;div&gt;Merge information&lt;/div&gt;" style="rounded=1;whiteSpace=wrap;html=1;" parent="RbG1YVAkucTISpinQ2uh-32" vertex="1">
          <mxGeometry x="140" y="250" width="120" height="60" as="geometry" />
        </mxCell>
        <mxCell id="2dN_eqyruZ56w_mqQzeV-81" value="Query &quot;Account Detail&quot;" style="rounded=1;whiteSpace=wrap;html=1;" parent="RbG1YVAkucTISpinQ2uh-32" vertex="1">
          <mxGeometry x="140" y="586" width="120" height="60" as="geometry" />
        </mxCell>
        <mxCell id="2dN_eqyruZ56w_mqQzeV-88" value="GET &quot;Account Detail&quot;" style="rounded=1;whiteSpace=wrap;html=1;" parent="RbG1YVAkucTISpinQ2uh-32" vertex="1">
          <mxGeometry x="140" y="696" width="120" height="60" as="geometry" />
        </mxCell>
        <mxCell id="2dN_eqyruZ56w_mqQzeV-93" value="Query &quot;Transaction History&quot;" style="rounded=1;whiteSpace=wrap;html=1;" parent="RbG1YVAkucTISpinQ2uh-32" vertex="1">
          <mxGeometry x="145" y="810" width="120" height="60" as="geometry" />
        </mxCell>
        <mxCell id="2dN_eqyruZ56w_mqQzeV-102" value="GET &quot;Transaction History List&quot;" style="rounded=1;whiteSpace=wrap;html=1;" parent="RbG1YVAkucTISpinQ2uh-32" vertex="1">
          <mxGeometry x="145" y="906" width="120" height="60" as="geometry" />
        </mxCell>
        <mxCell id="3k7OrH85VsNkUtMjB5Vq-6" value="GET &quot;statements&quot;" style="rounded=1;whiteSpace=wrap;html=1;" parent="RbG1YVAkucTISpinQ2uh-32" vertex="1">
          <mxGeometry x="145" y="1461" width="120" height="60" as="geometry" />
        </mxCell>
        <mxCell id="3k7OrH85VsNkUtMjB5Vq-5" value="Query &quot;&lt;span style=&quot;color: rgb(33, 33, 33); font-family: Inter, system-ui, -apple-system, BlinkMacSystemFont, &amp;quot;Segoe UI&amp;quot;, Roboto, Oxygen, Ubuntu, Cantarell, &amp;quot;Fira Sans&amp;quot;, &amp;quot;Droid Sans&amp;quot;, Helvetica, Arial, sans-serif; text-align: left; background-color: rgb(255, 255, 255);&quot;&gt;statements&lt;/span&gt;&quot;" style="rounded=1;whiteSpace=wrap;html=1;" parent="RbG1YVAkucTISpinQ2uh-32" vertex="1">
          <mxGeometry x="145" y="1351" width="120" height="60" as="geometry" />
        </mxCell>
        <mxCell id="ALDxD-mL54ihRmbCKZu_-18" value="GET &quot;Limitations&quot;" style="rounded=1;whiteSpace=wrap;html=1;" parent="RbG1YVAkucTISpinQ2uh-32" vertex="1">
          <mxGeometry x="152" y="1240" width="120" height="60" as="geometry" />
        </mxCell>
        <mxCell id="ALDxD-mL54ihRmbCKZu_-17" value="Query &quot;Limitations&quot;" style="rounded=1;whiteSpace=wrap;html=1;" parent="RbG1YVAkucTISpinQ2uh-32" vertex="1">
          <mxGeometry x="152" y="1130" width="120" height="60" as="geometry" />
        </mxCell>
        <mxCell id="2dN_eqyruZ56w_mqQzeV-65" value="Query &quot;Account List&quot;" style="rounded=1;whiteSpace=wrap;html=1;" parent="RbG1YVAkucTISpinQ2uh-32" vertex="1">
          <mxGeometry x="140" y="370" width="120" height="60" as="geometry" />
        </mxCell>
        <mxCell id="2dN_eqyruZ56w_mqQzeV-66" value="&lt;div&gt;As to list&lt;/div&gt;" style="rounded=1;whiteSpace=wrap;html=1;" parent="RbG1YVAkucTISpinQ2uh-32" vertex="1">
          <mxGeometry x="140" y="466" width="120" height="60" as="geometry" />
        </mxCell>
        <mxCell id="RbG1YVAkucTISpinQ2uh-56" style="edgeStyle=orthogonalEdgeStyle;rounded=0;jumpStyle=line;orthogonalLoop=1;jettySize=auto;html=1;exitX=1;exitY=0.5;exitDx=0;exitDy=0;entryX=0;entryY=0.5;entryDx=0;entryDy=0;shadow=1;startArrow=none;startFill=0;endArrow=blockThin;endFill=1;" parent="RbG1YVAkucTISpinQ2uh-1" source="RbG1YVAkucTISpinQ2uh-33" target="RbG1YVAkucTISpinQ2uh-55" edge="1">
          <mxGeometry relative="1" as="geometry" />
        </mxCell>
        <mxCell id="RbG1YVAkucTISpinQ2uh-57" value="GET" style="edgeLabel;html=1;align=center;verticalAlign=middle;resizable=0;points=[];" parent="RbG1YVAkucTISpinQ2uh-56" vertex="1" connectable="0">
          <mxGeometry x="-0.2385" y="1" relative="1" as="geometry">
            <mxPoint x="1" y="-9" as="offset" />
          </mxGeometry>
        </mxCell>
        <mxCell id="RbG1YVAkucTISpinQ2uh-58" value="/accounts/v2/customers/{customerId}" style="edgeLabel;html=1;align=center;verticalAlign=middle;resizable=0;points=[];" parent="RbG1YVAkucTISpinQ2uh-56" vertex="1" connectable="0">
          <mxGeometry x="0.3769" relative="1" as="geometry">
            <mxPoint x="-39" y="10" as="offset" />
          </mxGeometry>
        </mxCell>
        <mxCell id="2dN_eqyruZ56w_mqQzeV-2" style="edgeStyle=orthogonalEdgeStyle;rounded=0;jumpStyle=line;orthogonalLoop=1;jettySize=auto;html=1;exitX=0.5;exitY=1;exitDx=0;exitDy=0;entryX=0;entryY=0.5;entryDx=0;entryDy=0;shadow=1;startArrow=none;startFill=0;endArrow=blockThin;endFill=1;" parent="RbG1YVAkucTISpinQ2uh-1" source="RbG1YVAkucTISpinQ2uh-33" target="2dN_eqyruZ56w_mqQzeV-1" edge="1">
          <mxGeometry relative="1" as="geometry" />
        </mxCell>
        <mxCell id="2dN_eqyruZ56w_mqQzeV-3" value="GET" style="edgeLabel;html=1;align=center;verticalAlign=middle;resizable=0;points=[];" parent="2dN_eqyruZ56w_mqQzeV-2" vertex="1" connectable="0">
          <mxGeometry x="0.0757" y="-1" relative="1" as="geometry">
            <mxPoint y="-11" as="offset" />
          </mxGeometry>
        </mxCell>
        <mxCell id="2dN_eqyruZ56w_mqQzeV-4" value="/accounts/v1/accounts/{accountId}/addresses" style="edgeLabel;html=1;align=center;verticalAlign=middle;resizable=0;points=[];" parent="2dN_eqyruZ56w_mqQzeV-2" vertex="1" connectable="0">
          <mxGeometry x="0.3243" y="-2" relative="1" as="geometry">
            <mxPoint x="-5" y="8" as="offset" />
          </mxGeometry>
        </mxCell>
        <mxCell id="2dN_eqyruZ56w_mqQzeV-6" style="edgeStyle=orthogonalEdgeStyle;rounded=0;jumpStyle=line;orthogonalLoop=1;jettySize=auto;html=1;exitX=1;exitY=0.5;exitDx=0;exitDy=0;entryX=1;entryY=0.633;entryDx=0;entryDy=0;entryPerimeter=0;shadow=1;startArrow=none;startFill=0;endArrow=blockThin;endFill=1;" parent="RbG1YVAkucTISpinQ2uh-1" source="RbG1YVAkucTISpinQ2uh-55" target="2dN_eqyruZ56w_mqQzeV-5" edge="1">
          <mxGeometry relative="1" as="geometry" />
        </mxCell>
        <mxCell id="2dN_eqyruZ56w_mqQzeV-7" style="edgeStyle=orthogonalEdgeStyle;rounded=0;jumpStyle=line;orthogonalLoop=1;jettySize=auto;html=1;exitX=0.5;exitY=1;exitDx=0;exitDy=0;entryX=0.5;entryY=0;entryDx=0;entryDy=0;shadow=1;startArrow=none;startFill=0;endArrow=blockThin;endFill=1;" parent="RbG1YVAkucTISpinQ2uh-1" source="2dN_eqyruZ56w_mqQzeV-1" target="2dN_eqyruZ56w_mqQzeV-5" edge="1">
          <mxGeometry relative="1" as="geometry" />
        </mxCell>
        <mxCell id="2dN_eqyruZ56w_mqQzeV-10" style="edgeStyle=orthogonalEdgeStyle;rounded=0;jumpStyle=line;orthogonalLoop=1;jettySize=auto;html=1;exitX=0;exitY=0.5;exitDx=0;exitDy=0;shadow=1;startArrow=none;startFill=0;endArrow=blockThin;endFill=1;" parent="RbG1YVAkucTISpinQ2uh-1" source="2dN_eqyruZ56w_mqQzeV-5" target="2dN_eqyruZ56w_mqQzeV-9" edge="1">
          <mxGeometry relative="1" as="geometry" />
        </mxCell>
        <mxCell id="2dN_eqyruZ56w_mqQzeV-82" style="edgeStyle=orthogonalEdgeStyle;rounded=0;jumpStyle=line;orthogonalLoop=1;jettySize=auto;html=1;exitX=1;exitY=0.5;exitDx=0;exitDy=0;shadow=1;startArrow=none;startFill=0;endArrow=blockThin;endFill=1;" parent="RbG1YVAkucTISpinQ2uh-1" source="2dN_eqyruZ56w_mqQzeV-79" target="2dN_eqyruZ56w_mqQzeV-81" edge="1">
          <mxGeometry relative="1" as="geometry" />
        </mxCell>
        <mxCell id="3k7OrH85VsNkUtMjB5Vq-15" value="&lt;span style=&quot;color: rgb(33, 33, 33); font-family: Inter, system-ui, -apple-system, BlinkMacSystemFont, &amp;quot;Segoe UI&amp;quot;, Roboto, Oxygen, Ubuntu, Cantarell, &amp;quot;Fira Sans&amp;quot;, &amp;quot;Droid Sans&amp;quot;, Helvetica, Arial, sans-serif; text-align: left;&quot;&gt;/v1/current-customer/deposit-accounts&lt;br&gt;/{accountNo}&lt;/span&gt;" style="edgeLabel;html=1;align=center;verticalAlign=middle;resizable=0;points=[];" parent="2dN_eqyruZ56w_mqQzeV-82" vertex="1" connectable="0">
          <mxGeometry x="-0.1622" relative="1" as="geometry">
            <mxPoint x="22" y="14" as="offset" />
          </mxGeometry>
        </mxCell>
        <mxCell id="3k7OrH85VsNkUtMjB5Vq-16" value="GET" style="edgeLabel;html=1;align=center;verticalAlign=middle;resizable=0;points=[];" parent="2dN_eqyruZ56w_mqQzeV-82" vertex="1" connectable="0">
          <mxGeometry x="-0.1419" y="1" relative="1" as="geometry">
            <mxPoint x="29" y="-15" as="offset" />
          </mxGeometry>
        </mxCell>
        <mxCell id="2dN_eqyruZ56w_mqQzeV-84" style="edgeStyle=orthogonalEdgeStyle;rounded=0;jumpStyle=line;orthogonalLoop=1;jettySize=auto;html=1;shadow=1;startArrow=none;startFill=0;endArrow=blockThin;endFill=1;exitX=1;exitY=0.5;exitDx=0;exitDy=0;entryX=0;entryY=0.5;entryDx=0;entryDy=0;" parent="RbG1YVAkucTISpinQ2uh-1" source="2dN_eqyruZ56w_mqQzeV-81" target="2dN_eqyruZ56w_mqQzeV-83" edge="1">
          <mxGeometry relative="1" as="geometry">
            <mxPoint x="690" y="766" as="sourcePoint" />
            <mxPoint x="720" y="836" as="targetPoint" />
          </mxGeometry>
        </mxCell>
        <mxCell id="2dN_eqyruZ56w_mqQzeV-85" value="GET" style="edgeLabel;html=1;align=center;verticalAlign=middle;resizable=0;points=[];" parent="2dN_eqyruZ56w_mqQzeV-84" vertex="1" connectable="0">
          <mxGeometry x="-0.2385" y="1" relative="1" as="geometry">
            <mxPoint x="1" y="-9" as="offset" />
          </mxGeometry>
        </mxCell>
        <mxCell id="2dN_eqyruZ56w_mqQzeV-86" value="/accounts/v1/accounts/{accountId}" style="edgeLabel;html=1;align=center;verticalAlign=middle;resizable=0;points=[];" parent="2dN_eqyruZ56w_mqQzeV-84" vertex="1" connectable="0">
          <mxGeometry x="0.3769" relative="1" as="geometry">
            <mxPoint x="-39" y="10" as="offset" />
          </mxGeometry>
        </mxCell>
        <mxCell id="RbG1YVAkucTISpinQ2uh-50" value="PISMO API" style="swimlane;html=1;startSize=20;" parent="RbG1YVAkucTISpinQ2uh-1" vertex="1">
          <mxGeometry x="780" y="20" width="350" height="2230" as="geometry">
            <mxRectangle x="120" y="20" width="40" height="730" as="alternateBounds" />
          </mxGeometry>
        </mxCell>
        <mxCell id="RbG1YVAkucTISpinQ2uh-55" value="Query &quot;Customer info&quot;" style="rounded=0;whiteSpace=wrap;html=1;labelBackgroundColor=none;strokeColor=#FF0000;fillColor=#FFFFFF;dashed=1;" parent="RbG1YVAkucTISpinQ2uh-50" vertex="1">
          <mxGeometry x="110" y="40" width="120" height="60" as="geometry" />
        </mxCell>
        <mxCell id="2dN_eqyruZ56w_mqQzeV-1" value="Query &quot;Address info&quot;" style="rounded=0;whiteSpace=wrap;html=1;labelBackgroundColor=none;strokeColor=#FF0000;fillColor=#FFFFFF;dashed=1;" parent="RbG1YVAkucTISpinQ2uh-50" vertex="1">
          <mxGeometry x="110" y="120" width="120" height="60" as="geometry" />
        </mxCell>
        <mxCell id="2dN_eqyruZ56w_mqQzeV-83" value="Query &quot;Account info&quot;" style="rounded=0;whiteSpace=wrap;html=1;labelBackgroundColor=none;strokeColor=default;fillColor=#FFFFFF;" parent="RbG1YVAkucTISpinQ2uh-50" vertex="1">
          <mxGeometry x="110" y="586" width="120" height="60" as="geometry" />
        </mxCell>
        <mxCell id="2dN_eqyruZ56w_mqQzeV-98" value="Query &quot;&lt;span style=&quot;color: rgb(33, 33, 33); font-family: Inter, system-ui, -apple-system, BlinkMacSystemFont, &amp;quot;Segoe UI&amp;quot;, Roboto, Oxygen, Ubuntu, Cantarell, &amp;quot;Fira Sans&amp;quot;, &amp;quot;Droid Sans&amp;quot;, Helvetica, Arial, sans-serif; text-align: left; background-color: rgb(255, 255, 255);&quot;&gt;transactions list&lt;/span&gt;&quot;" style="rounded=0;whiteSpace=wrap;html=1;labelBackgroundColor=none;strokeColor=default;fillColor=#FFFFFF;" parent="RbG1YVAkucTISpinQ2uh-50" vertex="1">
          <mxGeometry x="110" y="810" width="120" height="60" as="geometry" />
        </mxCell>
        <mxCell id="2dN_eqyruZ56w_mqQzeV-67" value="Query &quot;Account info&quot;" style="rounded=0;whiteSpace=wrap;html=1;labelBackgroundColor=none;strokeColor=#FF0000;fillColor=#FFFFFF;dashed=1;" parent="RbG1YVAkucTISpinQ2uh-50" vertex="1">
          <mxGeometry x="110" y="370" width="120" height="60" as="geometry" />
        </mxCell>
        <mxCell id="ALDxD-mL54ihRmbCKZu_-19" value="Query &quot;Limitations&quot;" style="rounded=0;whiteSpace=wrap;html=1;labelBackgroundColor=none;strokeColor=default;fillColor=#FFFFFF;" parent="RbG1YVAkucTISpinQ2uh-50" vertex="1">
          <mxGeometry x="117" y="1130" width="120" height="60" as="geometry" />
        </mxCell>
        <mxCell id="3k7OrH85VsNkUtMjB5Vq-7" value="Query &quot;statements&quot;" style="rounded=0;whiteSpace=wrap;html=1;labelBackgroundColor=none;strokeColor=default;fillColor=#FFFFFF;" parent="RbG1YVAkucTISpinQ2uh-50" vertex="1">
          <mxGeometry x="117" y="1351" width="120" height="60" as="geometry" />
        </mxCell>
        <mxCell id="2dN_eqyruZ56w_mqQzeV-89" style="edgeStyle=orthogonalEdgeStyle;rounded=0;jumpStyle=line;orthogonalLoop=1;jettySize=auto;html=1;exitX=0.5;exitY=1;exitDx=0;exitDy=0;entryX=1;entryY=0.5;entryDx=0;entryDy=0;shadow=1;startArrow=none;startFill=0;endArrow=blockThin;endFill=1;" parent="RbG1YVAkucTISpinQ2uh-1" source="2dN_eqyruZ56w_mqQzeV-83" target="2dN_eqyruZ56w_mqQzeV-88" edge="1">
          <mxGeometry relative="1" as="geometry" />
        </mxCell>
        <mxCell id="2dN_eqyruZ56w_mqQzeV-91" style="edgeStyle=orthogonalEdgeStyle;rounded=0;jumpStyle=line;orthogonalLoop=1;jettySize=auto;html=1;exitX=0;exitY=0.5;exitDx=0;exitDy=0;shadow=1;startArrow=none;startFill=0;endArrow=blockThin;endFill=1;" parent="RbG1YVAkucTISpinQ2uh-1" source="2dN_eqyruZ56w_mqQzeV-88" target="2dN_eqyruZ56w_mqQzeV-90" edge="1">
          <mxGeometry relative="1" as="geometry" />
        </mxCell>
        <mxCell id="2dN_eqyruZ56w_mqQzeV-99" style="edgeStyle=orthogonalEdgeStyle;rounded=0;jumpStyle=line;orthogonalLoop=1;jettySize=auto;html=1;exitX=1;exitY=0.5;exitDx=0;exitDy=0;shadow=1;startArrow=none;startFill=0;endArrow=blockThin;endFill=1;" parent="RbG1YVAkucTISpinQ2uh-1" source="2dN_eqyruZ56w_mqQzeV-93" target="2dN_eqyruZ56w_mqQzeV-98" edge="1">
          <mxGeometry relative="1" as="geometry" />
        </mxCell>
        <mxCell id="2dN_eqyruZ56w_mqQzeV-100" value="/transactions-core/v2/transactions" style="edgeLabel;html=1;align=center;verticalAlign=middle;resizable=0;points=[];" parent="2dN_eqyruZ56w_mqQzeV-99" vertex="1" connectable="0">
          <mxGeometry x="-0.1373" relative="1" as="geometry">
            <mxPoint x="15" y="10" as="offset" />
          </mxGeometry>
        </mxCell>
        <mxCell id="2dN_eqyruZ56w_mqQzeV-101" value="GET" style="edgeLabel;html=1;align=center;verticalAlign=middle;resizable=0;points=[];" parent="2dN_eqyruZ56w_mqQzeV-99" vertex="1" connectable="0">
          <mxGeometry x="0.0824" y="2" relative="1" as="geometry">
            <mxPoint y="-10" as="offset" />
          </mxGeometry>
        </mxCell>
        <mxCell id="2dN_eqyruZ56w_mqQzeV-103" style="edgeStyle=orthogonalEdgeStyle;rounded=0;jumpStyle=line;orthogonalLoop=1;jettySize=auto;html=1;exitX=0.5;exitY=1;exitDx=0;exitDy=0;entryX=1;entryY=0.5;entryDx=0;entryDy=0;shadow=1;startArrow=none;startFill=0;endArrow=blockThin;endFill=1;" parent="RbG1YVAkucTISpinQ2uh-1" source="2dN_eqyruZ56w_mqQzeV-98" target="2dN_eqyruZ56w_mqQzeV-102" edge="1">
          <mxGeometry relative="1" as="geometry" />
        </mxCell>
        <mxCell id="2dN_eqyruZ56w_mqQzeV-105" style="edgeStyle=orthogonalEdgeStyle;rounded=0;jumpStyle=line;orthogonalLoop=1;jettySize=auto;html=1;exitX=0;exitY=0.5;exitDx=0;exitDy=0;entryX=1;entryY=0.5;entryDx=0;entryDy=0;shadow=1;startArrow=none;startFill=0;endArrow=blockThin;endFill=1;" parent="RbG1YVAkucTISpinQ2uh-1" source="2dN_eqyruZ56w_mqQzeV-102" target="2dN_eqyruZ56w_mqQzeV-104" edge="1">
          <mxGeometry relative="1" as="geometry" />
        </mxCell>
        <mxCell id="ALDxD-mL54ihRmbCKZu_-7" style="edgeStyle=orthogonalEdgeStyle;rounded=0;jumpStyle=line;orthogonalLoop=1;jettySize=auto;html=1;exitX=1;exitY=0.5;exitDx=0;exitDy=0;entryX=0;entryY=0.5;entryDx=0;entryDy=0;shadow=1;startArrow=none;startFill=0;endArrow=blockThin;endFill=1;" parent="RbG1YVAkucTISpinQ2uh-1" source="ALDxD-mL54ihRmbCKZu_-4" target="2dN_eqyruZ56w_mqQzeV-93" edge="1">
          <mxGeometry relative="1" as="geometry" />
        </mxCell>
        <mxCell id="3k7OrH85VsNkUtMjB5Vq-17" value="GET" style="edgeLabel;html=1;align=center;verticalAlign=middle;resizable=0;points=[];" parent="ALDxD-mL54ihRmbCKZu_-7" vertex="1" connectable="0">
          <mxGeometry x="-0.2365" y="-1" relative="1" as="geometry">
            <mxPoint x="38" y="-11" as="offset" />
          </mxGeometry>
        </mxCell>
        <mxCell id="3k7OrH85VsNkUtMjB5Vq-18" value="&lt;span style=&quot;color: rgb(33, 33, 33); font-family: Inter, system-ui, -apple-system, BlinkMacSystemFont, &amp;quot;Segoe UI&amp;quot;, Roboto, Oxygen, Ubuntu, Cantarell, &amp;quot;Fira Sans&amp;quot;, &amp;quot;Droid Sans&amp;quot;, Helvetica, Arial, sans-serif; text-align: left;&quot;&gt;/v1/current-customer/deposit-accounts&lt;br&gt;/{accountNo}/&lt;/span&gt;&lt;font face=&quot;Inter, system-ui, -apple-system, BlinkMacSystemFont, Segoe UI, Roboto, Oxygen, Ubuntu, Cantarell, Fira Sans, Droid Sans, Helvetica, Arial, sans-serif&quot; color=&quot;#212121&quot;&gt;&lt;span style=&quot;font-size: 11px;&quot;&gt;transactions&lt;/span&gt;&lt;/font&gt;" style="edgeLabel;html=1;align=center;verticalAlign=middle;resizable=0;points=[];" parent="ALDxD-mL54ihRmbCKZu_-7" vertex="1" connectable="0">
          <mxGeometry x="0.1689" y="-4" relative="1" as="geometry">
            <mxPoint x="-19" y="16" as="offset" />
          </mxGeometry>
        </mxCell>
        <mxCell id="3k7OrH85VsNkUtMjB5Vq-11" style="edgeStyle=orthogonalEdgeStyle;rounded=0;jumpStyle=line;orthogonalLoop=1;jettySize=auto;html=1;exitX=0.5;exitY=1;exitDx=0;exitDy=0;entryX=1;entryY=0.5;entryDx=0;entryDy=0;shadow=1;startArrow=none;startFill=0;endArrow=blockThin;endFill=1;" parent="RbG1YVAkucTISpinQ2uh-1" source="3k7OrH85VsNkUtMjB5Vq-7" target="3k7OrH85VsNkUtMjB5Vq-6" edge="1">
          <mxGeometry relative="1" as="geometry" />
        </mxCell>
        <mxCell id="3k7OrH85VsNkUtMjB5Vq-8" style="edgeStyle=orthogonalEdgeStyle;rounded=0;jumpStyle=line;orthogonalLoop=1;jettySize=auto;html=1;exitX=1;exitY=0.5;exitDx=0;exitDy=0;shadow=1;startArrow=none;startFill=0;endArrow=blockThin;endFill=1;" parent="RbG1YVAkucTISpinQ2uh-1" source="3k7OrH85VsNkUtMjB5Vq-5" target="3k7OrH85VsNkUtMjB5Vq-7" edge="1">
          <mxGeometry relative="1" as="geometry" />
        </mxCell>
        <mxCell id="3k7OrH85VsNkUtMjB5Vq-9" value="&lt;span style=&quot;color: rgb(56, 66, 72); font-family: Lato; font-size: 13px; text-align: start;&quot;&gt;/statements&lt;/span&gt;&lt;span style=&quot;color: rgb(56, 66, 72); font-family: Lato; font-size: 13px; text-align: start;&quot;&gt;/v2/accounts&lt;br&gt;/&lt;/span&gt;&lt;label style=&quot;cursor: pointer; text-decoration-line: underline; color: rgb(56, 66, 72); font-family: Lato; font-size: 13px; text-align: start;&quot; for=&quot;path-GetStatementsV2_account_id&quot; class=&quot;APIHeader-url-parameterFHIqVFeNEd7b&quot;&gt;{account_id}&lt;/label&gt;&lt;span style=&quot;color: rgb(56, 66, 72); font-family: Lato; font-size: 13px; text-align: start;&quot;&gt;/statements&lt;/span&gt;" style="edgeLabel;html=1;align=center;verticalAlign=middle;resizable=0;points=[];" parent="3k7OrH85VsNkUtMjB5Vq-8" vertex="1" connectable="0">
          <mxGeometry x="-0.1373" relative="1" as="geometry">
            <mxPoint x="15" y="18" as="offset" />
          </mxGeometry>
        </mxCell>
        <mxCell id="3k7OrH85VsNkUtMjB5Vq-10" value="GET" style="edgeLabel;html=1;align=center;verticalAlign=middle;resizable=0;points=[];" parent="3k7OrH85VsNkUtMjB5Vq-8" vertex="1" connectable="0">
          <mxGeometry x="0.0824" y="2" relative="1" as="geometry">
            <mxPoint y="-10" as="offset" />
          </mxGeometry>
        </mxCell>
        <mxCell id="ALDxD-mL54ihRmbCKZu_-23" style="edgeStyle=orthogonalEdgeStyle;rounded=0;jumpStyle=line;orthogonalLoop=1;jettySize=auto;html=1;exitX=0.5;exitY=1;exitDx=0;exitDy=0;entryX=1;entryY=0.5;entryDx=0;entryDy=0;shadow=1;startArrow=none;startFill=0;endArrow=blockThin;endFill=1;" parent="RbG1YVAkucTISpinQ2uh-1" source="ALDxD-mL54ihRmbCKZu_-19" target="ALDxD-mL54ihRmbCKZu_-18" edge="1">
          <mxGeometry relative="1" as="geometry" />
        </mxCell>
        <mxCell id="ALDxD-mL54ihRmbCKZu_-24" style="edgeStyle=orthogonalEdgeStyle;rounded=0;jumpStyle=line;orthogonalLoop=1;jettySize=auto;html=1;exitX=0;exitY=0.5;exitDx=0;exitDy=0;entryX=1;entryY=0.5;entryDx=0;entryDy=0;shadow=1;startArrow=none;startFill=0;endArrow=blockThin;endFill=1;" parent="RbG1YVAkucTISpinQ2uh-1" source="ALDxD-mL54ihRmbCKZu_-18" target="ALDxD-mL54ihRmbCKZu_-14" edge="1">
          <mxGeometry relative="1" as="geometry" />
        </mxCell>
        <mxCell id="ALDxD-mL54ihRmbCKZu_-20" style="edgeStyle=orthogonalEdgeStyle;rounded=0;jumpStyle=line;orthogonalLoop=1;jettySize=auto;html=1;exitX=1;exitY=0.5;exitDx=0;exitDy=0;shadow=1;startArrow=none;startFill=0;endArrow=blockThin;endFill=1;" parent="RbG1YVAkucTISpinQ2uh-1" source="ALDxD-mL54ihRmbCKZu_-17" target="ALDxD-mL54ihRmbCKZu_-19" edge="1">
          <mxGeometry relative="1" as="geometry" />
        </mxCell>
        <mxCell id="ALDxD-mL54ihRmbCKZu_-21" value="&lt;div style=&quot;text-align: start;&quot;&gt;&lt;br&gt;&lt;/div&gt;" style="edgeLabel;html=1;align=center;verticalAlign=middle;resizable=0;points=[];" parent="ALDxD-mL54ihRmbCKZu_-20" vertex="1" connectable="0">
          <mxGeometry x="-0.1373" relative="1" as="geometry">
            <mxPoint x="15" y="10" as="offset" />
          </mxGeometry>
        </mxCell>
        <mxCell id="ALDxD-mL54ihRmbCKZu_-22" value="GET" style="edgeLabel;html=1;align=center;verticalAlign=middle;resizable=0;points=[];" parent="ALDxD-mL54ihRmbCKZu_-20" vertex="1" connectable="0">
          <mxGeometry x="0.0824" y="2" relative="1" as="geometry">
            <mxPoint y="-10" as="offset" />
          </mxGeometry>
        </mxCell>
        <mxCell id="ALDxD-mL54ihRmbCKZu_-26" value="/accounts/v1/accounts/{accountId}/limits" style="edgeLabel;html=1;align=center;verticalAlign=middle;resizable=0;points=[];" parent="ALDxD-mL54ihRmbCKZu_-20" vertex="1" connectable="0">
          <mxGeometry x="0.7647" y="-3" relative="1" as="geometry">
            <mxPoint x="-90" y="5" as="offset" />
          </mxGeometry>
        </mxCell>
        <mxCell id="ALDxD-mL54ihRmbCKZu_-25" style="edgeStyle=orthogonalEdgeStyle;rounded=0;jumpStyle=line;orthogonalLoop=1;jettySize=auto;html=1;exitX=1;exitY=0.5;exitDx=0;exitDy=0;entryX=0;entryY=0.5;entryDx=0;entryDy=0;shadow=1;startArrow=none;startFill=0;endArrow=blockThin;endFill=1;" parent="RbG1YVAkucTISpinQ2uh-1" source="ALDxD-mL54ihRmbCKZu_-16" target="ALDxD-mL54ihRmbCKZu_-17" edge="1">
          <mxGeometry relative="1" as="geometry" />
        </mxCell>
        <mxCell id="3k7OrH85VsNkUtMjB5Vq-14" value="GET" style="edgeLabel;html=1;align=center;verticalAlign=middle;resizable=0;points=[];" parent="ALDxD-mL54ihRmbCKZu_-25" vertex="1" connectable="0">
          <mxGeometry x="0.4125" relative="1" as="geometry">
            <mxPoint x="-63" y="-10" as="offset" />
          </mxGeometry>
        </mxCell>
        <mxCell id="3k7OrH85VsNkUtMjB5Vq-19" value="&lt;span style=&quot;color: rgb(33, 33, 33); font-family: Inter, system-ui, -apple-system, BlinkMacSystemFont, &amp;quot;Segoe UI&amp;quot;, Roboto, Oxygen, Ubuntu, Cantarell, &amp;quot;Fira Sans&amp;quot;, &amp;quot;Droid Sans&amp;quot;, Helvetica, Arial, sans-serif; text-align: left;&quot;&gt;/v1/current-customer/deposit-accounts&lt;br&gt;/{accountNo}/&lt;/span&gt;&lt;font face=&quot;Inter, system-ui, -apple-system, BlinkMacSystemFont, Segoe UI, Roboto, Oxygen, Ubuntu, Cantarell, Fira Sans, Droid Sans, Helvetica, Arial, sans-serif&quot; color=&quot;#212121&quot;&gt;limits&lt;/font&gt;" style="edgeLabel;html=1;align=center;verticalAlign=middle;resizable=0;points=[];" parent="ALDxD-mL54ihRmbCKZu_-25" vertex="1" connectable="0">
          <mxGeometry x="-0.1683" y="-2" relative="1" as="geometry">
            <mxPoint x="15" y="14" as="offset" />
          </mxGeometry>
        </mxCell>
        <mxCell id="3k7OrH85VsNkUtMjB5Vq-13" value="&lt;span style=&quot;font-size: 11px; font-style: normal; font-variant-ligatures: normal; font-variant-caps: normal; font-weight: 400; letter-spacing: normal; orphans: 2; text-indent: 0px; text-transform: none; widows: 2; word-spacing: 0px; -webkit-text-stroke-width: 0px; text-decoration-thickness: initial; text-decoration-style: initial; text-decoration-color: initial; color: rgb(33, 33, 33); font-family: Inter, system-ui, -apple-system, BlinkMacSystemFont, &amp;quot;Segoe UI&amp;quot;, Roboto, Oxygen, Ubuntu, Cantarell, &amp;quot;Fira Sans&amp;quot;, &amp;quot;Droid Sans&amp;quot;, Helvetica, Arial, sans-serif; text-align: left;&quot;&gt;/v1/current-customer/deposit-accounts&lt;br&gt;/{accountNo}/&lt;/span&gt;&lt;span style=&quot;color: rgb(33, 33, 33); font-family: Inter, system-ui, -apple-system, BlinkMacSystemFont, &amp;quot;Segoe UI&amp;quot;, Roboto, Oxygen, Ubuntu, Cantarell, &amp;quot;Fira Sans&amp;quot;, &amp;quot;Droid Sans&amp;quot;, Helvetica, Arial, sans-serif; font-size: 12px; text-align: left;&quot;&gt;statements&lt;/span&gt;" style="edgeStyle=orthogonalEdgeStyle;rounded=0;jumpStyle=line;orthogonalLoop=1;jettySize=auto;html=1;exitX=1;exitY=0.5;exitDx=0;exitDy=0;entryX=0;entryY=0.5;entryDx=0;entryDy=0;shadow=1;startArrow=none;startFill=0;endArrow=blockThin;endFill=1;" parent="RbG1YVAkucTISpinQ2uh-1" source="3k7OrH85VsNkUtMjB5Vq-4" target="3k7OrH85VsNkUtMjB5Vq-5" edge="1">
          <mxGeometry x="0.0203" y="-19" relative="1" as="geometry">
            <mxPoint as="offset" />
          </mxGeometry>
        </mxCell>
        <mxCell id="3k7OrH85VsNkUtMjB5Vq-12" style="edgeStyle=orthogonalEdgeStyle;rounded=0;jumpStyle=line;orthogonalLoop=1;jettySize=auto;html=1;exitX=0;exitY=0.5;exitDx=0;exitDy=0;entryX=1;entryY=0.5;entryDx=0;entryDy=0;shadow=1;startArrow=none;startFill=0;endArrow=blockThin;endFill=1;" parent="RbG1YVAkucTISpinQ2uh-1" source="3k7OrH85VsNkUtMjB5Vq-6" target="3k7OrH85VsNkUtMjB5Vq-2" edge="1">
          <mxGeometry relative="1" as="geometry" />
        </mxCell>
        <mxCell id="2dN_eqyruZ56w_mqQzeV-62" style="edgeStyle=orthogonalEdgeStyle;rounded=0;orthogonalLoop=1;jettySize=auto;html=1;exitX=1;exitY=0.5;exitDx=0;exitDy=0;entryX=0;entryY=0.5;entryDx=0;entryDy=0;" parent="RbG1YVAkucTISpinQ2uh-1" source="2dN_eqyruZ56w_mqQzeV-60" target="2dN_eqyruZ56w_mqQzeV-65" edge="1">
          <mxGeometry relative="1" as="geometry" />
        </mxCell>
        <mxCell id="2dN_eqyruZ56w_mqQzeV-63" value="&lt;div style=&quot;text-align: left;&quot;&gt;&lt;font face=&quot;Inter, system-ui, -apple-system, BlinkMacSystemFont, Segoe UI, Roboto, Oxygen, Ubuntu, Cantarell, Fira Sans, Droid Sans, Helvetica, Arial, sans-serif&quot; color=&quot;#212121&quot;&gt;&lt;span style=&quot;font-size: 11px;&quot;&gt;/v1/current-customer/deposit-accounts&lt;/span&gt;&lt;/font&gt;&lt;br&gt;&lt;/div&gt;" style="edgeLabel;html=1;align=center;verticalAlign=middle;resizable=0;points=[];" parent="2dN_eqyruZ56w_mqQzeV-62" vertex="1" connectable="0">
          <mxGeometry x="0.1448" relative="1" as="geometry">
            <mxPoint x="-13" y="8" as="offset" />
          </mxGeometry>
        </mxCell>
        <mxCell id="2dN_eqyruZ56w_mqQzeV-64" value="GET" style="edgeLabel;html=1;align=center;verticalAlign=middle;resizable=0;points=[];" parent="2dN_eqyruZ56w_mqQzeV-62" vertex="1" connectable="0">
          <mxGeometry x="0.1113" y="-2" relative="1" as="geometry">
            <mxPoint x="-21" y="-12" as="offset" />
          </mxGeometry>
        </mxCell>
        <mxCell id="2dN_eqyruZ56w_mqQzeV-69" style="edgeStyle=orthogonalEdgeStyle;rounded=0;jumpStyle=line;orthogonalLoop=1;jettySize=auto;html=1;exitX=1;exitY=0.5;exitDx=0;exitDy=0;entryX=0;entryY=0.5;entryDx=0;entryDy=0;shadow=1;startArrow=none;startFill=0;endArrow=blockThin;endFill=1;" parent="RbG1YVAkucTISpinQ2uh-1" source="2dN_eqyruZ56w_mqQzeV-65" target="2dN_eqyruZ56w_mqQzeV-67" edge="1">
          <mxGeometry relative="1" as="geometry" />
        </mxCell>
        <mxCell id="2dN_eqyruZ56w_mqQzeV-70" value="GET" style="edgeLabel;html=1;align=center;verticalAlign=middle;resizable=0;points=[];" parent="2dN_eqyruZ56w_mqQzeV-69" vertex="1" connectable="0">
          <mxGeometry x="-0.2385" y="1" relative="1" as="geometry">
            <mxPoint x="1" y="-9" as="offset" />
          </mxGeometry>
        </mxCell>
        <mxCell id="2dN_eqyruZ56w_mqQzeV-71" value="/accounts/v1/accounts/{accountId}" style="edgeLabel;html=1;align=center;verticalAlign=middle;resizable=0;points=[];" parent="2dN_eqyruZ56w_mqQzeV-69" vertex="1" connectable="0">
          <mxGeometry x="0.3769" relative="1" as="geometry">
            <mxPoint x="-39" y="10" as="offset" />
          </mxGeometry>
        </mxCell>
        <mxCell id="2dN_eqyruZ56w_mqQzeV-78" style="edgeStyle=orthogonalEdgeStyle;rounded=0;jumpStyle=line;orthogonalLoop=1;jettySize=auto;html=1;exitX=0.5;exitY=1;exitDx=0;exitDy=0;entryX=1;entryY=0.5;entryDx=0;entryDy=0;shadow=1;startArrow=none;startFill=0;endArrow=blockThin;endFill=1;" parent="RbG1YVAkucTISpinQ2uh-1" source="2dN_eqyruZ56w_mqQzeV-67" target="2dN_eqyruZ56w_mqQzeV-66" edge="1">
          <mxGeometry relative="1" as="geometry" />
        </mxCell>
        <mxCell id="2dN_eqyruZ56w_mqQzeV-77" style="edgeStyle=orthogonalEdgeStyle;rounded=0;jumpStyle=line;orthogonalLoop=1;jettySize=auto;html=1;exitX=0;exitY=0.5;exitDx=0;exitDy=0;shadow=1;startArrow=none;startFill=0;endArrow=blockThin;endFill=1;" parent="RbG1YVAkucTISpinQ2uh-1" source="2dN_eqyruZ56w_mqQzeV-66" target="2dN_eqyruZ56w_mqQzeV-61" edge="1">
          <mxGeometry relative="1" as="geometry" />
        </mxCell>
        <mxCell id="QROOYUSCd6UnNPojLccP-21" style="edgeStyle=orthogonalEdgeStyle;rounded=0;jumpStyle=line;orthogonalLoop=1;jettySize=auto;html=1;exitX=0.5;exitY=1;exitDx=0;exitDy=0;shadow=1;startArrow=none;startFill=0;endArrow=blockThin;endFill=1;" edge="1" parent="1" source="QROOYUSCd6UnNPojLccP-7" target="QROOYUSCd6UnNPojLccP-20">
          <mxGeometry relative="1" as="geometry" />
        </mxCell>
        <mxCell id="QROOYUSCd6UnNPojLccP-7" value="&quot;More&quot; screen" style="rounded=1;whiteSpace=wrap;html=1;" vertex="1" parent="1">
          <mxGeometry x="67" y="1720" width="155" height="60" as="geometry" />
        </mxCell>
        <mxCell id="QROOYUSCd6UnNPojLccP-35" style="edgeStyle=orthogonalEdgeStyle;rounded=0;jumpStyle=line;orthogonalLoop=1;jettySize=auto;html=1;exitX=0.5;exitY=1;exitDx=0;exitDy=0;entryX=0;entryY=0.5;entryDx=0;entryDy=0;shadow=1;startArrow=none;startFill=0;endArrow=blockThin;endFill=1;" edge="1" parent="1" source="QROOYUSCd6UnNPojLccP-12" target="QROOYUSCd6UnNPojLccP-33">
          <mxGeometry relative="1" as="geometry" />
        </mxCell>
        <mxCell id="QROOYUSCd6UnNPojLccP-12" value="&lt;div style=&quot;text-align: left;&quot;&gt;&lt;span style=&quot;background-color: initial;&quot;&gt;update &quot;&lt;/span&gt;&lt;font face=&quot;Inter, system-ui, -apple-system, BlinkMacSystemFont, Segoe UI, Roboto, Oxygen, Ubuntu, Cantarell, Fira Sans, Droid Sans, Helvetica, Arial, sans-serif&quot; color=&quot;#212121&quot;&gt;&lt;span style=&quot;background-color: rgb(255, 255, 255);&quot;&gt;Customer info&lt;/span&gt;&lt;/font&gt;&lt;span style=&quot;background-color: initial;&quot;&gt;&quot;&lt;/span&gt;&lt;/div&gt;" style="rounded=1;whiteSpace=wrap;html=1;" vertex="1" parent="1">
          <mxGeometry x="473" y="1930" width="140" height="60" as="geometry" />
        </mxCell>
        <mxCell id="QROOYUSCd6UnNPojLccP-15" style="edgeStyle=orthogonalEdgeStyle;rounded=0;jumpStyle=line;orthogonalLoop=1;jettySize=auto;html=1;exitX=1;exitY=0.5;exitDx=0;exitDy=0;shadow=1;startArrow=none;startFill=0;endArrow=blockThin;endFill=1;" edge="1" parent="1" source="QROOYUSCd6UnNPojLccP-12" target="QROOYUSCd6UnNPojLccP-32">
          <mxGeometry relative="1" as="geometry">
            <mxPoint x="913" y="1960" as="targetPoint" />
          </mxGeometry>
        </mxCell>
        <mxCell id="QROOYUSCd6UnNPojLccP-17" value="PATCH" style="edgeLabel;html=1;align=center;verticalAlign=middle;resizable=0;points=[];" vertex="1" connectable="0" parent="QROOYUSCd6UnNPojLccP-15">
          <mxGeometry x="0.0824" y="2" relative="1" as="geometry">
            <mxPoint y="-10" as="offset" />
          </mxGeometry>
        </mxCell>
        <mxCell id="QROOYUSCd6UnNPojLccP-30" value="/accounts/v1/accounts/{accountId}&lt;br&gt;/customers/{customerId}/detail" style="edgeLabel;html=1;align=center;verticalAlign=middle;resizable=0;points=[];" vertex="1" connectable="0" parent="QROOYUSCd6UnNPojLccP-15">
          <mxGeometry x="-0.1811" y="-2" relative="1" as="geometry">
            <mxPoint x="48" y="18" as="offset" />
          </mxGeometry>
        </mxCell>
        <mxCell id="QROOYUSCd6UnNPojLccP-24" style="edgeStyle=orthogonalEdgeStyle;rounded=0;jumpStyle=line;orthogonalLoop=1;jettySize=auto;html=1;exitX=0.5;exitY=1;exitDx=0;exitDy=0;entryX=0.5;entryY=0;entryDx=0;entryDy=0;shadow=1;startArrow=none;startFill=0;endArrow=blockThin;endFill=1;" edge="1" parent="1" source="QROOYUSCd6UnNPojLccP-20" target="QROOYUSCd6UnNPojLccP-22">
          <mxGeometry relative="1" as="geometry" />
        </mxCell>
        <mxCell id="QROOYUSCd6UnNPojLccP-20" value="&quot;Profile&quot; button" style="rounded=1;whiteSpace=wrap;html=1;" vertex="1" parent="1">
          <mxGeometry x="67" y="1820" width="155" height="60" as="geometry" />
        </mxCell>
        <mxCell id="QROOYUSCd6UnNPojLccP-25" style="edgeStyle=orthogonalEdgeStyle;rounded=0;jumpStyle=line;orthogonalLoop=1;jettySize=auto;html=1;exitX=1;exitY=0.5;exitDx=0;exitDy=0;entryX=0;entryY=0.5;entryDx=0;entryDy=0;shadow=1;startArrow=none;startFill=0;endArrow=blockThin;endFill=1;" edge="1" parent="1" source="QROOYUSCd6UnNPojLccP-22" target="QROOYUSCd6UnNPojLccP-12">
          <mxGeometry relative="1" as="geometry" />
        </mxCell>
        <mxCell id="QROOYUSCd6UnNPojLccP-28" value="/v1/current-customer/{profilePageId}" style="edgeLabel;html=1;align=center;verticalAlign=middle;resizable=0;points=[];" vertex="1" connectable="0" parent="QROOYUSCd6UnNPojLccP-25">
          <mxGeometry x="-0.2173" y="-2" relative="1" as="geometry">
            <mxPoint x="13" y="8" as="offset" />
          </mxGeometry>
        </mxCell>
        <mxCell id="QROOYUSCd6UnNPojLccP-22" value="&quot;Profile&quot; Screen" style="rounded=1;whiteSpace=wrap;html=1;" vertex="1" parent="1">
          <mxGeometry x="68" y="1930" width="155" height="60" as="geometry" />
        </mxCell>
        <mxCell id="QROOYUSCd6UnNPojLccP-29" value="PUT" style="text;html=1;align=center;verticalAlign=middle;resizable=0;points=[];autosize=1;strokeColor=none;fillColor=none;" vertex="1" parent="1">
          <mxGeometry x="308" y="1935" width="50" height="30" as="geometry" />
        </mxCell>
        <mxCell id="QROOYUSCd6UnNPojLccP-39" style="edgeStyle=orthogonalEdgeStyle;rounded=0;jumpStyle=line;orthogonalLoop=1;jettySize=auto;html=1;exitX=1;exitY=0.5;exitDx=0;exitDy=0;entryX=1;entryY=0.5;entryDx=0;entryDy=0;shadow=1;startArrow=none;startFill=0;endArrow=blockThin;endFill=1;" edge="1" parent="1" source="QROOYUSCd6UnNPojLccP-32" target="QROOYUSCd6UnNPojLccP-37">
          <mxGeometry relative="1" as="geometry" />
        </mxCell>
        <mxCell id="QROOYUSCd6UnNPojLccP-32" value="Update &quot;Customer info&quot;" style="rounded=0;whiteSpace=wrap;html=1;labelBackgroundColor=none;strokeColor=#FF0000;fillColor=#FFFFFF;dashed=1;" vertex="1" parent="1">
          <mxGeometry x="923" y="1930" width="120" height="60" as="geometry" />
        </mxCell>
        <mxCell id="QROOYUSCd6UnNPojLccP-38" style="edgeStyle=orthogonalEdgeStyle;rounded=0;jumpStyle=line;orthogonalLoop=1;jettySize=auto;html=1;exitX=0.5;exitY=1;exitDx=0;exitDy=0;shadow=1;startArrow=none;startFill=0;endArrow=blockThin;endFill=1;" edge="1" parent="1" source="QROOYUSCd6UnNPojLccP-33" target="QROOYUSCd6UnNPojLccP-37">
          <mxGeometry relative="1" as="geometry" />
        </mxCell>
        <mxCell id="QROOYUSCd6UnNPojLccP-33" value="Update &quot;Address info&quot;" style="rounded=0;whiteSpace=wrap;html=1;labelBackgroundColor=none;strokeColor=#FF0000;fillColor=#FFFFFF;dashed=1;" vertex="1" parent="1">
          <mxGeometry x="923" y="2025" width="120" height="60" as="geometry" />
        </mxCell>
        <mxCell id="jkiTRnSLbGis5LZw6rq5-1" style="edgeStyle=orthogonalEdgeStyle;rounded=0;jumpStyle=line;orthogonalLoop=1;jettySize=auto;html=1;exitX=0;exitY=0.5;exitDx=0;exitDy=0;entryX=0.5;entryY=1;entryDx=0;entryDy=0;shadow=1;startArrow=none;startFill=0;endArrow=blockThin;endFill=1;" edge="1" parent="1" source="QROOYUSCd6UnNPojLccP-37" target="QROOYUSCd6UnNPojLccP-22">
          <mxGeometry relative="1" as="geometry" />
        </mxCell>
        <mxCell id="QROOYUSCd6UnNPojLccP-37" value="&lt;div style=&quot;text-align: left;&quot;&gt;&lt;div&gt;Merge update results&lt;/div&gt;&lt;/div&gt;" style="rounded=1;whiteSpace=wrap;html=1;" vertex="1" parent="1">
          <mxGeometry x="473" y="2150" width="140" height="60" as="geometry" />
        </mxCell>
      </root>
    </mxGraphModel>
  </diagram>
  <diagram id="FIzY2GN2euT0teMg5E-t" name="Card">
    <mxGraphModel dx="2062" dy="1122" grid="1" gridSize="10" guides="1" tooltips="1" connect="1" arrows="1" fold="1" page="1" pageScale="1" pageWidth="1100" pageHeight="850" math="0" shadow="0">
      <root>
        <mxCell id="0" />
        <mxCell id="1" parent="0" />
        <mxCell id="3Ui4F2TBJbHMm3v8Vahe-1" value="Card" style="swimlane;html=1;childLayout=stackLayout;startSize=20;rounded=0;shadow=0;labelBackgroundColor=none;strokeWidth=1;fontFamily=Verdana;fontSize=8;align=center;" parent="1" vertex="1">
          <mxGeometry width="1100" height="3390" as="geometry">
            <mxRectangle x="70" y="40" width="190" height="30" as="alternateBounds" />
          </mxGeometry>
        </mxCell>
        <mxCell id="3Ui4F2TBJbHMm3v8Vahe-2" value="OCMB APP" style="swimlane;html=1;startSize=20;shadow=0;" parent="3Ui4F2TBJbHMm3v8Vahe-1" vertex="1">
          <mxGeometry y="20" width="370" height="3370" as="geometry">
            <mxRectangle x="40" y="20" width="40" height="730" as="alternateBounds" />
          </mxGeometry>
        </mxCell>
        <mxCell id="3Ui4F2TBJbHMm3v8Vahe-3" value="&quot;Card&quot; button" style="rounded=1;whiteSpace=wrap;html=1;" parent="3Ui4F2TBJbHMm3v8Vahe-2" vertex="1">
          <mxGeometry x="55" y="40" width="155" height="60" as="geometry" />
        </mxCell>
        <mxCell id="3Ui4F2TBJbHMm3v8Vahe-4" value="&quot;Cards&quot; screen" style="rounded=1;whiteSpace=wrap;html=1;" parent="3Ui4F2TBJbHMm3v8Vahe-2" vertex="1">
          <mxGeometry x="60" y="190" width="155" height="60" as="geometry" />
        </mxCell>
        <mxCell id="dYVi-snJWBGB5sRTURGu-14" value="&quot;Card&amp;nbsp;Detail&quot; screen" style="rounded=1;whiteSpace=wrap;html=1;" parent="3Ui4F2TBJbHMm3v8Vahe-2" vertex="1">
          <mxGeometry x="60" y="1031" width="155" height="60" as="geometry" />
        </mxCell>
        <mxCell id="dYVi-snJWBGB5sRTURGu-25" value="&quot;Card&amp;nbsp;Detail&quot; screen &quot;&lt;span style=&quot;background-color: initial;&quot;&gt;Show pic&lt;/span&gt;&quot;" style="rounded=1;whiteSpace=wrap;html=1;" parent="3Ui4F2TBJbHMm3v8Vahe-2" vertex="1">
          <mxGeometry x="60" y="1131" width="155" height="60" as="geometry" />
        </mxCell>
        <mxCell id="cqEw-0RctZeOiV3f_ru_-30" style="edgeStyle=orthogonalEdgeStyle;rounded=0;jumpStyle=line;orthogonalLoop=1;jettySize=auto;html=1;exitX=0.5;exitY=1;exitDx=0;exitDy=0;shadow=1;startArrow=none;startFill=0;endArrow=blockThin;endFill=1;" edge="1" parent="3Ui4F2TBJbHMm3v8Vahe-2" source="cqEw-0RctZeOiV3f_ru_-1" target="cqEw-0RctZeOiV3f_ru_-29">
          <mxGeometry relative="1" as="geometry" />
        </mxCell>
        <mxCell id="cqEw-0RctZeOiV3f_ru_-1" value="&quot;Card&amp;nbsp;Detail&quot; screen" style="rounded=1;whiteSpace=wrap;html=1;" vertex="1" parent="3Ui4F2TBJbHMm3v8Vahe-2">
          <mxGeometry x="55" y="1218" width="155" height="60" as="geometry" />
        </mxCell>
        <mxCell id="cqEw-0RctZeOiV3f_ru_-2" value="Show Update Result" style="rounded=1;whiteSpace=wrap;html=1;" vertex="1" parent="3Ui4F2TBJbHMm3v8Vahe-2">
          <mxGeometry x="60" y="1430" width="155" height="60" as="geometry" />
        </mxCell>
        <mxCell id="cqEw-0RctZeOiV3f_ru_-29" value="&quot;freeze/unfreeze&quot; button" style="rounded=1;whiteSpace=wrap;html=1;" vertex="1" parent="3Ui4F2TBJbHMm3v8Vahe-2">
          <mxGeometry x="55" y="1320" width="155" height="60" as="geometry" />
        </mxCell>
        <mxCell id="3Ui4F2TBJbHMm3v8Vahe-13" style="edgeStyle=orthogonalEdgeStyle;rounded=0;orthogonalLoop=1;jettySize=auto;html=1;exitX=1;exitY=0.5;exitDx=0;exitDy=0;entryX=0;entryY=0.5;entryDx=0;entryDy=0;" parent="3Ui4F2TBJbHMm3v8Vahe-1" source="3Ui4F2TBJbHMm3v8Vahe-3" target="3Ui4F2TBJbHMm3v8Vahe-17" edge="1">
          <mxGeometry relative="1" as="geometry" />
        </mxCell>
        <mxCell id="3Ui4F2TBJbHMm3v8Vahe-14" value="&lt;div style=&quot;text-align: left;&quot;&gt;&lt;span style=&quot;color: rgb(33, 33, 33); font-family: Inter, system-ui, -apple-system, BlinkMacSystemFont, &amp;quot;Segoe UI&amp;quot;, Roboto, Oxygen, Ubuntu, Cantarell, &amp;quot;Fira Sans&amp;quot;, &amp;quot;Droid Sans&amp;quot;, Helvetica, Arial, sans-serif; font-size: 12px;&quot;&gt;/v1/cards&lt;/span&gt;&lt;br&gt;&lt;/div&gt;" style="edgeLabel;html=1;align=center;verticalAlign=middle;resizable=0;points=[];" parent="3Ui4F2TBJbHMm3v8Vahe-13" vertex="1" connectable="0">
          <mxGeometry x="0.1448" relative="1" as="geometry">
            <mxPoint x="-13" y="8" as="offset" />
          </mxGeometry>
        </mxCell>
        <mxCell id="3Ui4F2TBJbHMm3v8Vahe-15" value="GET" style="edgeLabel;html=1;align=center;verticalAlign=middle;resizable=0;points=[];" parent="3Ui4F2TBJbHMm3v8Vahe-13" vertex="1" connectable="0">
          <mxGeometry x="0.1113" y="-2" relative="1" as="geometry">
            <mxPoint x="-21" y="-12" as="offset" />
          </mxGeometry>
        </mxCell>
        <mxCell id="3Ui4F2TBJbHMm3v8Vahe-32" style="edgeStyle=orthogonalEdgeStyle;rounded=0;jumpStyle=line;orthogonalLoop=1;jettySize=auto;html=1;exitX=0;exitY=0.5;exitDx=0;exitDy=0;shadow=1;startArrow=none;startFill=0;endArrow=blockThin;endFill=1;" parent="3Ui4F2TBJbHMm3v8Vahe-1" source="3Ui4F2TBJbHMm3v8Vahe-19" target="3Ui4F2TBJbHMm3v8Vahe-4" edge="1">
          <mxGeometry relative="1" as="geometry" />
        </mxCell>
        <mxCell id="3Ui4F2TBJbHMm3v8Vahe-16" value="OCMB API" style="swimlane;html=1;startSize=20;" parent="3Ui4F2TBJbHMm3v8Vahe-1" vertex="1">
          <mxGeometry x="370" y="20" width="410" height="3370" as="geometry">
            <mxRectangle x="80" y="20" width="40" height="730" as="alternateBounds" />
          </mxGeometry>
        </mxCell>
        <mxCell id="3Ui4F2TBJbHMm3v8Vahe-17" value="Query &quot;Cards&quot;" style="rounded=1;whiteSpace=wrap;html=1;" parent="3Ui4F2TBJbHMm3v8Vahe-16" vertex="1">
          <mxGeometry x="140" y="40" width="120" height="60" as="geometry" />
        </mxCell>
        <mxCell id="3Ui4F2TBJbHMm3v8Vahe-18" style="edgeStyle=orthogonalEdgeStyle;rounded=0;orthogonalLoop=1;jettySize=auto;html=1;exitX=0.5;exitY=1;exitDx=0;exitDy=0;" parent="3Ui4F2TBJbHMm3v8Vahe-16" edge="1">
          <mxGeometry relative="1" as="geometry">
            <mxPoint x="205" as="sourcePoint" />
            <mxPoint x="205" as="targetPoint" />
          </mxGeometry>
        </mxCell>
        <mxCell id="3Ui4F2TBJbHMm3v8Vahe-19" value="Get &quot;Cards&quot;" style="rounded=1;whiteSpace=wrap;html=1;" parent="3Ui4F2TBJbHMm3v8Vahe-16" vertex="1">
          <mxGeometry x="140" y="191" width="120" height="60" as="geometry" />
        </mxCell>
        <mxCell id="dYVi-snJWBGB5sRTURGu-15" value="Query &quot;Card PIC&quot;" style="rounded=1;whiteSpace=wrap;html=1;strokeColor=#000000;" parent="3Ui4F2TBJbHMm3v8Vahe-16" vertex="1">
          <mxGeometry x="130" y="1031" width="120" height="60" as="geometry" />
        </mxCell>
        <mxCell id="dYVi-snJWBGB5sRTURGu-23" value="GET &quot;Card PIC&quot;" style="rounded=1;whiteSpace=wrap;html=1;strokeColor=#000000;" parent="3Ui4F2TBJbHMm3v8Vahe-16" vertex="1">
          <mxGeometry x="130" y="1131" width="120" height="60" as="geometry" />
        </mxCell>
        <mxCell id="cqEw-0RctZeOiV3f_ru_-3" value="freeze/unfreeze Card" style="rounded=1;whiteSpace=wrap;html=1;strokeColor=#FF1D0D;" vertex="1" parent="3Ui4F2TBJbHMm3v8Vahe-16">
          <mxGeometry x="120" y="1320" width="120" height="60" as="geometry" />
        </mxCell>
        <mxCell id="cqEw-0RctZeOiV3f_ru_-4" value="GET Update Result" style="rounded=1;whiteSpace=wrap;html=1;strokeColor=#000000;" vertex="1" parent="3Ui4F2TBJbHMm3v8Vahe-16">
          <mxGeometry x="120" y="1430" width="120" height="60" as="geometry" />
        </mxCell>
        <mxCell id="3Ui4F2TBJbHMm3v8Vahe-24" style="edgeStyle=orthogonalEdgeStyle;rounded=0;jumpStyle=line;orthogonalLoop=1;jettySize=auto;html=1;exitX=1;exitY=0.5;exitDx=0;exitDy=0;entryX=0;entryY=0.5;entryDx=0;entryDy=0;shadow=1;startArrow=none;startFill=0;endArrow=blockThin;endFill=1;" parent="3Ui4F2TBJbHMm3v8Vahe-1" source="3Ui4F2TBJbHMm3v8Vahe-17" target="3Ui4F2TBJbHMm3v8Vahe-38" edge="1">
          <mxGeometry relative="1" as="geometry" />
        </mxCell>
        <mxCell id="3Ui4F2TBJbHMm3v8Vahe-26" value="/wallet/v1/customers/{customerId}&lt;br&gt;/accounts/{accountId}/cards" style="edgeLabel;html=1;align=center;verticalAlign=middle;resizable=0;points=[];" parent="3Ui4F2TBJbHMm3v8Vahe-24" vertex="1" connectable="0">
          <mxGeometry x="0.3769" relative="1" as="geometry">
            <mxPoint x="-41" y="16" as="offset" />
          </mxGeometry>
        </mxCell>
        <mxCell id="3Ui4F2TBJbHMm3v8Vahe-25" value="GET" style="edgeLabel;html=1;align=center;verticalAlign=middle;resizable=0;points=[];" parent="3Ui4F2TBJbHMm3v8Vahe-24" vertex="1" connectable="0">
          <mxGeometry x="-0.2385" y="1" relative="1" as="geometry">
            <mxPoint x="1" y="-9" as="offset" />
          </mxGeometry>
        </mxCell>
        <mxCell id="3Ui4F2TBJbHMm3v8Vahe-30" style="edgeStyle=orthogonalEdgeStyle;rounded=0;jumpStyle=line;orthogonalLoop=1;jettySize=auto;html=1;exitX=0.5;exitY=1;exitDx=0;exitDy=0;shadow=1;startArrow=none;startFill=0;endArrow=blockThin;endFill=1;entryX=1;entryY=0.5;entryDx=0;entryDy=0;" parent="3Ui4F2TBJbHMm3v8Vahe-1" source="3Ui4F2TBJbHMm3v8Vahe-38" target="3Ui4F2TBJbHMm3v8Vahe-19" edge="1">
          <mxGeometry relative="1" as="geometry">
            <mxPoint x="710" y="220" as="targetPoint" />
          </mxGeometry>
        </mxCell>
        <mxCell id="3Ui4F2TBJbHMm3v8Vahe-37" value="PISMO API" style="swimlane;html=1;startSize=20;" parent="3Ui4F2TBJbHMm3v8Vahe-1" vertex="1">
          <mxGeometry x="780" y="20" width="320" height="3370" as="geometry">
            <mxRectangle x="120" y="20" width="40" height="730" as="alternateBounds" />
          </mxGeometry>
        </mxCell>
        <mxCell id="3Ui4F2TBJbHMm3v8Vahe-38" value="Query &quot;Cards&quot;" style="rounded=0;whiteSpace=wrap;html=1;labelBackgroundColor=none;strokeColor=#000000;fillColor=#FFFFFF;" parent="3Ui4F2TBJbHMm3v8Vahe-37" vertex="1">
          <mxGeometry x="110" y="40" width="120" height="60" as="geometry" />
        </mxCell>
        <mxCell id="dYVi-snJWBGB5sRTURGu-17" value="Query &quot;Card PIC&quot;" style="rounded=0;whiteSpace=wrap;html=1;labelBackgroundColor=none;strokeColor=#000000;fillColor=#FFFFFF;" parent="3Ui4F2TBJbHMm3v8Vahe-37" vertex="1">
          <mxGeometry x="106" y="1031" width="120" height="60" as="geometry" />
        </mxCell>
        <mxCell id="cqEw-0RctZeOiV3f_ru_-5" value="&amp;nbsp;&quot;freeze/unfreeze&quot; Card" style="rounded=0;whiteSpace=wrap;html=1;labelBackgroundColor=none;strokeColor=#000000;fillColor=#FFFFFF;" vertex="1" parent="3Ui4F2TBJbHMm3v8Vahe-37">
          <mxGeometry x="100" y="1320" width="120" height="60" as="geometry" />
        </mxCell>
        <mxCell id="cqEw-0RctZeOiV3f_ru_-51" value="Query &quot;reissue reasons&quot;" style="rounded=0;whiteSpace=wrap;html=1;labelBackgroundColor=none;strokeColor=#000000;fillColor=#FFFFFF;" vertex="1" parent="3Ui4F2TBJbHMm3v8Vahe-37">
          <mxGeometry x="127" y="2048" width="120" height="60" as="geometry" />
        </mxCell>
        <mxCell id="dYVi-snJWBGB5sRTURGu-16" style="edgeStyle=orthogonalEdgeStyle;rounded=0;jumpStyle=line;orthogonalLoop=1;jettySize=auto;html=1;exitX=1;exitY=0.5;exitDx=0;exitDy=0;entryX=0;entryY=0.5;entryDx=0;entryDy=0;shadow=1;startArrow=none;startFill=0;endArrow=blockThin;endFill=1;" parent="3Ui4F2TBJbHMm3v8Vahe-1" source="dYVi-snJWBGB5sRTURGu-14" target="dYVi-snJWBGB5sRTURGu-15" edge="1">
          <mxGeometry relative="1" as="geometry" />
        </mxCell>
        <mxCell id="dYVi-snJWBGB5sRTURGu-19" value="GET" style="edgeLabel;html=1;align=center;verticalAlign=middle;resizable=0;points=[];" parent="dYVi-snJWBGB5sRTURGu-16" vertex="1" connectable="0">
          <mxGeometry x="0.193" y="1" relative="1" as="geometry">
            <mxPoint x="-14" y="-10" as="offset" />
          </mxGeometry>
        </mxCell>
        <mxCell id="dYVi-snJWBGB5sRTURGu-20" value="&lt;span style=&quot;color: rgb(33, 33, 33); font-family: Inter, system-ui, -apple-system, BlinkMacSystemFont, &amp;quot;Segoe UI&amp;quot;, Roboto, Oxygen, Ubuntu, Cantarell, &amp;quot;Fira Sans&amp;quot;, &amp;quot;Droid Sans&amp;quot;, Helvetica, Arial, sans-serif; font-size: 12px; text-align: left;&quot;&gt;/v1/cards/pic-info/{cardId}&lt;/span&gt;" style="edgeLabel;html=1;align=center;verticalAlign=middle;resizable=0;points=[];" parent="dYVi-snJWBGB5sRTURGu-16" vertex="1" connectable="0">
          <mxGeometry x="0.6211" y="-2" relative="1" as="geometry">
            <mxPoint x="-66" y="8" as="offset" />
          </mxGeometry>
        </mxCell>
        <mxCell id="dYVi-snJWBGB5sRTURGu-18" style="edgeStyle=orthogonalEdgeStyle;rounded=0;jumpStyle=line;orthogonalLoop=1;jettySize=auto;html=1;exitX=1;exitY=0.5;exitDx=0;exitDy=0;entryX=0;entryY=0.5;entryDx=0;entryDy=0;shadow=1;startArrow=none;startFill=0;endArrow=blockThin;endFill=1;" parent="3Ui4F2TBJbHMm3v8Vahe-1" source="dYVi-snJWBGB5sRTURGu-15" target="dYVi-snJWBGB5sRTURGu-17" edge="1">
          <mxGeometry relative="1" as="geometry" />
        </mxCell>
        <mxCell id="dYVi-snJWBGB5sRTURGu-21" value="GET" style="edgeLabel;html=1;align=center;verticalAlign=middle;resizable=0;points=[];" parent="dYVi-snJWBGB5sRTURGu-18" vertex="1" connectable="0">
          <mxGeometry x="-0.0902" y="-2" relative="1" as="geometry">
            <mxPoint x="1" y="-4" as="offset" />
          </mxGeometry>
        </mxCell>
        <mxCell id="dYVi-snJWBGB5sRTURGu-22" value="&lt;span style=&quot;color: rgb(33, 33, 33); font-family: Inter, system-ui, -apple-system, BlinkMacSystemFont, &amp;quot;Segoe UI&amp;quot;, Roboto, Oxygen, Ubuntu, Cantarell, &amp;quot;Fira Sans&amp;quot;, &amp;quot;Droid Sans&amp;quot;, Helvetica, Arial, sans-serif; font-size: 12px; text-align: left;&quot;&gt;/pcicards/v2/pcicards/info/{cardId}&lt;/span&gt;" style="edgeLabel;html=1;align=center;verticalAlign=middle;resizable=0;points=[];" parent="dYVi-snJWBGB5sRTURGu-18" vertex="1" connectable="0">
          <mxGeometry x="0.4211" y="-3" relative="1" as="geometry">
            <mxPoint x="-49" y="7" as="offset" />
          </mxGeometry>
        </mxCell>
        <mxCell id="dYVi-snJWBGB5sRTURGu-24" style="edgeStyle=orthogonalEdgeStyle;rounded=0;jumpStyle=line;orthogonalLoop=1;jettySize=auto;html=1;exitX=0.5;exitY=1;exitDx=0;exitDy=0;entryX=1;entryY=0.5;entryDx=0;entryDy=0;shadow=1;startArrow=none;startFill=0;endArrow=blockThin;endFill=1;" parent="3Ui4F2TBJbHMm3v8Vahe-1" source="dYVi-snJWBGB5sRTURGu-17" target="dYVi-snJWBGB5sRTURGu-23" edge="1">
          <mxGeometry relative="1" as="geometry" />
        </mxCell>
        <mxCell id="dYVi-snJWBGB5sRTURGu-26" style="edgeStyle=orthogonalEdgeStyle;rounded=0;jumpStyle=line;orthogonalLoop=1;jettySize=auto;html=1;exitX=0;exitY=0.5;exitDx=0;exitDy=0;entryX=1;entryY=0.5;entryDx=0;entryDy=0;shadow=1;startArrow=none;startFill=0;endArrow=blockThin;endFill=1;" parent="3Ui4F2TBJbHMm3v8Vahe-1" source="dYVi-snJWBGB5sRTURGu-23" target="dYVi-snJWBGB5sRTURGu-25" edge="1">
          <mxGeometry relative="1" as="geometry" />
        </mxCell>
        <mxCell id="cqEw-0RctZeOiV3f_ru_-31" style="edgeStyle=orthogonalEdgeStyle;rounded=0;jumpStyle=line;orthogonalLoop=1;jettySize=auto;html=1;exitX=1;exitY=0.5;exitDx=0;exitDy=0;shadow=1;startArrow=none;startFill=0;endArrow=blockThin;endFill=1;" edge="1" parent="3Ui4F2TBJbHMm3v8Vahe-1" source="cqEw-0RctZeOiV3f_ru_-29" target="cqEw-0RctZeOiV3f_ru_-3">
          <mxGeometry relative="1" as="geometry" />
        </mxCell>
        <mxCell id="cqEw-0RctZeOiV3f_ru_-9" style="edgeStyle=orthogonalEdgeStyle;rounded=0;jumpStyle=line;orthogonalLoop=1;jettySize=auto;html=1;exitX=1;exitY=0.5;exitDx=0;exitDy=0;entryX=0;entryY=0.5;entryDx=0;entryDy=0;shadow=1;startArrow=none;startFill=0;endArrow=blockThin;endFill=1;" edge="1" parent="3Ui4F2TBJbHMm3v8Vahe-1" source="cqEw-0RctZeOiV3f_ru_-3" target="cqEw-0RctZeOiV3f_ru_-5">
          <mxGeometry relative="1" as="geometry" />
        </mxCell>
        <mxCell id="cqEw-0RctZeOiV3f_ru_-10" value="PUT" style="edgeLabel;html=1;align=center;verticalAlign=middle;resizable=0;points=[];" vertex="1" connectable="0" parent="cqEw-0RctZeOiV3f_ru_-9">
          <mxGeometry x="-0.0902" y="-2" relative="1" as="geometry">
            <mxPoint x="1" y="-12" as="offset" />
          </mxGeometry>
        </mxCell>
        <mxCell id="cqEw-0RctZeOiV3f_ru_-11" value="&lt;div style=&quot;text-align: left;&quot;&gt;&lt;font face=&quot;Inter, system-ui, -apple-system, BlinkMacSystemFont, Segoe UI, Roboto, Oxygen, Ubuntu, Cantarell, Fira Sans, Droid Sans, Helvetica, Arial, sans-serif&quot; color=&quot;#212121&quot;&gt;/wallet/v1/customers/{customerId}&lt;/font&gt;&lt;/div&gt;&lt;div style=&quot;text-align: left;&quot;&gt;&lt;font face=&quot;Inter, system-ui, -apple-system, BlinkMacSystemFont, Segoe UI, Roboto, Oxygen, Ubuntu, Cantarell, Fira Sans, Droid Sans, Helvetica, Arial, sans-serif&quot; color=&quot;#212121&quot;&gt;/accounts&lt;/font&gt;&lt;font face=&quot;Inter, system-ui, -apple-system, BlinkMacSystemFont, Segoe UI, Roboto, Oxygen, Ubuntu, Cantarell, Fira Sans, Droid Sans, Helvetica, Arial, sans-serif&quot; color=&quot;#212121&quot;&gt;/&lt;/font&gt;&lt;span style=&quot;color: rgb(33, 33, 33); font-family: Inter, system-ui, -apple-system, BlinkMacSystemFont, &amp;quot;Segoe UI&amp;quot;, Roboto, Oxygen, Ubuntu, Cantarell, &amp;quot;Fira Sans&amp;quot;, &amp;quot;Droid Sans&amp;quot;, Helvetica, Arial, sans-serif;&quot;&gt;{accountId}/cards/{cardId}/status&lt;/span&gt;&lt;/div&gt;" style="edgeLabel;html=1;align=center;verticalAlign=middle;resizable=0;points=[];" vertex="1" connectable="0" parent="cqEw-0RctZeOiV3f_ru_-9">
          <mxGeometry x="0.4211" y="-3" relative="1" as="geometry">
            <mxPoint x="-52" y="17" as="offset" />
          </mxGeometry>
        </mxCell>
        <mxCell id="cqEw-0RctZeOiV3f_ru_-13" style="edgeStyle=orthogonalEdgeStyle;rounded=0;jumpStyle=line;orthogonalLoop=1;jettySize=auto;html=1;exitX=0;exitY=0.5;exitDx=0;exitDy=0;entryX=1;entryY=0.5;entryDx=0;entryDy=0;shadow=1;startArrow=none;startFill=0;endArrow=blockThin;endFill=1;" edge="1" parent="3Ui4F2TBJbHMm3v8Vahe-1" source="cqEw-0RctZeOiV3f_ru_-4" target="cqEw-0RctZeOiV3f_ru_-2">
          <mxGeometry relative="1" as="geometry" />
        </mxCell>
        <mxCell id="cqEw-0RctZeOiV3f_ru_-12" style="edgeStyle=orthogonalEdgeStyle;rounded=0;jumpStyle=line;orthogonalLoop=1;jettySize=auto;html=1;exitX=0.5;exitY=1;exitDx=0;exitDy=0;entryX=1;entryY=0.5;entryDx=0;entryDy=0;shadow=1;startArrow=none;startFill=0;endArrow=blockThin;endFill=1;" edge="1" parent="3Ui4F2TBJbHMm3v8Vahe-1" source="cqEw-0RctZeOiV3f_ru_-5" target="cqEw-0RctZeOiV3f_ru_-4">
          <mxGeometry relative="1" as="geometry" />
        </mxCell>
        <mxCell id="6XxcMEnFnDUKSk2nUHpR-1" style="edgeStyle=orthogonalEdgeStyle;rounded=0;jumpStyle=line;orthogonalLoop=1;jettySize=auto;html=1;exitX=0.5;exitY=1;exitDx=0;exitDy=0;shadow=1;startArrow=none;startFill=0;endArrow=blockThin;endFill=1;entryX=0.5;entryY=0;entryDx=0;entryDy=0;" parent="1" source="6XxcMEnFnDUKSk2nUHpR-2" target="6XxcMEnFnDUKSk2nUHpR-3" edge="1">
          <mxGeometry relative="1" as="geometry">
            <mxPoint x="137.5" y="561" as="targetPoint" />
          </mxGeometry>
        </mxCell>
        <mxCell id="6XxcMEnFnDUKSk2nUHpR-2" value="&lt;div&gt;&quot;Transaction History List&quot;&amp;nbsp;module view&lt;/div&gt;" style="rounded=1;whiteSpace=wrap;html=1;" parent="1" vertex="1">
          <mxGeometry x="60" y="451" width="155" height="60" as="geometry" />
        </mxCell>
        <mxCell id="6XxcMEnFnDUKSk2nUHpR-3" value="&lt;div&gt;&quot;Transaction History Detail&quot; screen&lt;/div&gt;" style="rounded=1;whiteSpace=wrap;html=1;" parent="1" vertex="1">
          <mxGeometry x="60" y="567" width="155" height="60" as="geometry" />
        </mxCell>
        <mxCell id="6XxcMEnFnDUKSk2nUHpR-4" value="&quot;Card&amp;nbsp;Detail&quot; screen" style="rounded=1;whiteSpace=wrap;html=1;" parent="1" vertex="1">
          <mxGeometry x="60" y="355" width="155" height="60" as="geometry" />
        </mxCell>
        <mxCell id="6XxcMEnFnDUKSk2nUHpR-5" value="Query &quot;Transaction History&quot;" style="rounded=1;whiteSpace=wrap;html=1;strokeColor=#FF1D0D;dashed=1;" parent="1" vertex="1">
          <mxGeometry x="511" y="355" width="120" height="60" as="geometry" />
        </mxCell>
        <mxCell id="6XxcMEnFnDUKSk2nUHpR-6" value="GET &quot;Transaction History List&quot;" style="rounded=1;whiteSpace=wrap;html=1;strokeColor=#FF1D0D;dashed=1;" parent="1" vertex="1">
          <mxGeometry x="511" y="451" width="120" height="60" as="geometry" />
        </mxCell>
        <mxCell id="6XxcMEnFnDUKSk2nUHpR-7" value="Query &quot;&lt;span style=&quot;color: rgb(33, 33, 33); font-family: Inter, system-ui, -apple-system, BlinkMacSystemFont, &amp;quot;Segoe UI&amp;quot;, Roboto, Oxygen, Ubuntu, Cantarell, &amp;quot;Fira Sans&amp;quot;, &amp;quot;Droid Sans&amp;quot;, Helvetica, Arial, sans-serif; text-align: left; background-color: rgb(255, 255, 255);&quot;&gt;transactions list&lt;/span&gt;&quot;" style="rounded=0;whiteSpace=wrap;html=1;labelBackgroundColor=none;strokeColor=#FF1D0D;fillColor=#FFFFFF;dashed=1;" parent="1" vertex="1">
          <mxGeometry x="886" y="355" width="120" height="60" as="geometry" />
        </mxCell>
        <mxCell id="6XxcMEnFnDUKSk2nUHpR-8" style="edgeStyle=orthogonalEdgeStyle;rounded=0;jumpStyle=line;orthogonalLoop=1;jettySize=auto;html=1;exitX=1;exitY=0.5;exitDx=0;exitDy=0;shadow=1;startArrow=none;startFill=0;endArrow=blockThin;endFill=1;" parent="1" source="6XxcMEnFnDUKSk2nUHpR-5" target="6XxcMEnFnDUKSk2nUHpR-7" edge="1">
          <mxGeometry relative="1" as="geometry" />
        </mxCell>
        <mxCell id="6XxcMEnFnDUKSk2nUHpR-9" value="/transactions-core/v2/transactions" style="edgeLabel;html=1;align=center;verticalAlign=middle;resizable=0;points=[];" parent="6XxcMEnFnDUKSk2nUHpR-8" vertex="1" connectable="0">
          <mxGeometry x="-0.1373" relative="1" as="geometry">
            <mxPoint x="15" y="10" as="offset" />
          </mxGeometry>
        </mxCell>
        <mxCell id="6XxcMEnFnDUKSk2nUHpR-10" value="GET" style="edgeLabel;html=1;align=center;verticalAlign=middle;resizable=0;points=[];" parent="6XxcMEnFnDUKSk2nUHpR-8" vertex="1" connectable="0">
          <mxGeometry x="0.0824" y="2" relative="1" as="geometry">
            <mxPoint y="-10" as="offset" />
          </mxGeometry>
        </mxCell>
        <mxCell id="6XxcMEnFnDUKSk2nUHpR-11" style="edgeStyle=orthogonalEdgeStyle;rounded=0;jumpStyle=line;orthogonalLoop=1;jettySize=auto;html=1;exitX=0.5;exitY=1;exitDx=0;exitDy=0;entryX=1;entryY=0.5;entryDx=0;entryDy=0;shadow=1;startArrow=none;startFill=0;endArrow=blockThin;endFill=1;" parent="1" source="6XxcMEnFnDUKSk2nUHpR-7" target="6XxcMEnFnDUKSk2nUHpR-6" edge="1">
          <mxGeometry relative="1" as="geometry" />
        </mxCell>
        <mxCell id="6XxcMEnFnDUKSk2nUHpR-12" style="edgeStyle=orthogonalEdgeStyle;rounded=0;jumpStyle=line;orthogonalLoop=1;jettySize=auto;html=1;exitX=0;exitY=0.5;exitDx=0;exitDy=0;entryX=1;entryY=0.5;entryDx=0;entryDy=0;shadow=1;startArrow=none;startFill=0;endArrow=blockThin;endFill=1;" parent="1" source="6XxcMEnFnDUKSk2nUHpR-6" target="6XxcMEnFnDUKSk2nUHpR-2" edge="1">
          <mxGeometry relative="1" as="geometry" />
        </mxCell>
        <mxCell id="6XxcMEnFnDUKSk2nUHpR-13" style="edgeStyle=orthogonalEdgeStyle;rounded=0;jumpStyle=line;orthogonalLoop=1;jettySize=auto;html=1;exitX=1;exitY=0.5;exitDx=0;exitDy=0;entryX=0;entryY=0.5;entryDx=0;entryDy=0;shadow=1;startArrow=none;startFill=0;endArrow=blockThin;endFill=1;" parent="1" source="6XxcMEnFnDUKSk2nUHpR-4" target="6XxcMEnFnDUKSk2nUHpR-5" edge="1">
          <mxGeometry relative="1" as="geometry" />
        </mxCell>
        <mxCell id="6XxcMEnFnDUKSk2nUHpR-14" value="GET" style="edgeLabel;html=1;align=center;verticalAlign=middle;resizable=0;points=[];" parent="6XxcMEnFnDUKSk2nUHpR-13" vertex="1" connectable="0">
          <mxGeometry x="-0.2365" y="-1" relative="1" as="geometry">
            <mxPoint x="38" y="-11" as="offset" />
          </mxGeometry>
        </mxCell>
        <mxCell id="6XxcMEnFnDUKSk2nUHpR-15" value="&lt;span style=&quot;color: rgb(33, 33, 33); font-family: Inter, system-ui, -apple-system, BlinkMacSystemFont, &amp;quot;Segoe UI&amp;quot;, Roboto, Oxygen, Ubuntu, Cantarell, &amp;quot;Fira Sans&amp;quot;, &amp;quot;Droid Sans&amp;quot;, Helvetica, Arial, sans-serif; text-align: left;&quot;&gt;/v1/current-customer/deposit-accounts&lt;br&gt;/{accountNo}/&lt;/span&gt;&lt;font face=&quot;Inter, system-ui, -apple-system, BlinkMacSystemFont, Segoe UI, Roboto, Oxygen, Ubuntu, Cantarell, Fira Sans, Droid Sans, Helvetica, Arial, sans-serif&quot; color=&quot;#212121&quot;&gt;&lt;span style=&quot;font-size: 11px;&quot;&gt;transactions&lt;/span&gt;&lt;/font&gt;" style="edgeLabel;html=1;align=center;verticalAlign=middle;resizable=0;points=[];" parent="6XxcMEnFnDUKSk2nUHpR-13" vertex="1" connectable="0">
          <mxGeometry x="0.1689" y="-4" relative="1" as="geometry">
            <mxPoint x="-19" y="16" as="offset" />
          </mxGeometry>
        </mxCell>
        <mxCell id="dYVi-snJWBGB5sRTURGu-1" style="edgeStyle=orthogonalEdgeStyle;rounded=0;jumpStyle=line;orthogonalLoop=1;jettySize=auto;html=1;exitX=0.5;exitY=1;exitDx=0;exitDy=0;shadow=1;startArrow=none;startFill=0;endArrow=blockThin;endFill=1;" parent="1" source="dYVi-snJWBGB5sRTURGu-2" target="dYVi-snJWBGB5sRTURGu-3" edge="1">
          <mxGeometry relative="1" as="geometry" />
        </mxCell>
        <mxCell id="dYVi-snJWBGB5sRTURGu-2" value="&lt;div&gt;&quot;statements&quot;&amp;nbsp;module view&lt;/div&gt;" style="rounded=1;whiteSpace=wrap;html=1;" parent="1" vertex="1">
          <mxGeometry x="64" y="795" width="155" height="60" as="geometry" />
        </mxCell>
        <mxCell id="dYVi-snJWBGB5sRTURGu-3" value="&lt;div&gt;&quot;statement&amp;nbsp;Detail&quot; screen&lt;/div&gt;" style="rounded=1;whiteSpace=wrap;html=1;" parent="1" vertex="1">
          <mxGeometry x="64" y="925" width="155" height="60" as="geometry" />
        </mxCell>
        <mxCell id="dYVi-snJWBGB5sRTURGu-4" value="&quot;statements&quot; screen" style="rounded=1;whiteSpace=wrap;html=1;" parent="1" vertex="1">
          <mxGeometry x="64" y="685" width="155" height="60" as="geometry" />
        </mxCell>
        <mxCell id="dYVi-snJWBGB5sRTURGu-5" value="Query &quot;&lt;span style=&quot;color: rgb(33, 33, 33); font-family: Inter, system-ui, -apple-system, BlinkMacSystemFont, &amp;quot;Segoe UI&amp;quot;, Roboto, Oxygen, Ubuntu, Cantarell, &amp;quot;Fira Sans&amp;quot;, &amp;quot;Droid Sans&amp;quot;, Helvetica, Arial, sans-serif; text-align: left; background-color: rgb(255, 255, 255);&quot;&gt;statements&lt;/span&gt;&quot;" style="rounded=1;whiteSpace=wrap;html=1;strokeColor=#FF1D0D;dashed=1;" parent="1" vertex="1">
          <mxGeometry x="515" y="685" width="120" height="60" as="geometry" />
        </mxCell>
        <mxCell id="dYVi-snJWBGB5sRTURGu-6" value="GET &quot;statements&quot;" style="rounded=1;whiteSpace=wrap;html=1;strokeColor=#FF1D0D;dashed=1;" parent="1" vertex="1">
          <mxGeometry x="515" y="795" width="120" height="60" as="geometry" />
        </mxCell>
        <mxCell id="dYVi-snJWBGB5sRTURGu-7" value="Query &quot;statements&quot;" style="rounded=0;whiteSpace=wrap;html=1;labelBackgroundColor=none;strokeColor=#FF1D0D;fillColor=#FFFFFF;dashed=1;" parent="1" vertex="1">
          <mxGeometry x="890" y="685" width="120" height="60" as="geometry" />
        </mxCell>
        <mxCell id="dYVi-snJWBGB5sRTURGu-8" style="edgeStyle=orthogonalEdgeStyle;rounded=0;jumpStyle=line;orthogonalLoop=1;jettySize=auto;html=1;exitX=1;exitY=0.5;exitDx=0;exitDy=0;shadow=1;startArrow=none;startFill=0;endArrow=blockThin;endFill=1;" parent="1" source="dYVi-snJWBGB5sRTURGu-5" target="dYVi-snJWBGB5sRTURGu-7" edge="1">
          <mxGeometry relative="1" as="geometry" />
        </mxCell>
        <mxCell id="dYVi-snJWBGB5sRTURGu-9" value="&lt;span style=&quot;color: rgb(56, 66, 72); font-family: Lato; font-size: 13px; text-align: start;&quot;&gt;/statements&lt;/span&gt;&lt;span style=&quot;color: rgb(56, 66, 72); font-family: Lato; font-size: 13px; text-align: start;&quot;&gt;/v2/accounts&lt;br&gt;/&lt;/span&gt;&lt;label style=&quot;cursor: pointer; text-decoration-line: underline; color: rgb(56, 66, 72); font-family: Lato; font-size: 13px; text-align: start;&quot; for=&quot;path-GetStatementsV2_account_id&quot; class=&quot;APIHeader-url-parameterFHIqVFeNEd7b&quot;&gt;{account_id}&lt;/label&gt;&lt;span style=&quot;color: rgb(56, 66, 72); font-family: Lato; font-size: 13px; text-align: start;&quot;&gt;/statements&lt;/span&gt;" style="edgeLabel;html=1;align=center;verticalAlign=middle;resizable=0;points=[];" parent="dYVi-snJWBGB5sRTURGu-8" vertex="1" connectable="0">
          <mxGeometry x="-0.1373" relative="1" as="geometry">
            <mxPoint x="15" y="18" as="offset" />
          </mxGeometry>
        </mxCell>
        <mxCell id="dYVi-snJWBGB5sRTURGu-10" value="GET" style="edgeLabel;html=1;align=center;verticalAlign=middle;resizable=0;points=[];" parent="dYVi-snJWBGB5sRTURGu-8" vertex="1" connectable="0">
          <mxGeometry x="0.0824" y="2" relative="1" as="geometry">
            <mxPoint y="-10" as="offset" />
          </mxGeometry>
        </mxCell>
        <mxCell id="dYVi-snJWBGB5sRTURGu-11" style="edgeStyle=orthogonalEdgeStyle;rounded=0;jumpStyle=line;orthogonalLoop=1;jettySize=auto;html=1;exitX=0.5;exitY=1;exitDx=0;exitDy=0;entryX=1;entryY=0.5;entryDx=0;entryDy=0;shadow=1;startArrow=none;startFill=0;endArrow=blockThin;endFill=1;" parent="1" source="dYVi-snJWBGB5sRTURGu-7" target="dYVi-snJWBGB5sRTURGu-6" edge="1">
          <mxGeometry relative="1" as="geometry" />
        </mxCell>
        <mxCell id="dYVi-snJWBGB5sRTURGu-12" style="edgeStyle=orthogonalEdgeStyle;rounded=0;jumpStyle=line;orthogonalLoop=1;jettySize=auto;html=1;exitX=0;exitY=0.5;exitDx=0;exitDy=0;entryX=1;entryY=0.5;entryDx=0;entryDy=0;shadow=1;startArrow=none;startFill=0;endArrow=blockThin;endFill=1;" parent="1" source="dYVi-snJWBGB5sRTURGu-6" target="dYVi-snJWBGB5sRTURGu-2" edge="1">
          <mxGeometry relative="1" as="geometry" />
        </mxCell>
        <mxCell id="dYVi-snJWBGB5sRTURGu-13" value="&lt;span style=&quot;font-size: 11px; font-style: normal; font-variant-ligatures: normal; font-variant-caps: normal; font-weight: 400; letter-spacing: normal; orphans: 2; text-indent: 0px; text-transform: none; widows: 2; word-spacing: 0px; -webkit-text-stroke-width: 0px; text-decoration-thickness: initial; text-decoration-style: initial; text-decoration-color: initial; color: rgb(33, 33, 33); font-family: Inter, system-ui, -apple-system, BlinkMacSystemFont, &amp;quot;Segoe UI&amp;quot;, Roboto, Oxygen, Ubuntu, Cantarell, &amp;quot;Fira Sans&amp;quot;, &amp;quot;Droid Sans&amp;quot;, Helvetica, Arial, sans-serif; text-align: left;&quot;&gt;/v1/current-customer/deposit-accounts&lt;br&gt;/{accountNo}/&lt;/span&gt;&lt;span style=&quot;color: rgb(33, 33, 33); font-family: Inter, system-ui, -apple-system, BlinkMacSystemFont, &amp;quot;Segoe UI&amp;quot;, Roboto, Oxygen, Ubuntu, Cantarell, &amp;quot;Fira Sans&amp;quot;, &amp;quot;Droid Sans&amp;quot;, Helvetica, Arial, sans-serif; font-size: 12px; text-align: left;&quot;&gt;statements&lt;/span&gt;" style="edgeStyle=orthogonalEdgeStyle;rounded=0;jumpStyle=line;orthogonalLoop=1;jettySize=auto;html=1;exitX=1;exitY=0.5;exitDx=0;exitDy=0;entryX=0;entryY=0.5;entryDx=0;entryDy=0;shadow=1;startArrow=none;startFill=0;endArrow=blockThin;endFill=1;" parent="1" source="dYVi-snJWBGB5sRTURGu-4" target="dYVi-snJWBGB5sRTURGu-5" edge="1">
          <mxGeometry x="0.0203" y="-19" relative="1" as="geometry">
            <mxPoint as="offset" />
          </mxGeometry>
        </mxCell>
        <mxCell id="cqEw-0RctZeOiV3f_ru_-32" style="edgeStyle=orthogonalEdgeStyle;rounded=0;jumpStyle=line;orthogonalLoop=1;jettySize=auto;html=1;exitX=0.5;exitY=1;exitDx=0;exitDy=0;shadow=1;startArrow=none;startFill=0;endArrow=blockThin;endFill=1;" edge="1" parent="1" source="cqEw-0RctZeOiV3f_ru_-33" target="cqEw-0RctZeOiV3f_ru_-35">
          <mxGeometry relative="1" as="geometry" />
        </mxCell>
        <mxCell id="cqEw-0RctZeOiV3f_ru_-33" value="&quot;Card&amp;nbsp;Detail&quot; screen" style="rounded=1;whiteSpace=wrap;html=1;" vertex="1" parent="1">
          <mxGeometry x="65" y="1550" width="155" height="60" as="geometry" />
        </mxCell>
        <mxCell id="cqEw-0RctZeOiV3f_ru_-34" value="Show Update Result" style="rounded=1;whiteSpace=wrap;html=1;" vertex="1" parent="1">
          <mxGeometry x="70" y="1762" width="155" height="60" as="geometry" />
        </mxCell>
        <mxCell id="cqEw-0RctZeOiV3f_ru_-35" value="&quot;Activate&quot; button" style="rounded=1;whiteSpace=wrap;html=1;" vertex="1" parent="1">
          <mxGeometry x="65" y="1652" width="155" height="60" as="geometry" />
        </mxCell>
        <mxCell id="cqEw-0RctZeOiV3f_ru_-36" value="Activate Card" style="rounded=1;whiteSpace=wrap;html=1;strokeColor=#000000;" vertex="1" parent="1">
          <mxGeometry x="500" y="1652" width="120" height="60" as="geometry" />
        </mxCell>
        <mxCell id="cqEw-0RctZeOiV3f_ru_-37" value="GET Update Result" style="rounded=1;whiteSpace=wrap;html=1;strokeColor=#000000;" vertex="1" parent="1">
          <mxGeometry x="500" y="1762" width="120" height="60" as="geometry" />
        </mxCell>
        <mxCell id="cqEw-0RctZeOiV3f_ru_-38" value="Activate Card" style="rounded=0;whiteSpace=wrap;html=1;labelBackgroundColor=none;strokeColor=#000000;fillColor=#FFFFFF;" vertex="1" parent="1">
          <mxGeometry x="890" y="1652" width="120" height="60" as="geometry" />
        </mxCell>
        <mxCell id="cqEw-0RctZeOiV3f_ru_-39" style="edgeStyle=orthogonalEdgeStyle;rounded=0;jumpStyle=line;orthogonalLoop=1;jettySize=auto;html=1;exitX=1;exitY=0.5;exitDx=0;exitDy=0;shadow=1;startArrow=none;startFill=0;endArrow=blockThin;endFill=1;" edge="1" parent="1" source="cqEw-0RctZeOiV3f_ru_-35" target="cqEw-0RctZeOiV3f_ru_-36">
          <mxGeometry relative="1" as="geometry" />
        </mxCell>
        <mxCell id="1SUOLLqazRYkrxFCXKbH-1" value="PUT" style="edgeLabel;html=1;align=center;verticalAlign=middle;resizable=0;points=[];" vertex="1" connectable="0" parent="cqEw-0RctZeOiV3f_ru_-39">
          <mxGeometry x="0.1929" relative="1" as="geometry">
            <mxPoint x="-17" y="-12" as="offset" />
          </mxGeometry>
        </mxCell>
        <mxCell id="1SUOLLqazRYkrxFCXKbH-2" value="&lt;span style=&quot;color: rgb(33, 33, 33); font-family: Inter, system-ui, -apple-system, BlinkMacSystemFont, &amp;quot;Segoe UI&amp;quot;, Roboto, Oxygen, Ubuntu, Cantarell, &amp;quot;Fira Sans&amp;quot;, &amp;quot;Droid Sans&amp;quot;, Helvetica, Arial, sans-serif; font-size: 12px; text-align: left;&quot;&gt;/v1/cards/activate/{cardId}&lt;/span&gt;" style="edgeLabel;html=1;align=center;verticalAlign=middle;resizable=0;points=[];" vertex="1" connectable="0" parent="cqEw-0RctZeOiV3f_ru_-39">
          <mxGeometry x="0.2857" y="-4" relative="1" as="geometry">
            <mxPoint x="-20" y="4" as="offset" />
          </mxGeometry>
        </mxCell>
        <mxCell id="cqEw-0RctZeOiV3f_ru_-40" style="edgeStyle=orthogonalEdgeStyle;rounded=0;jumpStyle=line;orthogonalLoop=1;jettySize=auto;html=1;exitX=1;exitY=0.5;exitDx=0;exitDy=0;entryX=0;entryY=0.5;entryDx=0;entryDy=0;shadow=1;startArrow=none;startFill=0;endArrow=blockThin;endFill=1;" edge="1" parent="1" source="cqEw-0RctZeOiV3f_ru_-36" target="cqEw-0RctZeOiV3f_ru_-38">
          <mxGeometry relative="1" as="geometry" />
        </mxCell>
        <mxCell id="cqEw-0RctZeOiV3f_ru_-41" value="PUT" style="edgeLabel;html=1;align=center;verticalAlign=middle;resizable=0;points=[];" vertex="1" connectable="0" parent="cqEw-0RctZeOiV3f_ru_-40">
          <mxGeometry x="-0.0902" y="-2" relative="1" as="geometry">
            <mxPoint x="1" y="-12" as="offset" />
          </mxGeometry>
        </mxCell>
        <mxCell id="cqEw-0RctZeOiV3f_ru_-42" value="&lt;div style=&quot;text-align: left;&quot;&gt;&lt;font face=&quot;Inter, system-ui, -apple-system, BlinkMacSystemFont, Segoe UI, Roboto, Oxygen, Ubuntu, Cantarell, Fira Sans, Droid Sans, Helvetica, Arial, sans-serif&quot; color=&quot;#212121&quot;&gt;&lt;span style=&quot;font-size: 11px;&quot;&gt;/wallet/v1/customers/{customerId}/accounts&lt;/span&gt;&lt;/font&gt;&lt;/div&gt;&lt;div style=&quot;text-align: left;&quot;&gt;&lt;font face=&quot;Inter, system-ui, -apple-system, BlinkMacSystemFont, Segoe UI, Roboto, Oxygen, Ubuntu, Cantarell, Fira Sans, Droid Sans, Helvetica, Arial, sans-serif&quot; color=&quot;#212121&quot;&gt;&lt;span style=&quot;font-size: 11px;&quot;&gt;/{accountId}/cards/{cardId}/activate&lt;/span&gt;&lt;/font&gt;&lt;br&gt;&lt;/div&gt;" style="edgeLabel;html=1;align=center;verticalAlign=middle;resizable=0;points=[];" vertex="1" connectable="0" parent="cqEw-0RctZeOiV3f_ru_-40">
          <mxGeometry x="0.4211" y="-3" relative="1" as="geometry">
            <mxPoint x="-52" y="17" as="offset" />
          </mxGeometry>
        </mxCell>
        <mxCell id="cqEw-0RctZeOiV3f_ru_-43" style="edgeStyle=orthogonalEdgeStyle;rounded=0;jumpStyle=line;orthogonalLoop=1;jettySize=auto;html=1;exitX=0;exitY=0.5;exitDx=0;exitDy=0;entryX=1;entryY=0.5;entryDx=0;entryDy=0;shadow=1;startArrow=none;startFill=0;endArrow=blockThin;endFill=1;" edge="1" parent="1" source="cqEw-0RctZeOiV3f_ru_-37" target="cqEw-0RctZeOiV3f_ru_-34">
          <mxGeometry relative="1" as="geometry" />
        </mxCell>
        <mxCell id="cqEw-0RctZeOiV3f_ru_-44" style="edgeStyle=orthogonalEdgeStyle;rounded=0;jumpStyle=line;orthogonalLoop=1;jettySize=auto;html=1;exitX=0.5;exitY=1;exitDx=0;exitDy=0;entryX=1;entryY=0.5;entryDx=0;entryDy=0;shadow=1;startArrow=none;startFill=0;endArrow=blockThin;endFill=1;" edge="1" parent="1" source="cqEw-0RctZeOiV3f_ru_-38" target="cqEw-0RctZeOiV3f_ru_-37">
          <mxGeometry relative="1" as="geometry" />
        </mxCell>
        <mxCell id="cqEw-0RctZeOiV3f_ru_-45" style="edgeStyle=orthogonalEdgeStyle;rounded=0;jumpStyle=line;orthogonalLoop=1;jettySize=auto;html=1;exitX=0.5;exitY=1;exitDx=0;exitDy=0;shadow=1;startArrow=none;startFill=0;endArrow=blockThin;endFill=1;" edge="1" parent="1" source="cqEw-0RctZeOiV3f_ru_-46" target="cqEw-0RctZeOiV3f_ru_-48">
          <mxGeometry relative="1" as="geometry" />
        </mxCell>
        <mxCell id="cqEw-0RctZeOiV3f_ru_-46" value="&quot;Card&amp;nbsp;Detail&quot; screen" style="rounded=1;whiteSpace=wrap;html=1;" vertex="1" parent="1">
          <mxGeometry x="74.5" y="1868" width="155" height="60" as="geometry" />
        </mxCell>
        <mxCell id="cqEw-0RctZeOiV3f_ru_-64" style="edgeStyle=orthogonalEdgeStyle;rounded=0;jumpStyle=line;orthogonalLoop=1;jettySize=auto;html=1;exitX=0.5;exitY=1;exitDx=0;exitDy=0;entryX=0;entryY=0.5;entryDx=0;entryDy=0;shadow=1;startArrow=none;startFill=0;endArrow=blockThin;endFill=1;" edge="1" parent="1" source="cqEw-0RctZeOiV3f_ru_-47" target="cqEw-0RctZeOiV3f_ru_-62">
          <mxGeometry relative="1" as="geometry" />
        </mxCell>
        <mxCell id="cqEw-0RctZeOiV3f_ru_-47" value="&quot;Replace&quot; screen fill reasons select" style="rounded=1;whiteSpace=wrap;html=1;" vertex="1" parent="1">
          <mxGeometry x="77" y="2188" width="155" height="60" as="geometry" />
        </mxCell>
        <mxCell id="cqEw-0RctZeOiV3f_ru_-60" style="edgeStyle=orthogonalEdgeStyle;rounded=0;jumpStyle=line;orthogonalLoop=1;jettySize=auto;html=1;exitX=0.5;exitY=1;exitDx=0;exitDy=0;shadow=1;startArrow=none;startFill=0;endArrow=blockThin;endFill=1;" edge="1" parent="1" source="cqEw-0RctZeOiV3f_ru_-48" target="cqEw-0RctZeOiV3f_ru_-59">
          <mxGeometry relative="1" as="geometry" />
        </mxCell>
        <mxCell id="cqEw-0RctZeOiV3f_ru_-48" value="&quot;Replace&quot; button" style="rounded=1;whiteSpace=wrap;html=1;" vertex="1" parent="1">
          <mxGeometry x="74.5" y="1970" width="155" height="60" as="geometry" />
        </mxCell>
        <mxCell id="cqEw-0RctZeOiV3f_ru_-49" value="Query &quot;reissue reasons&quot;" style="rounded=1;whiteSpace=wrap;html=1;strokeColor=#FF1D0D;dashed=1;gradientColor=none;" vertex="1" parent="1">
          <mxGeometry x="527" y="2068" width="120" height="60" as="geometry" />
        </mxCell>
        <mxCell id="cqEw-0RctZeOiV3f_ru_-50" value="GET Result" style="rounded=1;whiteSpace=wrap;html=1;strokeColor=#000000;" vertex="1" parent="1">
          <mxGeometry x="527" y="2188" width="120" height="60" as="geometry" />
        </mxCell>
        <mxCell id="cqEw-0RctZeOiV3f_ru_-52" style="edgeStyle=orthogonalEdgeStyle;rounded=0;jumpStyle=line;orthogonalLoop=1;jettySize=auto;html=1;exitX=1;exitY=0.5;exitDx=0;exitDy=0;shadow=1;startArrow=none;startFill=0;endArrow=blockThin;endFill=1;" edge="1" parent="1" source="cqEw-0RctZeOiV3f_ru_-59" target="cqEw-0RctZeOiV3f_ru_-49">
          <mxGeometry relative="1" as="geometry" />
        </mxCell>
        <mxCell id="cqEw-0RctZeOiV3f_ru_-53" style="edgeStyle=orthogonalEdgeStyle;rounded=0;jumpStyle=line;orthogonalLoop=1;jettySize=auto;html=1;exitX=1;exitY=0.5;exitDx=0;exitDy=0;entryX=0;entryY=0.5;entryDx=0;entryDy=0;shadow=1;startArrow=none;startFill=0;endArrow=blockThin;endFill=1;" edge="1" parent="1" source="cqEw-0RctZeOiV3f_ru_-49" target="cqEw-0RctZeOiV3f_ru_-51">
          <mxGeometry relative="1" as="geometry" />
        </mxCell>
        <mxCell id="cqEw-0RctZeOiV3f_ru_-54" value="GET" style="edgeLabel;html=1;align=center;verticalAlign=middle;resizable=0;points=[];" vertex="1" connectable="0" parent="cqEw-0RctZeOiV3f_ru_-53">
          <mxGeometry x="-0.0902" y="-2" relative="1" as="geometry">
            <mxPoint x="1" y="-12" as="offset" />
          </mxGeometry>
        </mxCell>
        <mxCell id="cqEw-0RctZeOiV3f_ru_-55" value="&lt;div style=&quot;text-align: left;&quot;&gt;&lt;span style=&quot;color: rgb(56, 66, 72); font-family: Lato; font-size: 13px;&quot;&gt;/wallet/v1/cards/reissue/reasons&lt;/span&gt;&lt;br&gt;&lt;/div&gt;" style="edgeLabel;html=1;align=center;verticalAlign=middle;resizable=0;points=[];" vertex="1" connectable="0" parent="cqEw-0RctZeOiV3f_ru_-53">
          <mxGeometry x="0.4211" y="-3" relative="1" as="geometry">
            <mxPoint x="-52" y="17" as="offset" />
          </mxGeometry>
        </mxCell>
        <mxCell id="cqEw-0RctZeOiV3f_ru_-56" style="edgeStyle=orthogonalEdgeStyle;rounded=0;jumpStyle=line;orthogonalLoop=1;jettySize=auto;html=1;exitX=0;exitY=0.5;exitDx=0;exitDy=0;entryX=1;entryY=0.5;entryDx=0;entryDy=0;shadow=1;startArrow=none;startFill=0;endArrow=blockThin;endFill=1;" edge="1" parent="1" source="cqEw-0RctZeOiV3f_ru_-50" target="cqEw-0RctZeOiV3f_ru_-47">
          <mxGeometry relative="1" as="geometry" />
        </mxCell>
        <mxCell id="cqEw-0RctZeOiV3f_ru_-57" style="edgeStyle=orthogonalEdgeStyle;rounded=0;jumpStyle=line;orthogonalLoop=1;jettySize=auto;html=1;exitX=0.5;exitY=1;exitDx=0;exitDy=0;entryX=1;entryY=0.5;entryDx=0;entryDy=0;shadow=1;startArrow=none;startFill=0;endArrow=blockThin;endFill=1;" edge="1" parent="1" source="cqEw-0RctZeOiV3f_ru_-51" target="cqEw-0RctZeOiV3f_ru_-50">
          <mxGeometry relative="1" as="geometry" />
        </mxCell>
        <mxCell id="cqEw-0RctZeOiV3f_ru_-59" value="&quot;Replace&quot; screen" style="rounded=1;whiteSpace=wrap;html=1;" vertex="1" parent="1">
          <mxGeometry x="74.5" y="2068" width="155" height="60" as="geometry" />
        </mxCell>
        <mxCell id="cqEw-0RctZeOiV3f_ru_-65" style="edgeStyle=orthogonalEdgeStyle;rounded=0;jumpStyle=line;orthogonalLoop=1;jettySize=auto;html=1;exitX=1;exitY=0.5;exitDx=0;exitDy=0;shadow=1;startArrow=none;startFill=0;endArrow=blockThin;endFill=1;" edge="1" parent="1" source="cqEw-0RctZeOiV3f_ru_-62" target="cqEw-0RctZeOiV3f_ru_-63">
          <mxGeometry relative="1" as="geometry" />
        </mxCell>
        <mxCell id="cqEw-0RctZeOiV3f_ru_-66" value="POST" style="edgeLabel;html=1;align=center;verticalAlign=middle;resizable=0;points=[];" vertex="1" connectable="0" parent="cqEw-0RctZeOiV3f_ru_-65">
          <mxGeometry x="0.1538" relative="1" as="geometry">
            <mxPoint y="-10" as="offset" />
          </mxGeometry>
        </mxCell>
        <mxCell id="cqEw-0RctZeOiV3f_ru_-67" value="/wallet/v1/customers/{customerId}/accounts&lt;br&gt;/{accountId}/cards/{cardId}/reissue" style="edgeLabel;html=1;align=center;verticalAlign=middle;resizable=0;points=[];" vertex="1" connectable="0" parent="cqEw-0RctZeOiV3f_ru_-65">
          <mxGeometry x="0.1846" y="-4" relative="1" as="geometry">
            <mxPoint x="-24" y="16" as="offset" />
          </mxGeometry>
        </mxCell>
        <mxCell id="cqEw-0RctZeOiV3f_ru_-62" value="&quot;reissue&quot;" style="rounded=1;whiteSpace=wrap;html=1;strokeColor=#FF1D0D;dashed=1;" vertex="1" parent="1">
          <mxGeometry x="527" y="2298" width="120" height="60" as="geometry" />
        </mxCell>
        <mxCell id="cqEw-0RctZeOiV3f_ru_-69" style="edgeStyle=orthogonalEdgeStyle;rounded=0;jumpStyle=line;orthogonalLoop=1;jettySize=auto;html=1;exitX=0.5;exitY=1;exitDx=0;exitDy=0;entryX=1;entryY=0.5;entryDx=0;entryDy=0;shadow=1;startArrow=none;startFill=0;endArrow=blockThin;endFill=1;" edge="1" parent="1" source="cqEw-0RctZeOiV3f_ru_-63" target="cqEw-0RctZeOiV3f_ru_-68">
          <mxGeometry relative="1" as="geometry" />
        </mxCell>
        <mxCell id="cqEw-0RctZeOiV3f_ru_-63" value="&quot;reissue&quot;" style="rounded=0;whiteSpace=wrap;html=1;labelBackgroundColor=none;strokeColor=#000000;fillColor=#FFFFFF;" vertex="1" parent="1">
          <mxGeometry x="907" y="2298" width="120" height="60" as="geometry" />
        </mxCell>
        <mxCell id="cqEw-0RctZeOiV3f_ru_-71" style="edgeStyle=orthogonalEdgeStyle;rounded=0;jumpStyle=line;orthogonalLoop=1;jettySize=auto;html=1;exitX=0;exitY=0.5;exitDx=0;exitDy=0;shadow=1;startArrow=none;startFill=0;endArrow=blockThin;endFill=1;" edge="1" parent="1" source="cqEw-0RctZeOiV3f_ru_-68" target="cqEw-0RctZeOiV3f_ru_-70">
          <mxGeometry relative="1" as="geometry" />
        </mxCell>
        <mxCell id="cqEw-0RctZeOiV3f_ru_-68" value="GET Result" style="rounded=1;whiteSpace=wrap;html=1;strokeColor=#000000;" vertex="1" parent="1">
          <mxGeometry x="527" y="2398" width="120" height="60" as="geometry" />
        </mxCell>
        <mxCell id="cqEw-0RctZeOiV3f_ru_-70" value="Message" style="rounded=1;whiteSpace=wrap;html=1;" vertex="1" parent="1">
          <mxGeometry x="74.5" y="2398" width="155" height="60" as="geometry" />
        </mxCell>
        <mxCell id="cqEw-0RctZeOiV3f_ru_-73" style="edgeStyle=orthogonalEdgeStyle;rounded=0;jumpStyle=line;orthogonalLoop=1;jettySize=auto;html=1;exitX=0.5;exitY=1;exitDx=0;exitDy=0;shadow=1;startArrow=none;startFill=0;endArrow=blockThin;endFill=1;" edge="1" parent="1" source="cqEw-0RctZeOiV3f_ru_-74" target="cqEw-0RctZeOiV3f_ru_-78">
          <mxGeometry relative="1" as="geometry" />
        </mxCell>
        <mxCell id="cqEw-0RctZeOiV3f_ru_-74" value="&quot;Card&amp;nbsp;Detail&quot; screen" style="rounded=1;whiteSpace=wrap;html=1;" vertex="1" parent="1">
          <mxGeometry x="82" y="2534" width="155" height="60" as="geometry" />
        </mxCell>
        <mxCell id="cqEw-0RctZeOiV3f_ru_-77" style="edgeStyle=orthogonalEdgeStyle;rounded=0;jumpStyle=line;orthogonalLoop=1;jettySize=auto;html=1;exitX=0.5;exitY=1;exitDx=0;exitDy=0;shadow=1;startArrow=none;startFill=0;endArrow=blockThin;endFill=1;" edge="1" parent="1" source="cqEw-0RctZeOiV3f_ru_-78" target="cqEw-0RctZeOiV3f_ru_-87">
          <mxGeometry relative="1" as="geometry" />
        </mxCell>
        <mxCell id="cqEw-0RctZeOiV3f_ru_-78" value="&quot;Card limits&quot; button" style="rounded=1;whiteSpace=wrap;html=1;" vertex="1" parent="1">
          <mxGeometry x="82" y="2636" width="155" height="60" as="geometry" />
        </mxCell>
        <mxCell id="cqEw-0RctZeOiV3f_ru_-81" style="edgeStyle=orthogonalEdgeStyle;rounded=0;jumpStyle=line;orthogonalLoop=1;jettySize=auto;html=1;exitX=1;exitY=0.5;exitDx=0;exitDy=0;shadow=1;startArrow=none;startFill=0;endArrow=blockThin;endFill=1;" edge="1" parent="1" source="cqEw-0RctZeOiV3f_ru_-87" target="cqEw-0RctZeOiV3f_ru_-91">
          <mxGeometry relative="1" as="geometry">
            <mxPoint x="534.5" y="2764" as="targetPoint" />
          </mxGeometry>
        </mxCell>
        <mxCell id="cqEw-0RctZeOiV3f_ru_-87" value="&quot;Card limits&quot; screen" style="rounded=1;whiteSpace=wrap;html=1;" vertex="1" parent="1">
          <mxGeometry x="82" y="2734" width="155" height="60" as="geometry" />
        </mxCell>
        <mxCell id="cqEw-0RctZeOiV3f_ru_-88" style="edgeStyle=orthogonalEdgeStyle;rounded=0;jumpStyle=line;orthogonalLoop=1;jettySize=auto;html=1;exitX=1;exitY=0.5;exitDx=0;exitDy=0;shadow=1;startArrow=none;startFill=0;endArrow=blockThin;endFill=1;" edge="1" parent="1" source="cqEw-0RctZeOiV3f_ru_-91" target="cqEw-0RctZeOiV3f_ru_-93">
          <mxGeometry relative="1" as="geometry" />
        </mxCell>
        <mxCell id="cqEw-0RctZeOiV3f_ru_-89" value="POST" style="edgeLabel;html=1;align=center;verticalAlign=middle;resizable=0;points=[];" vertex="1" connectable="0" parent="cqEw-0RctZeOiV3f_ru_-88">
          <mxGeometry x="0.1538" relative="1" as="geometry">
            <mxPoint y="-10" as="offset" />
          </mxGeometry>
        </mxCell>
        <mxCell id="cqEw-0RctZeOiV3f_ru_-90" value="/wallet/v1/customers/{customerId}/accounts&lt;br&gt;/{accountId}/cards/{cardId}/reissue" style="edgeLabel;html=1;align=center;verticalAlign=middle;resizable=0;points=[];" vertex="1" connectable="0" parent="cqEw-0RctZeOiV3f_ru_-88">
          <mxGeometry x="0.1846" y="-4" relative="1" as="geometry">
            <mxPoint x="-24" y="16" as="offset" />
          </mxGeometry>
        </mxCell>
        <mxCell id="cqEw-0RctZeOiV3f_ru_-91" value="set &quot;Card limits&quot;" style="rounded=1;whiteSpace=wrap;html=1;strokeColor=#FF1D0D;dashed=1;" vertex="1" parent="1">
          <mxGeometry x="544.5" y="2735" width="120" height="60" as="geometry" />
        </mxCell>
        <mxCell id="cqEw-0RctZeOiV3f_ru_-92" style="edgeStyle=orthogonalEdgeStyle;rounded=0;jumpStyle=line;orthogonalLoop=1;jettySize=auto;html=1;exitX=0.5;exitY=1;exitDx=0;exitDy=0;entryX=1;entryY=0.5;entryDx=0;entryDy=0;shadow=1;startArrow=none;startFill=0;endArrow=blockThin;endFill=1;" edge="1" parent="1" source="cqEw-0RctZeOiV3f_ru_-93" target="cqEw-0RctZeOiV3f_ru_-95">
          <mxGeometry relative="1" as="geometry" />
        </mxCell>
        <mxCell id="cqEw-0RctZeOiV3f_ru_-93" value="set &quot;Card limits&quot;" style="rounded=0;whiteSpace=wrap;html=1;labelBackgroundColor=none;strokeColor=#000000;fillColor=#FFFFFF;" vertex="1" parent="1">
          <mxGeometry x="924.5" y="2735" width="120" height="60" as="geometry" />
        </mxCell>
        <mxCell id="cqEw-0RctZeOiV3f_ru_-94" style="edgeStyle=orthogonalEdgeStyle;rounded=0;jumpStyle=line;orthogonalLoop=1;jettySize=auto;html=1;exitX=0;exitY=0.5;exitDx=0;exitDy=0;shadow=1;startArrow=none;startFill=0;endArrow=blockThin;endFill=1;" edge="1" parent="1" source="cqEw-0RctZeOiV3f_ru_-95" target="cqEw-0RctZeOiV3f_ru_-96">
          <mxGeometry relative="1" as="geometry" />
        </mxCell>
        <mxCell id="cqEw-0RctZeOiV3f_ru_-95" value="GET Result" style="rounded=1;whiteSpace=wrap;html=1;strokeColor=#000000;" vertex="1" parent="1">
          <mxGeometry x="544.5" y="2835" width="120" height="60" as="geometry" />
        </mxCell>
        <mxCell id="cqEw-0RctZeOiV3f_ru_-96" value="Message" style="rounded=1;whiteSpace=wrap;html=1;" vertex="1" parent="1">
          <mxGeometry x="82" y="2835" width="155" height="60" as="geometry" />
        </mxCell>
        <mxCell id="cqEw-0RctZeOiV3f_ru_-97" style="edgeStyle=orthogonalEdgeStyle;rounded=0;jumpStyle=line;orthogonalLoop=1;jettySize=auto;html=1;exitX=0.5;exitY=1;exitDx=0;exitDy=0;shadow=1;startArrow=none;startFill=0;endArrow=blockThin;endFill=1;" edge="1" parent="1" source="cqEw-0RctZeOiV3f_ru_-98" target="cqEw-0RctZeOiV3f_ru_-100">
          <mxGeometry relative="1" as="geometry" />
        </mxCell>
        <mxCell id="cqEw-0RctZeOiV3f_ru_-98" value="&quot;Card&amp;nbsp;Detail&quot; screen" style="rounded=1;whiteSpace=wrap;html=1;" vertex="1" parent="1">
          <mxGeometry x="83" y="2941" width="155" height="60" as="geometry" />
        </mxCell>
        <mxCell id="cqEw-0RctZeOiV3f_ru_-99" style="edgeStyle=orthogonalEdgeStyle;rounded=0;jumpStyle=line;orthogonalLoop=1;jettySize=auto;html=1;exitX=0.5;exitY=1;exitDx=0;exitDy=0;shadow=1;startArrow=none;startFill=0;endArrow=blockThin;endFill=1;" edge="1" parent="1" source="cqEw-0RctZeOiV3f_ru_-100" target="cqEw-0RctZeOiV3f_ru_-102">
          <mxGeometry relative="1" as="geometry" />
        </mxCell>
        <mxCell id="cqEw-0RctZeOiV3f_ru_-100" value="&quot;Chang&amp;nbsp;Pin&quot; button" style="rounded=1;whiteSpace=wrap;html=1;" vertex="1" parent="1">
          <mxGeometry x="83" y="3043" width="155" height="60" as="geometry" />
        </mxCell>
        <mxCell id="cqEw-0RctZeOiV3f_ru_-101" style="edgeStyle=orthogonalEdgeStyle;rounded=0;jumpStyle=line;orthogonalLoop=1;jettySize=auto;html=1;exitX=1;exitY=0.5;exitDx=0;exitDy=0;shadow=1;startArrow=none;startFill=0;endArrow=blockThin;endFill=1;" edge="1" parent="1" source="cqEw-0RctZeOiV3f_ru_-102" target="cqEw-0RctZeOiV3f_ru_-106">
          <mxGeometry relative="1" as="geometry">
            <mxPoint x="535.5" y="3171" as="targetPoint" />
          </mxGeometry>
        </mxCell>
        <mxCell id="cqEw-0RctZeOiV3f_ru_-102" value="&quot;Chang&amp;nbsp;Pin&quot;&amp;nbsp;screen" style="rounded=1;whiteSpace=wrap;html=1;" vertex="1" parent="1">
          <mxGeometry x="83" y="3141" width="155" height="60" as="geometry" />
        </mxCell>
        <mxCell id="cqEw-0RctZeOiV3f_ru_-103" style="edgeStyle=orthogonalEdgeStyle;rounded=0;jumpStyle=line;orthogonalLoop=1;jettySize=auto;html=1;exitX=1;exitY=0.5;exitDx=0;exitDy=0;shadow=1;startArrow=none;startFill=0;endArrow=blockThin;endFill=1;" edge="1" parent="1" source="cqEw-0RctZeOiV3f_ru_-106" target="cqEw-0RctZeOiV3f_ru_-108">
          <mxGeometry relative="1" as="geometry" />
        </mxCell>
        <mxCell id="cqEw-0RctZeOiV3f_ru_-104" value="POST" style="edgeLabel;html=1;align=center;verticalAlign=middle;resizable=0;points=[];" vertex="1" connectable="0" parent="cqEw-0RctZeOiV3f_ru_-103">
          <mxGeometry x="0.1538" relative="1" as="geometry">
            <mxPoint y="-10" as="offset" />
          </mxGeometry>
        </mxCell>
        <mxCell id="cqEw-0RctZeOiV3f_ru_-105" value="&lt;div style=&quot;text-align: start;&quot;&gt;&lt;font face=&quot;Lato&quot; color=&quot;#384248&quot;&gt;&lt;span style=&quot;font-size: 13px;&quot;&gt;/pcicards/v1/pcicards/{cardId}/pinblock&lt;/span&gt;&lt;/font&gt;&lt;/div&gt;" style="edgeLabel;html=1;align=center;verticalAlign=middle;resizable=0;points=[];" vertex="1" connectable="0" parent="cqEw-0RctZeOiV3f_ru_-103">
          <mxGeometry x="0.1846" y="-4" relative="1" as="geometry">
            <mxPoint x="-24" y="16" as="offset" />
          </mxGeometry>
        </mxCell>
        <mxCell id="cqEw-0RctZeOiV3f_ru_-106" value="change &quot;Card Pin&quot;" style="rounded=1;whiteSpace=wrap;html=1;strokeColor=#FF1D0D;dashed=1;" vertex="1" parent="1">
          <mxGeometry x="545.5" y="3142" width="120" height="60" as="geometry" />
        </mxCell>
        <mxCell id="cqEw-0RctZeOiV3f_ru_-107" style="edgeStyle=orthogonalEdgeStyle;rounded=0;jumpStyle=line;orthogonalLoop=1;jettySize=auto;html=1;exitX=0.5;exitY=1;exitDx=0;exitDy=0;entryX=1;entryY=0.5;entryDx=0;entryDy=0;shadow=1;startArrow=none;startFill=0;endArrow=blockThin;endFill=1;" edge="1" parent="1" source="cqEw-0RctZeOiV3f_ru_-108" target="cqEw-0RctZeOiV3f_ru_-110">
          <mxGeometry relative="1" as="geometry" />
        </mxCell>
        <mxCell id="cqEw-0RctZeOiV3f_ru_-108" value="Change &quot;Card Pin&quot;" style="rounded=0;whiteSpace=wrap;html=1;labelBackgroundColor=none;strokeColor=#000000;fillColor=#FFFFFF;" vertex="1" parent="1">
          <mxGeometry x="925.5" y="3142" width="120" height="60" as="geometry" />
        </mxCell>
        <mxCell id="cqEw-0RctZeOiV3f_ru_-109" style="edgeStyle=orthogonalEdgeStyle;rounded=0;jumpStyle=line;orthogonalLoop=1;jettySize=auto;html=1;exitX=0;exitY=0.5;exitDx=0;exitDy=0;shadow=1;startArrow=none;startFill=0;endArrow=blockThin;endFill=1;" edge="1" parent="1" source="cqEw-0RctZeOiV3f_ru_-110" target="cqEw-0RctZeOiV3f_ru_-111">
          <mxGeometry relative="1" as="geometry" />
        </mxCell>
        <mxCell id="cqEw-0RctZeOiV3f_ru_-110" value="GET Result" style="rounded=1;whiteSpace=wrap;html=1;strokeColor=#000000;" vertex="1" parent="1">
          <mxGeometry x="545.5" y="3242" width="120" height="60" as="geometry" />
        </mxCell>
        <mxCell id="cqEw-0RctZeOiV3f_ru_-111" value="Message" style="rounded=1;whiteSpace=wrap;html=1;" vertex="1" parent="1">
          <mxGeometry x="83" y="3242" width="155" height="60" as="geometry" />
        </mxCell>
      </root>
    </mxGraphModel>
  </diagram>
  <diagram id="0kebmKJqsAFASpuSlwa4" name="Pay&amp;Transfer">
    <mxGraphModel dx="2062" dy="1122" grid="1" gridSize="10" guides="1" tooltips="1" connect="1" arrows="1" fold="1" page="1" pageScale="1" pageWidth="1100" pageHeight="850" math="0" shadow="0">
      <root>
        <mxCell id="0" />
        <mxCell id="1" parent="0" />
        <mxCell id="w1jTDOHZ5FRXDDFrSaZj-1" value="Account" style="swimlane;html=1;childLayout=stackLayout;startSize=20;rounded=0;shadow=0;labelBackgroundColor=none;strokeWidth=1;fontFamily=Verdana;fontSize=8;align=center;" vertex="1" parent="1">
          <mxGeometry width="1100" height="1700" as="geometry">
            <mxRectangle x="70" y="40" width="190" height="30" as="alternateBounds" />
          </mxGeometry>
        </mxCell>
        <mxCell id="w1jTDOHZ5FRXDDFrSaZj-2" value="OCMB APP" style="swimlane;html=1;startSize=20;shadow=0;" vertex="1" parent="w1jTDOHZ5FRXDDFrSaZj-1">
          <mxGeometry y="20" width="370" height="1680" as="geometry">
            <mxRectangle x="40" y="20" width="40" height="730" as="alternateBounds" />
          </mxGeometry>
        </mxCell>
        <mxCell id="Y6_7SDg5NJ1FqymF6KlI-2" value="" style="edgeStyle=orthogonalEdgeStyle;rounded=0;jumpStyle=line;orthogonalLoop=1;jettySize=auto;html=1;shadow=1;startArrow=none;startFill=0;endArrow=blockThin;endFill=1;" edge="1" parent="w1jTDOHZ5FRXDDFrSaZj-2" source="w1jTDOHZ5FRXDDFrSaZj-3" target="Y6_7SDg5NJ1FqymF6KlI-1">
          <mxGeometry relative="1" as="geometry" />
        </mxCell>
        <mxCell id="w1jTDOHZ5FRXDDFrSaZj-3" value="&quot;Pay &amp;amp; Transfer&quot; screen" style="rounded=1;whiteSpace=wrap;html=1;" vertex="1" parent="w1jTDOHZ5FRXDDFrSaZj-2">
          <mxGeometry x="55" y="40" width="155" height="60" as="geometry" />
        </mxCell>
        <mxCell id="Y6_7SDg5NJ1FqymF6KlI-4" style="edgeStyle=orthogonalEdgeStyle;rounded=0;jumpStyle=line;orthogonalLoop=1;jettySize=auto;html=1;exitX=0.5;exitY=1;exitDx=0;exitDy=0;entryX=0.5;entryY=0;entryDx=0;entryDy=0;shadow=1;startArrow=none;startFill=0;endArrow=blockThin;endFill=1;" edge="1" parent="w1jTDOHZ5FRXDDFrSaZj-2" source="Y6_7SDg5NJ1FqymF6KlI-1" target="Y6_7SDg5NJ1FqymF6KlI-3">
          <mxGeometry relative="1" as="geometry" />
        </mxCell>
        <mxCell id="Y6_7SDg5NJ1FqymF6KlI-1" value="&quot;Transfer within Bank&quot; button" style="rounded=1;whiteSpace=wrap;html=1;" vertex="1" parent="w1jTDOHZ5FRXDDFrSaZj-2">
          <mxGeometry x="55" y="163" width="155" height="60" as="geometry" />
        </mxCell>
        <mxCell id="Y6_7SDg5NJ1FqymF6KlI-3" value="&quot;Enter recipient details&quot; screen" style="rounded=1;whiteSpace=wrap;html=1;" vertex="1" parent="w1jTDOHZ5FRXDDFrSaZj-2">
          <mxGeometry x="55" y="273" width="155" height="60" as="geometry" />
        </mxCell>
        <mxCell id="adU4G9PZl6BFjEkB7CEI-6" value="&quot;Pay &amp;amp; Transfer&quot; screen" style="rounded=1;whiteSpace=wrap;html=1;" vertex="1" parent="w1jTDOHZ5FRXDDFrSaZj-2">
          <mxGeometry x="55" y="479" width="155" height="60" as="geometry" />
        </mxCell>
        <mxCell id="adU4G9PZl6BFjEkB7CEI-8" value="&quot;Scan &amp;amp; Pay&quot; button" style="rounded=1;whiteSpace=wrap;html=1;" vertex="1" parent="w1jTDOHZ5FRXDDFrSaZj-2">
          <mxGeometry x="55" y="602" width="155" height="60" as="geometry" />
        </mxCell>
        <mxCell id="adU4G9PZl6BFjEkB7CEI-5" value="" style="edgeStyle=orthogonalEdgeStyle;rounded=0;jumpStyle=line;orthogonalLoop=1;jettySize=auto;html=1;shadow=1;startArrow=none;startFill=0;endArrow=blockThin;endFill=1;" edge="1" parent="w1jTDOHZ5FRXDDFrSaZj-2" source="adU4G9PZl6BFjEkB7CEI-6" target="adU4G9PZl6BFjEkB7CEI-8">
          <mxGeometry relative="1" as="geometry" />
        </mxCell>
        <mxCell id="adU4G9PZl6BFjEkB7CEI-9" value="&quot;Generate Qr&quot; button" style="rounded=1;whiteSpace=wrap;html=1;" vertex="1" parent="w1jTDOHZ5FRXDDFrSaZj-2">
          <mxGeometry x="55" y="712" width="155" height="60" as="geometry" />
        </mxCell>
        <mxCell id="adU4G9PZl6BFjEkB7CEI-7" style="edgeStyle=orthogonalEdgeStyle;rounded=0;jumpStyle=line;orthogonalLoop=1;jettySize=auto;html=1;exitX=0.5;exitY=1;exitDx=0;exitDy=0;entryX=0.5;entryY=0;entryDx=0;entryDy=0;shadow=1;startArrow=none;startFill=0;endArrow=blockThin;endFill=1;" edge="1" parent="w1jTDOHZ5FRXDDFrSaZj-2" source="adU4G9PZl6BFjEkB7CEI-8" target="adU4G9PZl6BFjEkB7CEI-9">
          <mxGeometry relative="1" as="geometry" />
        </mxCell>
        <mxCell id="adU4G9PZl6BFjEkB7CEI-19" value="&quot;Generate Qr&quot; screen" style="rounded=1;whiteSpace=wrap;html=1;" vertex="1" parent="w1jTDOHZ5FRXDDFrSaZj-2">
          <mxGeometry x="55" y="830" width="155" height="60" as="geometry" />
        </mxCell>
        <mxCell id="PYMHtp4edJCSCXSkdhpe-6" value="&quot;Qr&quot; screen" style="rounded=1;whiteSpace=wrap;html=1;" vertex="1" parent="w1jTDOHZ5FRXDDFrSaZj-2">
          <mxGeometry x="59" y="1080" width="155" height="60" as="geometry" />
        </mxCell>
        <mxCell id="PYMHtp4edJCSCXSkdhpe-27" style="edgeStyle=orthogonalEdgeStyle;rounded=0;jumpStyle=line;orthogonalLoop=1;jettySize=auto;html=1;exitX=0;exitY=0.5;exitDx=0;exitDy=0;entryX=0;entryY=0.5;entryDx=0;entryDy=0;shadow=1;startArrow=none;startFill=0;endArrow=blockThin;endFill=1;" edge="1" parent="w1jTDOHZ5FRXDDFrSaZj-2" source="PYMHtp4edJCSCXSkdhpe-28" target="Y6_7SDg5NJ1FqymF6KlI-3">
          <mxGeometry relative="1" as="geometry" />
        </mxCell>
        <mxCell id="PYMHtp4edJCSCXSkdhpe-29" style="edgeStyle=orthogonalEdgeStyle;rounded=0;jumpStyle=line;orthogonalLoop=1;jettySize=auto;html=1;exitX=0.5;exitY=1;exitDx=0;exitDy=0;entryX=0.5;entryY=0;entryDx=0;entryDy=0;shadow=1;startArrow=none;startFill=0;endArrow=blockThin;endFill=1;" edge="1" parent="w1jTDOHZ5FRXDDFrSaZj-2" source="PYMHtp4edJCSCXSkdhpe-11" target="PYMHtp4edJCSCXSkdhpe-28">
          <mxGeometry relative="1" as="geometry" />
        </mxCell>
        <mxCell id="PYMHtp4edJCSCXSkdhpe-11" value="&quot;Scan Qr&quot; button" style="rounded=1;whiteSpace=wrap;html=1;" vertex="1" parent="w1jTDOHZ5FRXDDFrSaZj-2">
          <mxGeometry x="55" y="1460" width="155" height="60" as="geometry" />
        </mxCell>
        <mxCell id="PYMHtp4edJCSCXSkdhpe-9" value="&quot;Scan &amp;amp; Pay&quot; button" style="rounded=1;whiteSpace=wrap;html=1;" vertex="1" parent="w1jTDOHZ5FRXDDFrSaZj-2">
          <mxGeometry x="55" y="1340" width="155" height="60" as="geometry" />
        </mxCell>
        <mxCell id="PYMHtp4edJCSCXSkdhpe-12" style="edgeStyle=orthogonalEdgeStyle;rounded=0;jumpStyle=line;orthogonalLoop=1;jettySize=auto;html=1;exitX=0.5;exitY=1;exitDx=0;exitDy=0;entryX=0.5;entryY=0;entryDx=0;entryDy=0;shadow=1;startArrow=none;startFill=0;endArrow=blockThin;endFill=1;" edge="1" parent="w1jTDOHZ5FRXDDFrSaZj-2" source="PYMHtp4edJCSCXSkdhpe-9" target="PYMHtp4edJCSCXSkdhpe-11">
          <mxGeometry relative="1" as="geometry" />
        </mxCell>
        <mxCell id="PYMHtp4edJCSCXSkdhpe-30" style="edgeStyle=orthogonalEdgeStyle;rounded=0;jumpStyle=line;orthogonalLoop=1;jettySize=auto;html=1;exitX=1;exitY=0.5;exitDx=0;exitDy=0;entryX=1;entryY=0.5;entryDx=0;entryDy=0;shadow=1;startArrow=classic;startFill=1;endArrow=blockThin;endFill=1;" edge="1" parent="w1jTDOHZ5FRXDDFrSaZj-2" source="PYMHtp4edJCSCXSkdhpe-28" target="PYMHtp4edJCSCXSkdhpe-6">
          <mxGeometry relative="1" as="geometry" />
        </mxCell>
        <mxCell id="PYMHtp4edJCSCXSkdhpe-28" value="&quot;Scan Qr&quot; button &amp;amp; screen" style="rounded=1;whiteSpace=wrap;html=1;" vertex="1" parent="w1jTDOHZ5FRXDDFrSaZj-2">
          <mxGeometry x="55" y="1580" width="155" height="60" as="geometry" />
        </mxCell>
        <mxCell id="PYMHtp4edJCSCXSkdhpe-8" value="&quot;Pay &amp;amp; Transfer&quot; screen" style="rounded=1;whiteSpace=wrap;html=1;" vertex="1" parent="w1jTDOHZ5FRXDDFrSaZj-2">
          <mxGeometry x="55" y="1195" width="155" height="60" as="geometry" />
        </mxCell>
        <mxCell id="PYMHtp4edJCSCXSkdhpe-10" value="" style="edgeStyle=orthogonalEdgeStyle;rounded=0;jumpStyle=line;orthogonalLoop=1;jettySize=auto;html=1;shadow=1;startArrow=none;startFill=0;endArrow=blockThin;endFill=1;" edge="1" parent="w1jTDOHZ5FRXDDFrSaZj-2" source="PYMHtp4edJCSCXSkdhpe-8" target="PYMHtp4edJCSCXSkdhpe-9">
          <mxGeometry relative="1" as="geometry" />
        </mxCell>
        <mxCell id="w1jTDOHZ5FRXDDFrSaZj-23" value="OCMB API" style="swimlane;html=1;startSize=20;" vertex="1" parent="w1jTDOHZ5FRXDDFrSaZj-1">
          <mxGeometry x="370" y="20" width="410" height="1680" as="geometry">
            <mxRectangle x="80" y="20" width="40" height="730" as="alternateBounds" />
          </mxGeometry>
        </mxCell>
        <mxCell id="w1jTDOHZ5FRXDDFrSaZj-25" style="edgeStyle=orthogonalEdgeStyle;rounded=0;orthogonalLoop=1;jettySize=auto;html=1;exitX=0.5;exitY=1;exitDx=0;exitDy=0;" edge="1" parent="w1jTDOHZ5FRXDDFrSaZj-23">
          <mxGeometry relative="1" as="geometry">
            <mxPoint x="205" as="sourcePoint" />
            <mxPoint x="205" as="targetPoint" />
          </mxGeometry>
        </mxCell>
        <mxCell id="Y6_7SDg5NJ1FqymF6KlI-6" value="Transfer" style="rounded=1;whiteSpace=wrap;html=1;" vertex="1" parent="w1jTDOHZ5FRXDDFrSaZj-23">
          <mxGeometry x="120" y="273" width="155" height="60" as="geometry" />
        </mxCell>
        <mxCell id="adU4G9PZl6BFjEkB7CEI-2" value="Transfer Result" style="rounded=1;whiteSpace=wrap;html=1;" vertex="1" parent="w1jTDOHZ5FRXDDFrSaZj-23">
          <mxGeometry x="120" y="370" width="155" height="60" as="geometry" />
        </mxCell>
        <mxCell id="adU4G9PZl6BFjEkB7CEI-10" value="Generate Qr" style="rounded=1;whiteSpace=wrap;html=1;" vertex="1" parent="w1jTDOHZ5FRXDDFrSaZj-23">
          <mxGeometry x="120" y="930" width="160" height="60" as="geometry" />
        </mxCell>
        <mxCell id="I5AyJ9yUlpeELr4Tp6Qz-1" value="Query &quot;Account List&quot;" style="rounded=1;whiteSpace=wrap;html=1;" vertex="1" parent="w1jTDOHZ5FRXDDFrSaZj-23">
          <mxGeometry x="120" y="712" width="160" height="60" as="geometry" />
        </mxCell>
        <mxCell id="PYMHtp4edJCSCXSkdhpe-1" value="&lt;div&gt;As to list&lt;/div&gt;" style="rounded=1;whiteSpace=wrap;html=1;" vertex="1" parent="w1jTDOHZ5FRXDDFrSaZj-23">
          <mxGeometry x="120" y="830" width="160" height="60" as="geometry" />
        </mxCell>
        <mxCell id="Y6_7SDg5NJ1FqymF6KlI-7" value="" style="edgeStyle=orthogonalEdgeStyle;rounded=0;jumpStyle=line;orthogonalLoop=1;jettySize=auto;html=1;shadow=1;startArrow=none;startFill=0;endArrow=blockThin;endFill=1;" edge="1" parent="w1jTDOHZ5FRXDDFrSaZj-1" source="Y6_7SDg5NJ1FqymF6KlI-3" target="Y6_7SDg5NJ1FqymF6KlI-6">
          <mxGeometry relative="1" as="geometry" />
        </mxCell>
        <mxCell id="XJxi4PFFWHgTLc2WyK8S-1" value="/v1/transfer" style="edgeLabel;html=1;align=center;verticalAlign=middle;resizable=0;points=[];" vertex="1" connectable="0" parent="Y6_7SDg5NJ1FqymF6KlI-7">
          <mxGeometry x="-0.1357" y="-2" relative="1" as="geometry">
            <mxPoint y="5" as="offset" />
          </mxGeometry>
        </mxCell>
        <mxCell id="XJxi4PFFWHgTLc2WyK8S-2" value="POST" style="edgeLabel;html=1;align=center;verticalAlign=middle;resizable=0;points=[];" vertex="1" connectable="0" parent="Y6_7SDg5NJ1FqymF6KlI-7">
          <mxGeometry x="0.3286" relative="1" as="geometry">
            <mxPoint x="-66" y="-13" as="offset" />
          </mxGeometry>
        </mxCell>
        <mxCell id="Y6_7SDg5NJ1FqymF6KlI-9" value="" style="edgeStyle=orthogonalEdgeStyle;rounded=0;jumpStyle=line;orthogonalLoop=1;jettySize=auto;html=1;shadow=1;startArrow=none;startFill=0;endArrow=blockThin;endFill=1;" edge="1" parent="w1jTDOHZ5FRXDDFrSaZj-1" source="Y6_7SDg5NJ1FqymF6KlI-6" target="Y6_7SDg5NJ1FqymF6KlI-8">
          <mxGeometry relative="1" as="geometry" />
        </mxCell>
        <mxCell id="Y6_7SDg5NJ1FqymF6KlI-10" value="/payments/v1/payments" style="edgeLabel;html=1;align=center;verticalAlign=middle;resizable=0;points=[];" vertex="1" connectable="0" parent="Y6_7SDg5NJ1FqymF6KlI-9">
          <mxGeometry x="-0.1184" y="-3" relative="1" as="geometry">
            <mxPoint x="17" y="7" as="offset" />
          </mxGeometry>
        </mxCell>
        <mxCell id="Y6_7SDg5NJ1FqymF6KlI-11" value="POST" style="edgeLabel;html=1;align=center;verticalAlign=middle;resizable=0;points=[];" vertex="1" connectable="0" parent="Y6_7SDg5NJ1FqymF6KlI-9">
          <mxGeometry x="-0.1592" y="1" relative="1" as="geometry">
            <mxPoint x="12" y="-9" as="offset" />
          </mxGeometry>
        </mxCell>
        <mxCell id="adU4G9PZl6BFjEkB7CEI-3" style="edgeStyle=orthogonalEdgeStyle;rounded=0;jumpStyle=line;orthogonalLoop=1;jettySize=auto;html=1;exitX=0.5;exitY=1;exitDx=0;exitDy=0;entryX=1;entryY=0.5;entryDx=0;entryDy=0;shadow=1;startArrow=none;startFill=0;endArrow=blockThin;endFill=1;" edge="1" parent="w1jTDOHZ5FRXDDFrSaZj-1" source="Y6_7SDg5NJ1FqymF6KlI-8" target="adU4G9PZl6BFjEkB7CEI-2">
          <mxGeometry relative="1" as="geometry" />
        </mxCell>
        <mxCell id="adU4G9PZl6BFjEkB7CEI-4" style="edgeStyle=orthogonalEdgeStyle;rounded=0;jumpStyle=line;orthogonalLoop=1;jettySize=auto;html=1;exitX=0;exitY=0.5;exitDx=0;exitDy=0;entryX=0.5;entryY=1;entryDx=0;entryDy=0;shadow=1;startArrow=none;startFill=0;endArrow=blockThin;endFill=1;" edge="1" parent="w1jTDOHZ5FRXDDFrSaZj-1" source="adU4G9PZl6BFjEkB7CEI-2" target="Y6_7SDg5NJ1FqymF6KlI-3">
          <mxGeometry relative="1" as="geometry" />
        </mxCell>
        <mxCell id="I5AyJ9yUlpeELr4Tp6Qz-2" style="edgeStyle=orthogonalEdgeStyle;rounded=0;jumpStyle=line;orthogonalLoop=1;jettySize=auto;html=1;exitX=1;exitY=0.5;exitDx=0;exitDy=0;entryX=0;entryY=0.5;entryDx=0;entryDy=0;shadow=1;startArrow=none;startFill=0;endArrow=blockThin;endFill=1;" edge="1" parent="w1jTDOHZ5FRXDDFrSaZj-1" source="adU4G9PZl6BFjEkB7CEI-9" target="I5AyJ9yUlpeELr4Tp6Qz-1">
          <mxGeometry relative="1" as="geometry" />
        </mxCell>
        <mxCell id="Ybj7qk9566rg_51XKckZ-1" value="&lt;span style=&quot;color: rgb(33, 33, 33); font-family: Inter, system-ui, -apple-system, BlinkMacSystemFont, &amp;quot;Segoe UI&amp;quot;, Roboto, Oxygen, Ubuntu, Cantarell, &amp;quot;Fira Sans&amp;quot;, &amp;quot;Droid Sans&amp;quot;, Helvetica, Arial, sans-serif; text-align: left;&quot;&gt;/v1/current-customer/deposit-accounts&lt;/span&gt;" style="edgeLabel;html=1;align=center;verticalAlign=middle;resizable=0;points=[];" vertex="1" connectable="0" parent="I5AyJ9yUlpeELr4Tp6Qz-2">
          <mxGeometry x="0.3571" y="-4" relative="1" as="geometry">
            <mxPoint x="-50" y="4" as="offset" />
          </mxGeometry>
        </mxCell>
        <mxCell id="Ybj7qk9566rg_51XKckZ-2" value="GET" style="edgeLabel;html=1;align=center;verticalAlign=middle;resizable=0;points=[];" vertex="1" connectable="0" parent="I5AyJ9yUlpeELr4Tp6Qz-2">
          <mxGeometry x="0.3429" y="4" relative="1" as="geometry">
            <mxPoint x="-38" y="-8" as="offset" />
          </mxGeometry>
        </mxCell>
        <mxCell id="I5AyJ9yUlpeELr4Tp6Qz-3" style="edgeStyle=orthogonalEdgeStyle;rounded=0;jumpStyle=line;orthogonalLoop=1;jettySize=auto;html=1;exitX=1;exitY=0.5;exitDx=0;exitDy=0;shadow=1;startArrow=none;startFill=0;endArrow=blockThin;endFill=1;entryX=0;entryY=0.5;entryDx=0;entryDy=0;" edge="1" parent="w1jTDOHZ5FRXDDFrSaZj-1" target="16M0J57yx2lso7V7xouq-1">
          <mxGeometry relative="1" as="geometry">
            <mxPoint x="651" y="765" as="sourcePoint" />
            <mxPoint x="851" y="765" as="targetPoint" />
          </mxGeometry>
        </mxCell>
        <mxCell id="My0mp4dO5niWMPvPtIYz-1" value="/accounts/v1/accounts/{accountId}" style="edgeLabel;html=1;align=center;verticalAlign=middle;resizable=0;points=[];" vertex="1" connectable="0" parent="I5AyJ9yUlpeELr4Tp6Qz-3">
          <mxGeometry x="-0.19" y="-1" relative="1" as="geometry">
            <mxPoint x="16" y="12" as="offset" />
          </mxGeometry>
        </mxCell>
        <mxCell id="My0mp4dO5niWMPvPtIYz-2" value="GET" style="edgeLabel;html=1;align=center;verticalAlign=middle;resizable=0;points=[];" vertex="1" connectable="0" parent="I5AyJ9yUlpeELr4Tp6Qz-3">
          <mxGeometry x="0.2788" y="2" relative="1" as="geometry">
            <mxPoint x="-35" y="-13" as="offset" />
          </mxGeometry>
        </mxCell>
        <mxCell id="w1jTDOHZ5FRXDDFrSaZj-52" value="PISMO API" style="swimlane;html=1;startSize=20;" vertex="1" parent="w1jTDOHZ5FRXDDFrSaZj-1">
          <mxGeometry x="780" y="20" width="320" height="1680" as="geometry">
            <mxRectangle x="120" y="20" width="40" height="730" as="alternateBounds" />
          </mxGeometry>
        </mxCell>
        <mxCell id="Y6_7SDg5NJ1FqymF6KlI-8" value="Transfer" style="rounded=1;whiteSpace=wrap;html=1;strokeColor=#FF1D0D;dashed=1;" vertex="1" parent="w1jTDOHZ5FRXDDFrSaZj-52">
          <mxGeometry x="110" y="273" width="155" height="60" as="geometry" />
        </mxCell>
        <mxCell id="16M0J57yx2lso7V7xouq-1" value="Query &quot;Account info&quot;" style="rounded=0;whiteSpace=wrap;html=1;labelBackgroundColor=none;strokeColor=#FF0000;fillColor=#FFFFFF;dashed=1;" vertex="1" parent="w1jTDOHZ5FRXDDFrSaZj-52">
          <mxGeometry x="127.5" y="715" width="120" height="60" as="geometry" />
        </mxCell>
        <mxCell id="PYMHtp4edJCSCXSkdhpe-2" style="edgeStyle=orthogonalEdgeStyle;rounded=0;jumpStyle=line;orthogonalLoop=1;jettySize=auto;html=1;exitX=0.5;exitY=1;exitDx=0;exitDy=0;entryX=1;entryY=0.5;entryDx=0;entryDy=0;shadow=1;startArrow=none;startFill=0;endArrow=blockThin;endFill=1;" edge="1" parent="w1jTDOHZ5FRXDDFrSaZj-1" source="16M0J57yx2lso7V7xouq-1" target="PYMHtp4edJCSCXSkdhpe-1">
          <mxGeometry relative="1" as="geometry" />
        </mxCell>
        <mxCell id="PYMHtp4edJCSCXSkdhpe-4" style="edgeStyle=orthogonalEdgeStyle;rounded=0;jumpStyle=line;orthogonalLoop=1;jettySize=auto;html=1;entryX=1;entryY=0.5;entryDx=0;entryDy=0;shadow=1;startArrow=none;startFill=0;endArrow=blockThin;endFill=1;" edge="1" parent="w1jTDOHZ5FRXDDFrSaZj-1" source="PYMHtp4edJCSCXSkdhpe-1" target="adU4G9PZl6BFjEkB7CEI-19">
          <mxGeometry relative="1" as="geometry" />
        </mxCell>
        <mxCell id="PYMHtp4edJCSCXSkdhpe-5" style="edgeStyle=orthogonalEdgeStyle;rounded=0;jumpStyle=line;orthogonalLoop=1;jettySize=auto;html=1;exitX=0.5;exitY=1;exitDx=0;exitDy=0;entryX=0;entryY=0.5;entryDx=0;entryDy=0;shadow=1;startArrow=none;startFill=0;endArrow=blockThin;endFill=1;" edge="1" parent="w1jTDOHZ5FRXDDFrSaZj-1" source="adU4G9PZl6BFjEkB7CEI-19" target="adU4G9PZl6BFjEkB7CEI-10">
          <mxGeometry relative="1" as="geometry" />
        </mxCell>
        <mxCell id="XJxi4PFFWHgTLc2WyK8S-3" value="/v1/generate/collection" style="edgeLabel;html=1;align=center;verticalAlign=middle;resizable=0;points=[];" vertex="1" connectable="0" parent="PYMHtp4edJCSCXSkdhpe-5">
          <mxGeometry x="0.0737" y="-2" relative="1" as="geometry">
            <mxPoint x="1" y="7" as="offset" />
          </mxGeometry>
        </mxCell>
        <mxCell id="XJxi4PFFWHgTLc2WyK8S-4" value="GET" style="edgeLabel;html=1;align=center;verticalAlign=middle;resizable=0;points=[];" vertex="1" connectable="0" parent="PYMHtp4edJCSCXSkdhpe-5">
          <mxGeometry x="0.5275" y="-1" relative="1" as="geometry">
            <mxPoint x="-89" y="-11" as="offset" />
          </mxGeometry>
        </mxCell>
        <mxCell id="PYMHtp4edJCSCXSkdhpe-7" style="edgeStyle=orthogonalEdgeStyle;rounded=0;jumpStyle=line;orthogonalLoop=1;jettySize=auto;html=1;exitX=0.5;exitY=1;exitDx=0;exitDy=0;entryX=0.5;entryY=0;entryDx=0;entryDy=0;shadow=1;startArrow=none;startFill=0;endArrow=blockThin;endFill=1;" edge="1" parent="w1jTDOHZ5FRXDDFrSaZj-1" source="adU4G9PZl6BFjEkB7CEI-10" target="PYMHtp4edJCSCXSkdhpe-6">
          <mxGeometry relative="1" as="geometry" />
        </mxCell>
      </root>
    </mxGraphModel>
  </diagram>
</mxfile>
